<svg xmlns="http://www.w3.org/2000/svg" width="40" height="40" viewBox="0 0 40 40" preserveAspectRatio="xMidYMid meet"><path fill="#a83894" d="M12 4L20 4L20 8ZM28 4L28 12L24 12ZM28 36L20 36L20 32ZM12 36L12 28L16 28ZM4 12L12 12L12 16ZM36 12L36 20L32 20ZM36 28L28 28L28 24ZM4 28L4 20L8 20Z"/><path fill="#d175c0" d="M8 12L4 8L8 4L12 8ZM28 8L32 4L36 8L32 12ZM32 28L36 32L32 36L28 32ZM12 32L8 36L4 32L8 28Z"/><path fill="#e8e8e8" d="M12 12L20 12L20 20L12 20ZM17.1 19.2L19.2 15L15 15ZM28 12L28 20L20 20L20 12ZM20.8 17.1L25 19.2L25 15ZM28 28L20 28L20 20L28 20ZM22.9 20.8L20.8 25L25 25ZM12 28L12 20L20 20L20 28ZM19.2 22.9L15 20.8L15 25Z"/></svg>