<svg width="50" height="63" viewBox="0 0 50 63" fill="none" xmlns="http://www.w3.org/2000/svg">
<path d="M3 26.4444V34.8888C3 43.7254 10.1634 50.8888 19 50.8888H46.0222" stroke="#151B57" stroke-width="3"/>
<path d="M47.0002 50.8889L48.0608 51.9496L49.1215 50.8889L48.0608 49.8283L47.0002 50.8889ZM35.184 41.194L45.9395 51.9496L48.0608 49.8283L37.3053 39.0727L35.184 41.194ZM45.9395 49.8283L35.184 60.5838L37.3053 62.7051L48.0608 51.9496L45.9395 49.8283Z" fill="#7777FF"/>
<path d="M47 37.2V28.7556C47 19.919 39.8366 12.7556 31 12.7556H3.97778" stroke="#151B57" stroke-width="3"/>
<path d="M2.99981 12.7555L1.93916 11.6948L0.878495 12.7555L1.93916 13.8162L2.99981 12.7555ZM14.816 22.4504L4.06048 11.6948L1.93916 13.8162L12.6947 24.5717L14.816 22.4504ZM4.06048 13.8162L14.816 3.0606L12.6947 0.939276L1.93916 11.6948L4.06048 13.8162Z" fill="#7777FF"/>
</svg>
