<svg width="52" height="47" viewBox="0 0 52 47" fill="none" xmlns="http://www.w3.org/2000/svg">
<path d="M38.1953 15.2683C38.1953 14.1637 39.0907 13.2683 40.1953 13.2683H48.0002C49.1048 13.2683 50.0002 14.1637 50.0002 15.2683V43.4634C50.0002 44.568 49.1048 45.4634 48.0002 45.4634H40.1953C39.0907 45.4634 38.1953 44.568 38.1953 43.4634V15.2683Z" stroke="#7777FF" stroke-width="3"/>
<path d="M2 23.8536C2 22.7491 2.89543 21.8536 4 21.8536H11.8049C12.9094 21.8536 13.8049 22.7491 13.8049 23.8536V43.4634C13.8049 44.568 12.9094 45.4634 11.8049 45.4634H4C2.89543 45.4634 2 44.568 2 43.4634V23.8536Z" stroke="#7777FF" stroke-width="3"/>
<path d="M20.0977 4C20.0977 2.89543 20.9931 2 22.0977 2H29.9025C31.0071 2 31.9025 2.89543 31.9025 4V43.4634C31.9025 44.568 31.0071 45.4634 29.9025 45.4634H22.0977C20.9931 45.4634 20.0977 44.568 20.0977 43.4634V4Z" stroke="#151B57" stroke-width="3"/>
</svg>
