<svg width="460" height="495" viewBox="0 0 460 495" fill="none" xmlns="http://www.w3.org/2000/svg">
<rect width="460" height="495" rx="8" fill="white"/>
<rect opacity="0.2" x="40.5" y="51.5" width="379" height="67" rx="2.5" stroke="black"/>
<rect x="50" y="40" width="94" height="23" fill="white"/>
<path d="M63.2557 45.3636H61.1477V57H63.2557V45.3636ZM76.3139 50.5795C76.0298 49.1023 74.848 48.1591 72.8026 48.1591C70.7003 48.1591 69.2685 49.1932 69.2741 50.8068C69.2685 52.0795 70.0526 52.9205 71.7287 53.267L73.2173 53.5795C74.0185 53.7557 74.3935 54.0795 74.3935 54.5739C74.3935 55.1705 73.7457 55.6193 72.7685 55.6193C71.8253 55.6193 71.2116 55.2102 71.0355 54.4261L69.0298 54.6193C69.2855 56.2216 70.6321 57.1705 72.7741 57.1705C74.956 57.1705 76.4957 56.0398 76.5014 54.3864C76.4957 53.142 75.6946 52.3807 74.0469 52.0227L72.5582 51.7045C71.6719 51.5057 71.3196 51.1989 71.3253 50.6932C71.3196 50.1023 71.973 49.6932 72.831 49.6932C73.7798 49.6932 74.2798 50.2102 74.4389 50.7841L76.3139 50.5795ZM82.0838 57.1705C84.1122 57.1705 85.5156 56.1761 85.8793 54.6591L83.9531 54.4432C83.6747 55.1818 82.9986 55.5682 82.1065 55.5682C80.777 55.5682 79.8963 54.6932 79.8793 53.1989H85.9588V52.5682C85.9588 49.5057 84.1179 48.1591 81.9702 48.1591C79.4702 48.1591 77.8395 49.9943 77.8395 52.6875C77.8395 55.4261 79.4474 57.1705 82.0838 57.1705ZM79.8849 51.8125C79.9531 50.6989 80.7713 49.7614 81.9986 49.7614C83.1861 49.7614 83.9815 50.625 83.9872 51.8125H79.8849ZM89.7699 51.8864C89.7699 50.625 90.5312 49.8977 91.6165 49.8977C92.679 49.8977 93.3153 50.5966 93.3153 51.7614V57H95.3722V51.4432C95.3778 49.3523 94.1847 48.1591 92.3835 48.1591C91.0767 48.1591 90.179 48.7841 89.7812 49.7557H89.679V48.2727H87.7131V57H89.7699V51.8864ZM105.344 57V45.3636H103.287V49.7159H103.202C102.889 49.0852 102.247 48.1591 100.707 48.1591C98.6903 48.1591 97.1051 49.7386 97.1051 52.6477C97.1051 55.5227 98.6449 57.1534 100.702 57.1534C102.202 57.1534 102.878 56.2614 103.202 55.625H103.321V57H105.344ZM103.327 52.6364C103.327 54.3295 102.588 55.4659 101.276 55.4659C99.9176 55.4659 99.2017 54.2727 99.2017 52.6364C99.2017 51.0114 99.9062 49.8466 101.276 49.8466C102.599 49.8466 103.327 50.9432 103.327 52.6364Z" fill="black"/>
<circle opacity="0.1" cx="127" cy="52" r="7" fill="black"/>
<path d="M126.5 53.3267C126.494 52.9725 126.524 52.6875 126.588 52.4716C126.654 52.2557 126.751 52.0795 126.878 51.9432C127.007 51.8068 127.163 51.6828 127.347 51.571C127.521 51.465 127.665 51.3362 127.778 51.1847C127.892 51.0331 127.949 50.8523 127.949 50.642C127.949 50.3902 127.864 50.1903 127.693 50.0426C127.523 49.893 127.316 49.8182 127.074 49.8182C126.856 49.8182 126.656 49.8873 126.474 50.0256C126.293 50.1638 126.193 50.3835 126.176 50.6847H125.312C125.326 50.3438 125.412 50.0559 125.571 49.821C125.73 49.5843 125.94 49.4053 126.202 49.2841C126.465 49.1629 126.756 49.1023 127.074 49.1023C127.42 49.1023 127.724 49.1676 127.986 49.2983C128.247 49.4271 128.451 49.608 128.597 49.8409C128.742 50.072 128.815 50.3419 128.815 50.6506C128.815 50.9612 128.744 51.2282 128.602 51.4517C128.462 51.6733 128.265 51.8617 128.011 52.017C127.839 52.1231 127.702 52.232 127.599 52.3438C127.497 52.4536 127.423 52.5862 127.378 52.7415C127.334 52.8949 127.312 53.09 127.312 53.3267H126.5ZM126.929 55.0852C126.764 55.0852 126.624 55.0294 126.509 54.9176C126.395 54.8059 126.337 54.6686 126.335 54.5057C126.337 54.3428 126.395 54.2055 126.509 54.0938C126.624 53.982 126.764 53.9261 126.929 53.9261C127.096 53.9261 127.236 53.982 127.349 54.0938C127.465 54.2055 127.523 54.3428 127.523 54.5057C127.523 54.6686 127.465 54.8059 127.349 54.9176C127.236 55.0294 127.096 55.0852 126.929 55.0852Z" fill="black"/>
<path d="M68.9355 84.1191C68.9453 84.3828 68.9551 84.6562 68.9551 84.9492C68.9551 88.4551 67.9883 90.3301 66.1914 90.3301C65 90.3301 64.1699 89.5098 63.75 87.9473L68.9355 84.1191ZM63.4375 85.7891C63.4277 85.5254 63.418 85.2422 63.418 84.9492C63.418 81.4531 64.3848 79.5781 66.1914 79.5781C67.3828 79.5781 68.2129 80.4082 68.6328 81.9805L63.4375 85.7891ZM66.1914 77.6055C62.9297 77.6055 61.1035 80.2422 61.1035 84.9492C61.1035 89.666 62.9297 92.3027 66.1914 92.3027C69.4434 92.3027 71.2695 89.666 71.2695 84.9492C71.2695 80.2422 69.4434 77.6055 66.1914 77.6055ZM78.5449 92.1367C79.6387 92.1367 80.5371 91.209 80.5371 90.0957C80.5371 88.9824 79.6387 88.0645 78.5449 88.0645C77.4512 88.0645 76.5527 88.9824 76.5527 90.0957C76.5527 91.209 77.4512 92.1367 78.5449 92.1367ZM90.8105 92.2832C93.8379 92.2832 95.8691 90.3105 95.8691 87.3613C95.8691 84.6074 94.0625 82.6934 91.4551 82.6934C90.166 82.6934 89.1211 83.1621 88.4863 84.0215H88.3203L88.6621 79.9199H95.0391V77.9082H86.7871L86.1035 85.9746H88.3691C88.8965 85.0566 89.7754 84.5781 90.8887 84.5781C92.5098 84.5781 93.6133 85.7207 93.6133 87.4199C93.6133 89.1094 92.5195 90.2422 90.8887 90.2422C89.4434 90.2422 88.3496 89.373 88.1934 88.1035H85.9082C86.0156 90.5938 87.998 92.2832 90.8105 92.2832Z" fill="black"/>
<path d="M289.372 92H298.889V89.7912H292.007V85.821H298.342V83.6122H292.007V79.6634H298.832V77.4545H289.372V92ZM306.854 81.0909H304.702V78.4773H302.131V81.0909H300.583V83.0795H302.131V89.1236C302.117 91.1832 303.609 92.1918 305.54 92.1278C306.272 92.1136 306.776 91.9716 307.053 91.8722L306.62 89.8693C306.478 89.8977 306.187 89.9688 305.867 89.9688C305.221 89.9688 304.695 89.7344 304.702 88.7045V83.0795H306.854V81.0909ZM311.888 85.608C311.888 84.0312 312.868 83.1222 314.246 83.1222C315.596 83.1222 316.391 83.9815 316.391 85.4517V92H318.962V85.054C318.962 82.419 317.471 80.9489 315.205 80.9489C313.529 80.9489 312.463 81.7088 311.959 82.9446H311.831V77.4545H309.317V92H311.888V85.608ZM326.441 92.2131C328.976 92.2131 330.73 90.9702 331.185 89.0739L328.777 88.804C328.429 89.7273 327.584 90.2102 326.469 90.2102C324.807 90.2102 323.706 89.1165 323.685 87.2486H331.284V86.4602C331.284 82.6321 328.983 80.9489 326.299 80.9489C323.174 80.9489 321.135 83.2429 321.135 86.6094C321.135 90.0327 323.145 92.2131 326.441 92.2131ZM323.692 85.5156C323.777 84.1236 324.8 82.9517 326.334 82.9517C327.819 82.9517 328.813 84.0312 328.82 85.5156H323.692ZM333.477 92H336.048V85.5866C336.048 84.2088 337.085 83.2358 338.428 83.2358C338.847 83.2358 339.166 83.3352 339.443 83.4631L340.239 81.3324C339.855 81.0909 339.365 80.9347 338.776 80.9347C337.518 80.9347 336.482 81.6449 336.084 82.9091H335.97V81.0909H333.477V92ZM346.167 92.2131C348.703 92.2131 350.457 90.9702 350.912 89.0739L348.504 88.804C348.156 89.7273 347.311 90.2102 346.196 90.2102C344.534 90.2102 343.433 89.1165 343.412 87.2486H351.011V86.4602C351.011 82.6321 348.71 80.9489 346.025 80.9489C342.9 80.9489 340.862 83.2429 340.862 86.6094C340.862 90.0327 342.872 92.2131 346.167 92.2131ZM343.419 85.5156C343.504 84.1236 344.527 82.9517 346.061 82.9517C347.545 82.9517 348.539 84.0312 348.547 85.5156H343.419ZM360.157 87.4119C360.157 89.0739 358.971 89.8977 357.835 89.8977C356.599 89.8977 355.775 89.0241 355.775 87.6392V81.0909H353.204V88.0369C353.204 90.6577 354.695 92.142 356.84 92.142C358.474 92.142 359.624 91.2827 360.121 90.0611H360.235V92H362.728V81.0909H360.157V87.4119ZM365.372 92H367.943V85.3665C367.943 84.0241 368.838 83.1151 369.946 83.1151C371.032 83.1151 371.778 83.8466 371.778 84.9688V92H374.299V85.196C374.299 83.9673 375.031 83.1151 376.274 83.1151C377.311 83.1151 378.135 83.7259 378.135 85.0753V92H380.713V84.6776C380.713 82.2415 379.306 80.9489 377.304 80.9489C375.72 80.9489 374.512 81.7301 374.029 82.9446H373.916C373.497 81.7088 372.439 80.9489 370.968 80.9489C369.505 80.9489 368.412 81.7017 367.957 82.9446H367.829V81.0909H365.372V92Z" fill="black"/>
<path d="M400 84L396 88L392 84" stroke="black" stroke-width="1.8" stroke-linecap="round"/>
<rect x="40" y="387" width="380" height="68" rx="3" fill="black"/>
<path d="M167.975 426H176.54V424.012H170.346V420.439H176.048V418.451H170.346V414.897H176.489V412.909H167.975V426ZM180.698 416.182H178.244L181.158 421.091L178.167 426H180.621L182.68 422.465L184.757 426H187.192L184.182 421.091L187.141 416.182H184.693L182.68 419.806L180.698 416.182ZM192.864 426.192C195.331 426.192 196.904 424.728 197.076 422.644H194.858C194.66 423.699 193.899 424.306 192.883 424.306C191.438 424.306 190.505 423.098 190.505 421.091C190.505 419.109 191.458 417.92 192.883 417.92C193.995 417.92 194.686 418.636 194.858 419.582H197.076C196.91 417.454 195.248 416.054 192.851 416.054C189.975 416.054 188.159 418.131 188.159 421.129C188.159 424.102 189.93 426.192 192.864 426.192ZM201.3 420.247C201.3 418.828 202.182 418.01 203.422 418.01C204.636 418.01 205.352 418.783 205.352 420.107V426H207.666V419.749C207.666 417.377 206.324 416.054 204.285 416.054C202.776 416.054 201.817 416.738 201.364 417.85H201.249V412.909H198.986V426H201.3V420.247ZM212.85 426.198C214.391 426.198 215.311 425.476 215.733 424.651H215.81V426H218.034V419.429C218.034 416.834 215.906 416.054 214.077 416.054C211.968 416.054 210.396 416.974 209.884 418.764L212.045 419.071C212.275 418.4 212.927 417.825 214.058 417.825C215.145 417.825 215.714 418.381 215.72 419.352C215.727 419.998 215.068 420.068 213.464 420.241C213.406 420.247 213.349 420.254 213.291 420.26C211.386 420.464 209.565 421.033 209.565 423.245C209.565 425.175 210.977 426.198 212.85 426.198ZM213.451 424.498C212.486 424.498 211.795 424.057 211.795 423.207C211.795 422.318 212.569 421.947 213.604 421.8C214.212 421.717 215.426 421.564 215.727 421.321V422.478C215.727 423.571 214.844 424.498 213.451 424.498ZM222.675 420.247C222.675 418.828 223.531 418.01 224.752 418.01C225.947 418.01 226.663 418.796 226.663 420.107V426H228.977V419.749C228.984 417.396 227.641 416.054 225.615 416.054C224.145 416.054 223.135 416.757 222.688 417.85H222.572V416.182H220.361V426H222.675V420.247ZM235.35 429.771C238.233 429.771 240.202 428.32 240.202 425.789V416.182H237.926V417.805H237.798C237.447 417.096 236.712 416.054 234.979 416.054C232.71 416.054 230.927 417.831 230.927 421.059C230.927 424.261 232.71 425.859 234.973 425.859C236.654 425.859 237.44 424.958 237.798 424.236H237.933V425.706C237.952 427.112 236.788 427.918 235.363 427.918C233.969 427.918 233.241 427.163 232.864 426.703L231.266 427.905C231.93 428.915 233.17 429.771 235.35 429.771ZM235.619 424.044C234.091 424.044 233.286 422.855 233.286 421.046C233.286 419.263 234.078 417.952 235.619 417.952C237.108 417.952 237.926 419.186 237.926 421.046C237.926 422.919 237.095 424.044 235.619 424.044ZM246.952 426.192C249.234 426.192 250.812 425.073 251.222 423.366L249.055 423.124C248.741 423.955 247.981 424.389 246.977 424.389C245.482 424.389 244.491 423.405 244.472 421.724H251.311V421.014C251.311 417.569 249.24 416.054 246.824 416.054C244.011 416.054 242.177 418.119 242.177 421.148C242.177 424.229 243.986 426.192 246.952 426.192ZM244.478 420.164C244.555 418.911 245.475 417.857 246.856 417.857C248.192 417.857 249.087 418.828 249.093 420.164H244.478ZM260.063 420.247C260.063 418.828 260.92 418.01 262.141 418.01C263.336 418.01 264.052 418.796 264.052 420.107V426H266.366V419.749C266.372 417.396 265.03 416.054 263.004 416.054C261.534 416.054 260.524 416.757 260.076 417.85H259.961V416.182H257.749V426H260.063V420.247ZM273.02 426.192C275.896 426.192 277.725 424.165 277.725 421.129C277.725 418.087 275.896 416.054 273.02 416.054C270.15 416.054 268.316 418.087 268.316 421.129C268.316 424.165 270.15 426.192 273.02 426.192ZM273.033 424.338C271.441 424.338 270.661 422.919 270.661 421.123C270.661 419.327 271.441 417.888 273.033 417.888C274.599 417.888 275.379 419.327 275.379 421.123C275.379 422.919 274.599 424.338 273.033 424.338ZM281.467 426H283.883L285.724 419.365H285.858L287.699 426H290.109L292.89 416.182H290.525L288.824 423.047H288.729L286.964 416.182H284.631L282.867 423.085H282.778L281.052 416.182H278.693L281.467 426Z" fill="white"/>
<path opacity="0.2" d="M40.5 152C40.5 150.619 41.6193 149.5 43 149.5H142.5H417C418.381 149.5 419.5 150.619 419.5 152V214C419.5 215.381 418.381 216.5 417 216.5H43C41.6193 216.5 40.5 215.381 40.5 214V152Z" stroke="black"/>
<rect x="50" y="144" width="94" height="13" fill="white"/>
<path d="M63.2557 143.364H61.1477V155H63.2557V143.364ZM69.4162 155H71.473V149.869C71.473 148.767 72.3026 147.989 73.3764 147.989C73.7116 147.989 73.9673 148.068 74.1889 148.17L74.8253 146.466C74.5185 146.273 74.1264 146.148 73.6548 146.148C72.6491 146.148 71.8196 146.716 71.5014 147.727H71.4105V146.273H69.4162V155ZM79.5682 155.17C81.5966 155.17 83 154.176 83.3636 152.659L81.4375 152.443C81.1591 153.182 80.483 153.568 79.5909 153.568C78.2614 153.568 77.3807 152.693 77.3636 151.199H83.4432V150.568C83.4432 147.506 81.6023 146.159 79.4545 146.159C76.9545 146.159 75.3239 147.994 75.3239 150.688C75.3239 153.426 76.9318 155.17 79.5682 155.17ZM77.3693 149.812C77.4375 148.699 78.2557 147.761 79.483 147.761C80.6705 147.761 81.4659 148.625 81.4716 149.812H77.3693ZM89.0213 155.17C91.2145 155.17 92.6122 153.869 92.7656 152.017H90.794C90.6179 152.955 89.9418 153.494 89.0384 153.494C87.7543 153.494 86.9247 152.42 86.9247 150.636C86.9247 148.875 87.7713 147.818 89.0384 147.818C90.027 147.818 90.6406 148.455 90.794 149.295H92.7656C92.6179 147.403 91.1406 146.159 89.0099 146.159C86.4531 146.159 84.8395 148.006 84.8395 150.67C84.8395 153.312 86.4134 155.17 89.0213 155.17ZM94.4631 155H96.5199V146.273H94.4631V155ZM95.4972 145.102C96.1335 145.102 96.6847 144.614 96.6847 143.989C96.6847 143.358 96.1335 142.869 95.4972 142.869C94.8551 142.869 94.304 143.358 94.304 143.989C94.304 144.614 94.8551 145.102 95.4972 145.102ZM106.43 146.273H104.243L102.232 152.756H102.141L100.135 146.273H97.9418L101.05 155H103.322L106.43 146.273ZM111.443 155.17C113.472 155.17 114.875 154.176 115.239 152.659L113.312 152.443C113.034 153.182 112.358 153.568 111.466 153.568C110.136 153.568 109.256 152.693 109.239 151.199H115.318V150.568C115.318 147.506 113.477 146.159 111.33 146.159C108.83 146.159 107.199 147.994 107.199 150.688C107.199 153.426 108.807 155.17 111.443 155.17ZM109.244 149.812C109.312 148.699 110.131 147.761 111.358 147.761C112.545 147.761 113.341 148.625 113.347 149.812H109.244Z" fill="black"/>
<circle opacity="0.1" cx="127" cy="150" r="7" fill="black"/>
<path d="M126.5 151.327C126.494 150.973 126.524 150.687 126.588 150.472C126.654 150.256 126.751 150.08 126.878 149.943C127.007 149.807 127.163 149.683 127.347 149.571C127.521 149.465 127.665 149.336 127.778 149.185C127.892 149.033 127.949 148.852 127.949 148.642C127.949 148.39 127.864 148.19 127.693 148.043C127.523 147.893 127.316 147.818 127.074 147.818C126.856 147.818 126.656 147.887 126.474 148.026C126.293 148.164 126.193 148.384 126.176 148.685H125.312C125.326 148.344 125.412 148.056 125.571 147.821C125.73 147.584 125.94 147.405 126.202 147.284C126.465 147.163 126.756 147.102 127.074 147.102C127.42 147.102 127.724 147.168 127.986 147.298C128.247 147.427 128.451 147.608 128.597 147.841C128.742 148.072 128.815 148.342 128.815 148.651C128.815 148.961 128.744 149.228 128.602 149.452C128.462 149.673 128.265 149.862 128.011 150.017C127.839 150.123 127.702 150.232 127.599 150.344C127.497 150.454 127.423 150.586 127.378 150.741C127.334 150.895 127.312 151.09 127.312 151.327H126.5ZM126.929 153.085C126.764 153.085 126.624 153.029 126.509 152.918C126.395 152.806 126.337 152.669 126.335 152.506C126.337 152.343 126.395 152.205 126.509 152.094C126.624 151.982 126.764 151.926 126.929 151.926C127.096 151.926 127.236 151.982 127.349 152.094C127.465 152.205 127.523 152.343 127.523 152.506C127.523 152.669 127.465 152.806 127.349 152.918C127.236 153.029 127.096 153.085 126.929 153.085Z" fill="black"/>
<path d="M68.9355 182.119C68.9453 182.383 68.9551 182.656 68.9551 182.949C68.9551 186.455 67.9883 188.33 66.1914 188.33C65 188.33 64.1699 187.51 63.75 185.947L68.9355 182.119ZM63.4375 183.789C63.4277 183.525 63.418 183.242 63.418 182.949C63.418 179.453 64.3848 177.578 66.1914 177.578C67.3828 177.578 68.2129 178.408 68.6328 179.98L63.4375 183.789ZM66.1914 175.605C62.9297 175.605 61.1035 178.242 61.1035 182.949C61.1035 187.666 62.9297 190.303 66.1914 190.303C69.4434 190.303 71.2695 187.666 71.2695 182.949C71.2695 178.242 69.4434 175.605 66.1914 175.605ZM78.5449 190.137C79.6387 190.137 80.5371 189.209 80.5371 188.096C80.5371 186.982 79.6387 186.064 78.5449 186.064C77.4512 186.064 76.5527 186.982 76.5527 188.096C76.5527 189.209 77.4512 190.137 78.5449 190.137ZM93.6621 182.119C93.6719 182.383 93.6816 182.656 93.6816 182.949C93.6816 186.455 92.7148 188.33 90.918 188.33C89.7266 188.33 88.8965 187.51 88.4766 185.947L93.6621 182.119ZM88.1641 183.789C88.1543 183.525 88.1445 183.242 88.1445 182.949C88.1445 179.453 89.1113 177.578 90.918 177.578C92.1094 177.578 92.9395 178.408 93.3594 179.98L88.1641 183.789ZM90.918 175.605C87.6562 175.605 85.8301 178.242 85.8301 182.949C85.8301 187.666 87.6562 190.303 90.918 190.303C94.1699 190.303 95.9961 187.666 95.9961 182.949C95.9961 178.242 94.1699 175.605 90.918 175.605ZM104.932 188.018V175.908H102.627L98.6621 178.525V180.82L102.451 178.33H102.617V188.018H98.6816V190H102.617H104.932H108.682V188.018H104.932ZM110.801 180.039V180.098H113.018V180.029C113.018 178.555 114.004 177.568 115.498 177.568C116.963 177.568 117.93 178.447 117.93 179.795C117.93 180.811 117.451 181.553 115.586 183.516L110.928 188.369V190H120.459V187.988H114.18V187.812L117.158 184.775C119.482 182.422 120.234 181.162 120.234 179.658C120.234 177.256 118.35 175.625 115.566 175.625C112.764 175.625 110.801 177.432 110.801 180.039ZM127.9 190.283C130.928 190.283 132.959 188.311 132.959 185.361C132.959 182.607 131.152 180.693 128.545 180.693C127.256 180.693 126.211 181.162 125.576 182.021H125.41L125.752 177.92H132.129V175.908H123.877L123.193 183.975H125.459C125.986 183.057 126.865 182.578 127.979 182.578C129.6 182.578 130.703 183.721 130.703 185.42C130.703 187.109 129.609 188.242 127.979 188.242C126.533 188.242 125.439 187.373 125.283 186.104H122.998C123.105 188.594 125.088 190.283 127.9 190.283Z" fill="black"/>
<rect x="50" y="205" width="101" height="23" fill="white"/>
<path opacity="0.3" d="M65.2305 218.496V210.84H63.4658L60.9902 212.497V214.198L63.3516 212.63H63.4658V218.496H60.9966V220H63.4658H65.2305H67.5728V218.496H65.2305ZM72.0034 220.184C74.0347 220.184 75.3994 218.883 75.3994 216.928C75.3994 215.144 74.2188 213.906 72.5303 213.906C71.6733 213.906 70.9814 214.224 70.5879 214.801H70.4736L70.6704 212.357H74.8408V210.84H69.2422L68.8105 216.134H70.5498C70.8799 215.582 71.3813 215.303 72.0415 215.303C73.019 215.303 73.6855 215.976 73.6855 216.972C73.6855 217.962 73.0254 218.629 72.0415 218.629C71.1909 218.629 70.5498 218.134 70.4419 217.397H68.7026C68.7534 219.054 70.0864 220.184 72.0034 220.184ZM81.7725 215.201C81.7725 215.271 81.7725 215.341 81.7725 215.417C81.7725 217.55 81.1821 218.699 80.0903 218.699C79.3794 218.699 78.8843 218.21 78.624 217.277L81.7725 215.201ZM78.4146 215.646C78.4146 215.569 78.4146 215.493 78.4146 215.417C78.4146 213.291 79.0049 212.135 80.0903 212.135C80.8076 212.135 81.3027 212.63 81.563 213.57L78.4146 215.646ZM80.0903 210.644C77.894 210.644 76.6499 212.364 76.6499 215.417C76.6499 218.47 77.894 220.19 80.0903 220.19C82.293 220.19 83.5371 218.47 83.5371 215.417C83.5371 212.364 82.293 210.644 80.0903 210.644ZM88.1265 220.121C88.8945 220.121 89.5229 219.473 89.5229 218.692C89.5229 217.905 88.8945 217.258 88.1265 217.258C87.3584 217.258 86.73 217.905 86.73 218.692C86.73 219.473 87.3584 220.121 88.1265 220.121ZM96.8862 220H98.5747V218.267H99.7935V216.82H98.5493V214.478H96.9434V216.788H94.709V216.674L97.4004 210.84H95.5786L92.792 216.82V218.267H96.8862V220ZM100.911 213.602V213.64H102.586V213.595C102.586 212.719 103.196 212.123 104.104 212.123C104.992 212.123 105.57 212.643 105.57 213.437C105.57 214.052 105.246 214.535 103.996 215.785L101.012 218.737V220H107.468V218.483H103.462V218.369L105.252 216.661C106.801 215.176 107.328 214.319 107.328 213.316C107.328 211.729 106.052 210.656 104.161 210.656C102.237 210.656 100.911 211.85 100.911 213.602ZM120.271 218.559C119.243 218.559 118.671 217.88 118.671 216.648V210.84H116.862V216.756C116.862 218.915 118.125 220.184 120.271 220.184C122.417 220.184 123.68 218.915 123.68 216.756V210.84H121.871V216.648C121.871 217.88 121.299 218.559 120.271 218.559ZM124.892 217.436C124.956 219.149 126.257 220.184 128.333 220.184C130.472 220.184 131.767 219.092 131.767 217.283C131.767 215.88 130.992 215.087 129.221 214.693L128.282 214.478C127.292 214.262 126.885 213.906 126.885 213.259C126.885 212.573 127.45 212.148 128.358 212.148C129.253 212.148 129.831 212.611 129.9 213.367H131.602C131.544 211.729 130.256 210.656 128.339 210.656C126.358 210.656 125.095 211.742 125.095 213.449C125.095 214.808 125.908 215.684 127.564 216.058L128.517 216.28C129.577 216.515 129.983 216.845 129.983 217.467C129.983 218.21 129.354 218.686 128.364 218.686C127.323 218.686 126.676 218.229 126.593 217.436H124.892ZM133.093 210.84V220H136.032C138.616 220 139.936 218.426 139.936 215.354C139.936 212.389 138.597 210.84 136.032 210.84H133.093ZM134.896 212.396H135.785C137.346 212.396 138.095 213.367 138.095 215.385C138.095 217.493 137.372 218.445 135.785 218.445H134.896V212.396Z" fill="black"/>
<rect x="229" y="205" width="181" height="23" fill="white"/>
<path opacity="0.3" d="M252.544 218.496V210.84H250.779L248.304 212.497V214.198L250.665 212.63H250.779V218.496H248.31V220H254.886V218.496H252.544ZM267.753 220C269.714 220 270.927 218.997 270.927 217.391C270.927 216.204 270.057 215.284 268.838 215.195V215.087C269.791 214.941 270.489 214.109 270.489 213.119C270.489 211.691 269.429 210.84 267.67 210.84H264.3V220H267.753ZM266.064 212.23H267.182C268.146 212.23 268.673 212.656 268.673 213.443C268.673 214.179 268.102 214.611 267.105 214.611H266.064V212.23ZM266.064 218.584V215.931H267.182C268.419 215.931 269.048 216.363 269.048 217.232C269.048 218.159 268.451 218.584 267.194 218.584H266.064ZM276.341 220V212.396H278.963V210.84H271.917V212.396H274.539V220H276.341ZM283.679 218.565C282.543 218.565 281.959 217.81 281.959 216.356V214.484C281.959 213.037 282.543 212.275 283.654 212.275C284.587 212.275 285.209 212.986 285.228 214.084H287.056C287.043 211.919 285.793 210.656 283.686 210.656C281.419 210.656 280.086 212.072 280.086 214.484V216.356C280.086 218.769 281.419 220.184 283.686 220.184C285.768 220.184 287.062 218.915 287.062 216.839H285.234C285.215 217.905 284.625 218.565 283.679 218.565ZM302.913 218.419V216.68H296.184V218.419H302.913ZM302.913 215.182V213.443H296.184V215.182H302.913ZM316.833 218.496V210.84H315.068L312.593 212.497V214.198L314.954 212.63H315.068V218.496H312.599V220H319.175V218.496H316.833ZM323.657 210.644C321.46 210.644 320.216 212.364 320.216 215.417C320.216 218.47 321.46 220.19 323.657 220.19C325.859 220.19 327.104 218.47 327.104 215.417C327.104 212.364 325.859 210.644 323.657 210.644ZM321.981 215.646V215.417C321.981 213.291 322.571 212.135 323.657 212.135C324.374 212.135 324.869 212.63 325.129 213.57L321.981 215.646ZM325.339 215.201V215.417C325.339 217.55 324.749 218.699 323.657 218.699C322.946 218.699 322.451 218.21 322.19 217.277L325.339 215.201ZM331.693 210.644C329.497 210.644 328.252 212.364 328.252 215.417C328.252 218.47 329.497 220.19 331.693 220.19C333.896 220.19 335.14 218.47 335.14 215.417C335.14 212.364 333.896 210.644 331.693 210.644ZM330.017 215.646V215.417C330.017 213.291 330.607 212.135 331.693 212.135C332.41 212.135 332.905 212.63 333.166 213.57L330.017 215.646ZM333.375 215.201V215.417C333.375 217.55 332.785 218.699 331.693 218.699C330.982 218.699 330.487 218.21 330.227 217.277L333.375 215.201ZM347.765 210.644C345.569 210.644 344.325 212.364 344.325 215.417C344.325 218.47 345.569 220.19 347.765 220.19C349.968 220.19 351.212 218.47 351.212 215.417C351.212 212.364 349.968 210.644 347.765 210.644ZM346.089 215.646V215.417C346.089 213.291 346.68 212.135 347.765 212.135C348.482 212.135 348.978 212.63 349.238 213.57L346.089 215.646ZM349.447 215.201V215.417C349.447 217.55 348.857 218.699 347.765 218.699C347.054 218.699 346.559 218.21 346.299 217.277L349.447 215.201ZM355.801 210.644C353.605 210.644 352.361 212.364 352.361 215.417C352.361 218.47 353.605 220.19 355.801 220.19C358.004 220.19 359.248 218.47 359.248 215.417C359.248 212.364 358.004 210.644 355.801 210.644ZM354.125 215.646V215.417C354.125 213.291 354.716 212.135 355.801 212.135C356.519 212.135 357.014 212.63 357.274 213.57L354.125 215.646ZM357.483 215.201V215.417C357.483 217.55 356.893 218.699 355.801 218.699C355.09 218.699 354.595 218.21 354.335 217.277L357.483 215.201ZM363.837 210.644C361.641 210.644 360.397 212.364 360.397 215.417C360.397 218.47 361.641 220.19 363.837 220.19C366.04 220.19 367.284 218.47 367.284 215.417C367.284 212.364 366.04 210.644 363.837 210.644ZM362.162 215.646V215.417C362.162 213.291 362.752 212.135 363.837 212.135C364.555 212.135 365.05 212.63 365.31 213.57L362.162 215.646ZM365.52 215.201V215.417C365.52 217.55 364.929 218.699 363.837 218.699C363.126 218.699 362.631 218.21 362.371 217.277L365.52 215.201ZM382.925 218.445H378.958V216.09H382.69V214.649H378.958V212.396H382.925V210.84H377.148V220H382.925V218.445ZM388.847 220V212.396H391.469V210.84H384.423V212.396H387.044V220H388.847ZM399.251 220V210.84H397.48V214.573H394.484V210.84H392.713V220H394.484V216.128H397.48V220H399.251Z" fill="black"/>
<path d="M316.403 190V175.455H321.972C323.548 175.455 324.727 175.812 325.509 176.527C326.295 177.242 326.688 178.142 326.688 179.226C326.688 180.111 326.441 180.807 325.949 181.314C325.456 181.821 324.855 182.157 324.145 182.322V182.464C324.661 182.488 325.156 182.644 325.629 182.933C326.107 183.222 326.498 183.629 326.801 184.155C327.104 184.676 327.256 185.303 327.256 186.037C327.256 186.795 327.073 187.472 326.709 188.068C326.344 188.665 325.795 189.136 325.061 189.482C324.327 189.827 323.404 190 322.291 190H316.403ZM319.038 187.798H321.872C322.829 187.798 323.518 187.616 323.939 187.251C324.365 186.882 324.578 186.409 324.578 185.831C324.578 185.182 324.341 184.638 323.868 184.197C323.399 183.757 322.758 183.537 321.943 183.537H319.038V187.798ZM319.038 181.641H321.645C322.331 181.641 322.904 181.456 323.364 181.087C323.823 180.713 324.053 180.206 324.053 179.567C324.053 179.003 323.854 178.539 323.456 178.175C323.063 177.81 322.478 177.628 321.702 177.628H319.038V181.641ZM329.434 190V179.091H332.005V190H329.434ZM330.727 177.628C330.324 177.628 329.974 177.493 329.676 177.223C329.382 176.953 329.235 176.624 329.235 176.236C329.235 175.843 329.382 175.511 329.676 175.241C329.974 174.972 330.324 174.837 330.727 174.837C331.125 174.837 331.47 174.972 331.764 175.241C332.062 175.511 332.211 175.843 332.211 176.236C332.211 176.624 332.062 176.953 331.764 177.223C331.47 177.493 331.125 177.628 330.727 177.628ZM340.097 179.091V181.08H337.945V186.705C337.94 187.221 338.051 187.562 338.278 187.727C338.51 187.888 338.787 187.969 339.109 187.969C339.27 187.969 339.417 187.957 339.55 187.933C339.687 187.905 339.791 187.884 339.862 187.869L340.295 189.872C340.158 189.92 339.962 189.972 339.706 190.028C339.455 190.085 339.147 190.118 338.783 190.128C337.817 190.161 337.005 189.927 336.347 189.425C335.693 188.918 335.369 188.151 335.374 187.124V181.08H333.825V179.091H335.374V176.477H337.945V179.091H340.097ZM346.966 190.213C345.882 190.213 344.949 189.974 344.168 189.496C343.387 189.018 342.785 188.355 342.364 187.507C341.947 186.66 341.739 185.687 341.739 184.588C341.739 183.48 341.952 182.502 342.378 181.655C342.804 180.807 343.406 180.144 344.182 179.666C344.963 179.188 345.887 178.949 346.952 178.949C347.842 178.949 348.628 179.112 349.31 179.439C349.992 179.761 350.534 180.215 350.936 180.803C351.344 181.39 351.578 182.079 351.64 182.869H349.182C349.083 182.344 348.846 181.906 348.472 181.555C348.103 181.2 347.608 181.023 346.988 181.023C346.197 181.023 345.558 181.335 345.07 181.96C344.587 182.58 344.346 183.442 344.346 184.545C344.346 185.658 344.585 186.532 345.063 187.166C345.546 187.801 346.187 188.118 346.988 188.118C347.551 188.118 348.029 187.957 348.422 187.635C348.82 187.313 349.073 186.858 349.182 186.271H351.64C351.578 187.043 351.351 187.725 350.958 188.317C350.565 188.909 350.03 189.373 349.353 189.709C348.676 190.045 347.88 190.213 346.966 190.213ZM358.509 190.213C357.444 190.213 356.521 189.979 355.739 189.51C354.958 189.041 354.352 188.385 353.921 187.543C353.495 186.695 353.282 185.71 353.282 184.588C353.282 183.461 353.495 182.476 353.921 181.634C354.352 180.786 354.958 180.128 355.739 179.659C356.521 179.186 357.444 178.949 358.509 178.949C359.575 178.949 360.498 179.186 361.279 179.659C362.065 180.128 362.671 180.786 363.097 181.634C363.523 182.476 363.737 183.461 363.737 184.588C363.737 185.71 363.523 186.695 363.097 187.543C362.671 188.385 362.065 189.041 361.279 189.51C360.498 189.979 359.575 190.213 358.509 190.213ZM358.523 188.153C359.106 188.153 359.589 187.995 359.972 187.678C360.361 187.36 360.649 186.932 360.839 186.392C361.033 185.852 361.13 185.249 361.13 184.581C361.13 183.913 361.033 183.31 360.839 182.77C360.649 182.225 360.361 181.792 359.972 181.47C359.589 181.148 359.106 180.987 358.523 180.987C357.936 180.987 357.446 181.148 357.053 181.47C356.665 181.792 356.374 182.225 356.18 182.77C355.986 183.31 355.888 183.913 355.888 184.581C355.888 185.249 355.986 185.852 356.18 186.392C356.374 186.932 356.665 187.36 357.053 187.678C357.446 187.995 357.936 188.153 358.523 188.153ZM365.919 190V179.091H368.49V190H365.919ZM367.211 177.628C366.809 177.628 366.458 177.493 366.16 177.223C365.867 176.953 365.72 176.624 365.72 176.236C365.72 175.843 365.867 175.511 366.16 175.241C366.458 174.972 366.809 174.837 367.211 174.837C367.609 174.837 367.955 174.972 368.248 175.241C368.547 175.511 368.696 175.843 368.696 176.236C368.696 176.624 368.547 176.953 368.248 177.223C367.955 177.493 367.609 177.628 367.211 177.628ZM373.705 183.608V190H371.134V179.091H373.591V180.945H373.719C373.97 180.339 374.37 179.856 374.919 179.496C375.473 179.131 376.157 178.949 376.972 178.949C378.098 178.949 379.003 179.306 379.685 180.021C380.371 180.736 380.712 181.747 380.707 183.054V190H378.136V183.452C378.136 182.723 377.947 182.152 377.568 181.74C377.194 181.328 376.676 181.122 376.013 181.122C375.336 181.122 374.782 181.34 374.351 181.776C373.92 182.206 373.705 182.817 373.705 183.608Z" fill="black"/>
<path d="M400 182L396 186L392 182" stroke="black" stroke-width="1.8" stroke-linecap="round"/>
<path opacity="0.2" d="M62.4091 338H69.5227V336.75H63.8182V332.795H69.0682V331.545H63.8182V327.614H69.4318V326.364H62.4091V338ZM73.1307 332.75C73.1307 331.227 74.0739 330.364 75.358 330.364C76.6023 330.364 77.358 331.176 77.358 332.545V338H78.6989V332.455C78.6989 330.227 77.5114 329.159 75.7443 329.159C74.4261 329.159 73.608 329.75 73.1989 330.636H73.0852V329.273H71.7898V338H73.1307V332.75ZM84.9446 329.273H83.081V327.182H81.7401V329.273H80.4219V330.409H81.7401V335.864C81.7401 337.386 82.9673 338.114 84.1037 338.114C84.6037 338.114 84.9219 338.023 85.1037 337.955L84.831 336.75C84.7173 336.773 84.5355 336.818 84.2401 336.818C83.6491 336.818 83.081 336.636 83.081 335.5V330.409H84.9446V329.273ZM90.6207 338.182C92.3935 338.182 93.6889 337.295 94.098 335.977L92.8026 335.614C92.4616 336.523 91.6719 336.977 90.6207 336.977C89.0469 336.977 87.9616 335.96 87.8991 334.091H94.2344V333.523C94.2344 330.273 92.3026 329.159 90.4844 329.159C88.1207 329.159 86.5526 331.023 86.5526 333.705C86.5526 336.386 88.098 338.182 90.6207 338.182ZM87.8991 332.932C87.9901 331.574 88.9503 330.364 90.4844 330.364C91.9389 330.364 92.8707 331.455 92.8707 332.932H87.8991ZM96.2741 338H97.6151V332.477C97.6151 331.301 98.5469 330.432 99.8196 330.432C100.155 330.432 100.405 330.494 100.592 330.591L101.047 329.455C100.774 329.261 100.416 329.136 99.9332 329.136C98.8764 329.136 97.973 329.727 97.6605 330.591H97.5696V329.273H96.2741V338ZM109.483 338.205C111.006 338.205 111.801 337.386 112.074 336.818H112.142V338H113.483V332.25C113.483 329.477 111.369 329.159 110.256 329.159C108.938 329.159 107.438 329.614 106.756 331.205L108.028 331.659C108.324 331.023 109.023 330.341 110.301 330.341C111.545 330.341 112.142 331.006 112.142 332.136C112.142 332.784 111.483 332.75 109.892 332.955C108.273 333.165 106.506 333.523 106.506 335.523C106.506 337.227 107.824 338.205 109.483 338.205ZM109.688 337C108.619 337 107.847 336.523 107.847 335.591C107.847 334.568 108.778 334.25 109.824 334.114C110.392 334.045 111.915 333.886 112.142 333.614V334.841C112.142 335.932 111.278 337 109.688 337ZM123.226 338V326.364H121.885V330.659H121.771C121.476 330.205 120.953 329.159 119.249 329.159C117.044 329.159 115.521 330.909 115.521 333.659C115.521 336.432 117.044 338.182 119.226 338.182C120.908 338.182 121.476 337.136 121.771 336.659H121.93V338H123.226ZM121.908 333.636C121.908 335.614 121.021 336.977 119.408 336.977C117.726 336.977 116.862 335.5 116.862 333.636C116.862 331.795 117.703 330.364 119.408 330.364C121.044 330.364 121.908 331.682 121.908 333.636ZM132.976 338V326.364H131.635V330.659H131.521C131.226 330.205 130.703 329.159 128.999 329.159C126.794 329.159 125.271 330.909 125.271 333.659C125.271 336.432 126.794 338.182 128.976 338.182C130.658 338.182 131.226 337.136 131.521 336.659H131.68V338H132.976ZM131.658 333.636C131.658 335.614 130.771 336.977 129.158 336.977C127.476 336.977 126.612 335.5 126.612 333.636C126.612 331.795 127.453 330.364 129.158 330.364C130.794 330.364 131.658 331.682 131.658 333.636ZM135.43 338H136.771V332.477C136.771 331.301 137.703 330.432 138.976 330.432C139.311 330.432 139.561 330.494 139.749 330.591L140.203 329.455C139.93 329.261 139.572 329.136 139.089 329.136C138.033 329.136 137.129 329.727 136.817 330.591H136.726V329.273H135.43V338ZM144.964 338.182C146.737 338.182 148.033 337.295 148.442 335.977L147.146 335.614C146.805 336.523 146.016 336.977 144.964 336.977C143.391 336.977 142.305 335.96 142.243 334.091H148.578V333.523C148.578 330.273 146.646 329.159 144.828 329.159C142.464 329.159 140.896 331.023 140.896 333.705C140.896 336.386 142.442 338.182 144.964 338.182ZM142.243 332.932C142.334 331.574 143.294 330.364 144.828 330.364C146.283 330.364 147.214 331.455 147.214 332.932H142.243ZM156.8 331.227C156.379 329.989 155.436 329.159 153.709 329.159C151.868 329.159 150.504 330.205 150.504 331.682C150.504 332.886 151.22 333.693 152.822 334.068L154.277 334.409C155.158 334.614 155.572 335.034 155.572 335.636C155.572 336.386 154.777 337 153.527 337C152.43 337 151.743 336.528 151.504 335.591L150.232 335.909C150.544 337.392 151.766 338.182 153.55 338.182C155.578 338.182 156.959 337.074 156.959 335.568C156.959 334.352 156.197 333.585 154.641 333.205L153.345 332.886C152.311 332.631 151.845 332.284 151.845 331.614C151.845 330.864 152.641 330.318 153.709 330.318C154.879 330.318 155.362 330.966 155.595 331.568L156.8 331.227ZM165.159 331.227C164.739 329.989 163.795 329.159 162.068 329.159C160.227 329.159 158.864 330.205 158.864 331.682C158.864 332.886 159.58 333.693 161.182 334.068L162.636 334.409C163.517 334.614 163.932 335.034 163.932 335.636C163.932 336.386 163.136 337 161.886 337C160.79 337 160.102 336.528 159.864 335.591L158.591 335.909C158.903 337.392 160.125 338.182 161.909 338.182C163.938 338.182 165.318 337.074 165.318 335.568C165.318 334.352 164.557 333.585 163 333.205L161.705 332.886C160.67 332.631 160.205 332.284 160.205 331.614C160.205 330.864 161 330.318 162.068 330.318C163.239 330.318 163.722 330.966 163.955 331.568L165.159 331.227Z" fill="black"/>
<rect x="60" y="319" width="1" height="28" fill="#1E2A4B"/>
<rect x="40.5" y="248.5" width="379" height="114" rx="2.5" stroke="#1E2A4B"/>
<path d="M67.4716 270.562H69.5C69.4602 268.597 67.7841 267.205 65.3068 267.205C62.8636 267.205 61.0284 268.58 61.0341 270.636C61.0341 272.307 62.2216 273.267 64.1364 273.761L65.4602 274.102C66.7159 274.42 67.5455 274.812 67.5511 275.716C67.5455 276.71 66.6023 277.375 65.2273 277.375C63.9091 277.375 62.8864 276.784 62.8011 275.562H60.7273C60.8125 277.875 62.5341 279.176 65.2443 279.176C68.0341 279.176 69.6534 277.784 69.6591 275.733C69.6534 273.716 67.9886 272.795 66.2386 272.381L65.1477 272.108C64.1932 271.881 63.1591 271.477 63.1705 270.506C63.1761 269.631 63.9602 268.989 65.2784 268.989C66.5341 268.989 67.3636 269.574 67.4716 270.562ZM75.3338 279.17C77.3622 279.17 78.7656 278.176 79.1293 276.659L77.2031 276.443C76.9247 277.182 76.2486 277.568 75.3565 277.568C74.027 277.568 73.1463 276.693 73.1293 275.199H79.2088V274.568C79.2088 271.506 77.3679 270.159 75.2202 270.159C72.7202 270.159 71.0895 271.994 71.0895 274.688C71.0895 277.426 72.6974 279.17 75.3338 279.17ZM73.1349 273.812C73.2031 272.699 74.0213 271.761 75.2486 271.761C76.4361 271.761 77.2315 272.625 77.2372 273.812H73.1349ZM85.321 270.273H83.5994V268.182H81.5426V270.273H80.304V271.864H81.5426V276.699C81.5312 278.347 82.7244 279.153 84.2699 279.102C84.8551 279.091 85.2585 278.977 85.4801 278.898L85.1335 277.295C85.0199 277.318 84.7869 277.375 84.5312 277.375C84.0142 277.375 83.5938 277.188 83.5994 276.364V271.864H85.321V270.273ZM98.9531 279V267.364H96.8963V271.716H96.8111C96.4986 271.085 95.8565 270.159 94.3168 270.159C92.2997 270.159 90.7145 271.739 90.7145 274.648C90.7145 277.523 92.2543 279.153 94.3111 279.153C95.8111 279.153 96.4872 278.261 96.8111 277.625H96.9304V279H98.9531ZM96.9361 274.636C96.9361 276.33 96.1974 277.466 94.8849 277.466C93.527 277.466 92.8111 276.273 92.8111 274.636C92.8111 273.011 93.5156 271.847 94.8849 271.847C96.2088 271.847 96.9361 272.943 96.9361 274.636ZM104.959 279.17C106.987 279.17 108.391 278.176 108.754 276.659L106.828 276.443C106.55 277.182 105.874 277.568 104.982 277.568C103.652 277.568 102.771 276.693 102.754 275.199H108.834V274.568C108.834 271.506 106.993 270.159 104.845 270.159C102.345 270.159 100.714 271.994 100.714 274.688C100.714 277.426 102.322 279.17 104.959 279.17ZM102.76 273.812C102.828 272.699 103.646 271.761 104.874 271.761C106.061 271.761 106.857 272.625 106.862 273.812H102.76ZM117.486 272.58C117.202 271.102 116.02 270.159 113.974 270.159C111.872 270.159 110.44 271.193 110.446 272.807C110.44 274.08 111.224 274.92 112.901 275.267L114.389 275.58C115.19 275.756 115.565 276.08 115.565 276.574C115.565 277.17 114.918 277.619 113.94 277.619C112.997 277.619 112.384 277.21 112.207 276.426L110.202 276.619C110.457 278.222 111.804 279.17 113.946 279.17C116.128 279.17 117.668 278.04 117.673 276.386C117.668 275.142 116.866 274.381 115.219 274.023L113.73 273.705C112.844 273.506 112.491 273.199 112.497 272.693C112.491 272.102 113.145 271.693 114.003 271.693C114.952 271.693 115.452 272.21 115.611 272.784L117.486 272.58ZM123.727 270.273H122.006V268.182H119.949V270.273H118.71V271.864H119.949V276.699C119.938 278.347 121.131 279.153 122.676 279.102C123.261 279.091 123.665 278.977 123.886 278.898L123.54 277.295C123.426 277.318 123.193 277.375 122.938 277.375C122.42 277.375 122 277.188 122.006 276.364V271.864H123.727V270.273ZM125.51 279H127.567V270.273H125.51V279ZM126.544 269.102C127.18 269.102 127.732 268.614 127.732 267.989C127.732 267.358 127.18 266.869 126.544 266.869C125.902 266.869 125.351 267.358 125.351 267.989C125.351 268.614 125.902 269.102 126.544 269.102ZM131.739 273.886C131.739 272.625 132.5 271.898 133.585 271.898C134.648 271.898 135.284 272.597 135.284 273.761V279H137.341V273.443C137.347 271.352 136.153 270.159 134.352 270.159C133.045 270.159 132.148 270.784 131.75 271.756H131.648V270.273H129.682V279H131.739V273.886ZM141.943 279.176C143.312 279.176 144.131 278.534 144.506 277.801H144.574V279H146.551V273.159C146.551 270.852 144.659 270.159 143.034 270.159C141.159 270.159 139.761 270.977 139.307 272.568L141.227 272.841C141.432 272.244 142.011 271.733 143.017 271.733C143.983 271.733 144.489 272.227 144.494 273.091C144.5 273.665 143.915 273.727 142.489 273.881C142.438 273.886 142.386 273.892 142.335 273.898C140.642 274.08 139.023 274.585 139.023 276.551C139.023 278.267 140.278 279.176 141.943 279.176ZM142.477 277.665C141.619 277.665 141.006 277.273 141.006 276.517C141.006 275.727 141.693 275.398 142.614 275.267C143.153 275.193 144.233 275.057 144.5 274.841V275.869C144.5 276.841 143.716 277.665 142.477 277.665ZM152.977 270.273H151.256V268.182H149.199V270.273H147.96V271.864H149.199V276.699C149.188 278.347 150.381 279.153 151.926 279.102C152.511 279.091 152.915 278.977 153.136 278.898L152.79 277.295C152.676 277.318 152.443 277.375 152.188 277.375C151.67 277.375 151.25 277.188 151.256 276.364V271.864H152.977V270.273ZM154.76 279H156.817V270.273H154.76V279ZM155.794 269.102C156.43 269.102 156.982 268.614 156.982 267.989C156.982 267.358 156.43 266.869 155.794 266.869C155.152 266.869 154.601 267.358 154.601 267.989C154.601 268.614 155.152 269.102 155.794 269.102ZM162.756 279.17C165.312 279.17 166.938 277.369 166.938 274.67C166.938 271.966 165.312 270.159 162.756 270.159C160.205 270.159 158.574 271.966 158.574 274.67C158.574 277.369 160.205 279.17 162.756 279.17ZM162.767 277.523C161.352 277.523 160.659 276.261 160.659 274.665C160.659 273.068 161.352 271.79 162.767 271.79C164.159 271.79 164.852 273.068 164.852 274.665C164.852 276.261 164.159 277.523 162.767 277.523ZM170.754 273.886C170.754 272.625 171.516 271.898 172.601 271.898C173.663 271.898 174.3 272.597 174.3 273.761V279H176.357V273.443C176.362 271.352 175.169 270.159 173.368 270.159C172.061 270.159 171.163 270.784 170.766 271.756H170.663V270.273H168.697V279H170.754V273.886ZM184.217 279H186.365L188.001 273.102H188.121L189.757 279H191.899L194.371 270.273H192.268L190.757 276.375H190.672L189.104 270.273H187.03L185.462 276.409H185.382L183.848 270.273H181.751L184.217 279ZM198.318 279.176C199.688 279.176 200.506 278.534 200.881 277.801H200.949V279H202.926V273.159C202.926 270.852 201.034 270.159 199.409 270.159C197.534 270.159 196.136 270.977 195.682 272.568L197.602 272.841C197.807 272.244 198.386 271.733 199.392 271.733C200.358 271.733 200.864 272.227 200.869 273.091C200.875 273.665 200.29 273.727 198.864 273.881C198.812 273.886 198.761 273.892 198.71 273.898C197.017 274.08 195.398 274.585 195.398 276.551C195.398 278.267 196.653 279.176 198.318 279.176ZM198.852 277.665C197.994 277.665 197.381 277.273 197.381 276.517C197.381 275.727 198.068 275.398 198.989 275.267C199.528 275.193 200.608 275.057 200.875 274.841V275.869C200.875 276.841 200.091 277.665 198.852 277.665ZM207.051 267.364H204.994V279H207.051V267.364ZM211.223 267.364H209.166V279H211.223V267.364ZM217.224 279.17C219.253 279.17 220.656 278.176 221.02 276.659L219.094 276.443C218.815 277.182 218.139 277.568 217.247 277.568C215.918 277.568 215.037 276.693 215.02 275.199H221.099V274.568C221.099 271.506 219.259 270.159 217.111 270.159C214.611 270.159 212.98 271.994 212.98 274.688C212.98 277.426 214.588 279.17 217.224 279.17ZM215.026 273.812C215.094 272.699 215.912 271.761 217.139 271.761C218.327 271.761 219.122 272.625 219.128 273.812H215.026ZM227.212 270.273H225.49V268.182H223.433V270.273H222.195V271.864H223.433V276.699C223.422 278.347 224.615 279.153 226.161 279.102C226.746 279.091 227.149 278.977 227.371 278.898L227.024 277.295C226.911 277.318 226.678 277.375 226.422 277.375C225.905 277.375 225.484 277.188 225.49 276.364V271.864H227.212V270.273ZM63.5682 300.176C64.9375 300.176 65.7557 299.534 66.1307 298.801H66.1989V300H68.1761V294.159C68.1761 291.852 66.2841 291.159 64.6591 291.159C62.7841 291.159 61.3864 291.977 60.9318 293.568L62.8523 293.841C63.0568 293.244 63.6364 292.733 64.642 292.733C65.608 292.733 66.1136 293.227 66.1193 294.091C66.125 294.665 65.5398 294.727 64.1136 294.881C64.0625 294.886 64.0114 294.892 63.9602 294.898C62.267 295.08 60.6477 295.585 60.6477 297.551C60.6477 299.267 61.9034 300.176 63.5682 300.176ZM64.1023 298.665C63.2443 298.665 62.6307 298.273 62.6307 297.517C62.6307 296.727 63.3182 296.398 64.2386 296.267C64.7784 296.193 65.858 296.057 66.125 295.841V296.869C66.125 297.841 65.3409 298.665 64.1023 298.665ZM78.125 300V288.364H76.0682V292.716H75.983C75.6705 292.085 75.0284 291.159 73.4886 291.159C71.4716 291.159 69.8864 292.739 69.8864 295.648C69.8864 298.523 71.4261 300.153 73.483 300.153C74.983 300.153 75.6591 299.261 75.983 298.625H76.1023V300H78.125ZM76.108 295.636C76.108 297.33 75.3693 298.466 74.0568 298.466C72.6989 298.466 71.983 297.273 71.983 295.636C71.983 294.011 72.6875 292.847 74.0568 292.847C75.3807 292.847 76.108 293.943 76.108 295.636ZM88.125 300V288.364H86.0682V292.716H85.983C85.6705 292.085 85.0284 291.159 83.4886 291.159C81.4716 291.159 79.8864 292.739 79.8864 295.648C79.8864 298.523 81.4261 300.153 83.483 300.153C84.983 300.153 85.6591 299.261 85.983 298.625H86.1023V300H88.125ZM86.108 295.636C86.108 297.33 85.3693 298.466 84.0568 298.466C82.6989 298.466 81.983 297.273 81.983 295.636C81.983 294.011 82.6875 292.847 84.0568 292.847C85.3807 292.847 86.108 293.943 86.108 295.636ZM90.2443 300H92.3011V294.869C92.3011 293.767 93.1307 292.989 94.2045 292.989C94.5398 292.989 94.7955 293.068 95.017 293.17L95.6534 291.466C95.3466 291.273 94.9545 291.148 94.483 291.148C93.4773 291.148 92.6477 291.716 92.3295 292.727H92.2386V291.273H90.2443V300ZM100.396 300.17C102.425 300.17 103.828 299.176 104.192 297.659L102.266 297.443C101.987 298.182 101.311 298.568 100.419 298.568C99.0895 298.568 98.2088 297.693 98.1918 296.199H104.271V295.568C104.271 292.506 102.43 291.159 100.283 291.159C97.7827 291.159 96.152 292.994 96.152 295.688C96.152 298.426 97.7599 300.17 100.396 300.17ZM98.1974 294.812C98.2656 293.699 99.0838 292.761 100.311 292.761C101.499 292.761 102.294 293.625 102.3 294.812H98.1974ZM112.923 293.58C112.639 292.102 111.457 291.159 109.412 291.159C107.31 291.159 105.878 292.193 105.884 293.807C105.878 295.08 106.662 295.92 108.338 296.267L109.827 296.58C110.628 296.756 111.003 297.08 111.003 297.574C111.003 298.17 110.355 298.619 109.378 298.619C108.435 298.619 107.821 298.21 107.645 297.426L105.639 297.619C105.895 299.222 107.241 300.17 109.384 300.17C111.565 300.17 113.105 299.04 113.111 297.386C113.105 296.142 112.304 295.381 110.656 295.023L109.168 294.705C108.281 294.506 107.929 294.199 107.935 293.693C107.929 293.102 108.582 292.693 109.44 292.693C110.389 292.693 110.889 293.21 111.048 293.784L112.923 293.58ZM121.705 293.58C121.42 292.102 120.239 291.159 118.193 291.159C116.091 291.159 114.659 292.193 114.665 293.807C114.659 295.08 115.443 295.92 117.119 296.267L118.608 296.58C119.409 296.756 119.784 297.08 119.784 297.574C119.784 298.17 119.136 298.619 118.159 298.619C117.216 298.619 116.602 298.21 116.426 297.426L114.42 297.619C114.676 299.222 116.023 300.17 118.165 300.17C120.347 300.17 121.886 299.04 121.892 297.386C121.886 296.142 121.085 295.381 119.438 295.023L117.949 294.705C117.062 294.506 116.71 294.199 116.716 293.693C116.71 293.102 117.364 292.693 118.222 292.693C119.17 292.693 119.67 293.21 119.83 293.784L121.705 293.58Z" fill="black"/>
<rect x="344.5" y="272.5" width="55" height="23" rx="11.5" fill="black" stroke="black"/>
<g filter="url(#filter0_d)">
<rect x="380" y="276" width="16" height="16" rx="8" fill="white"/>
</g>
<defs>
<filter id="filter0_d" x="372" y="268" width="32" height="32" filterUnits="userSpaceOnUse" color-interpolation-filters="sRGB">
<feFlood flood-opacity="0" result="BackgroundImageFix"/>
<feColorMatrix in="SourceAlpha" type="matrix" values="0 0 0 0 0 0 0 0 0 0 0 0 0 0 0 0 0 0 127 0"/>
<feOffset/>
<feGaussianBlur stdDeviation="4"/>
<feColorMatrix type="matrix" values="0 0 0 0 0 0 0 0 0 0 0 0 0 0 0 0 0 0 0.2 0"/>
<feBlend mode="normal" in2="BackgroundImageFix" result="effect1_dropShadow"/>
<feBlend mode="normal" in="SourceGraphic" in2="effect1_dropShadow" result="shape"/>
</filter>
</defs>
</svg>
