<?xml version="1.0" encoding="utf-8"?>
<!-- Generator: Adobe Illustrator 17.0.1, SVG Export Plug-In . SVG Version: 6.00 Build 0)  -->
<!DOCTYPE svg PUBLIC "-//W3C//DTD SVG 1.1//EN" "http://www.w3.org/Graphics/SVG/1.1/DTD/svg11.dtd">
<svg version="1.1" id="Layer_1" xmlns="http://www.w3.org/2000/svg" xmlns:xlink="http://www.w3.org/1999/xlink" x="0px" y="0px"
	 width="400px" height="84.904px" viewBox="0 0 400 84.904" enable-background="new 0 0 400 84.904" xml:space="preserve">
<g>
	<g>
		<path fill="#FFFFFF" d="M118.606,11.483L90.598,77.393h13.665l5.718-13.549h26.07l5.718,13.549h13.568l-27.232-65.909H118.606z
			 M113.954,53.583l9.304-23.227l9.11,23.227H113.954z M242.586,47.389c5.039-3.388,7.559-8.904,7.559-15.194
			c0-4.84-1.454-10.357-6.396-14.518c-3.004-2.517-7.559-4.839-16.475-4.839h-18.704v64.554h12.599V51.455h1.55l17.251,25.938h15.7
			l-20.158-27.197C238.612,49.617,240.938,48.551,242.586,47.389z M224.754,42.551h-3.586V23.096h3.779
			c2.326,0,12.211,0.096,12.211,9.679C237.159,42.258,227.177,42.551,224.754,42.551z M161.698,77.393h35.858V66.553h-23.259V48.938
			h22.29V38.098h-22.29v-14.42h23.259V12.838h-35.858V77.393z M294.4,11.386c-20.352,0-34.501,14.131-34.501,33.778
			c0,19.647,14.149,33.682,34.501,33.682c20.352,0,34.501-14.034,34.501-33.682C328.9,25.516,314.751,11.386,294.4,11.386z
			 M294.4,67.423c-12.599,0-21.515-9.192-21.515-22.259c0-13.065,8.916-22.357,21.515-22.357c12.599,0,21.515,9.292,21.515,22.357
			C315.914,58.23,306.998,67.423,294.4,67.423z M387.401,12.838v43.457l-39.347-44.91h-8.722v66.007h12.599v-43.65l39.347,44.91H400
			V12.838H387.401z M34.484,68.184L18.209,38.786c-0.475,0.187-0.992,0.289-1.535,0.289c-0.184,0-0.365-0.013-0.543-0.035
			L5.701,57.66c1,2.138,2.183,4.179,3.537,6.111c3.19,0.759,11.405,2.746,24.489,5.923C33.875,69.136,34.136,68.626,34.484,68.184z
			 M16.675,30.725c0.616,0,1.201,0.135,1.728,0.373L35.823,0C22.768,0.211,11.837,2.694,3.032,7.445l12.923,23.344
			C16.189,30.748,16.429,30.725,16.675,30.725z M57.91,30.725c0.485,0,0.952,0.084,1.385,0.237L72.188,7.378
			c-8.63-4.626-19.291-7.08-31.985-7.367L56.937,30.84C57.249,30.766,57.575,30.725,57.91,30.725z M57.91,39.075
			c-0.288,0-0.568-0.028-0.839-0.084l-15.984,29.24c0.339,0.443,0.592,0.953,0.733,1.508l24.642-6.486
			c1.143-1.684,2.159-3.449,3.038-5.286L59.144,38.891C58.754,39.011,58.34,39.075,57.91,39.075z M55.342,38.194
			c-0.981-0.766-1.612-1.955-1.612-3.294c0-1.289,0.586-2.443,1.507-3.207L38.183,0.27c-0.017-0.033-0.043-0.058-0.074-0.075
			c-0.057-0.031-0.11-0.026-0.144-0.016c-0.035,0.008-0.082,0.033-0.114,0.088L19.922,32.271c0.583,0.719,0.933,1.633,0.933,2.629
			c0,1.075-0.408,2.057-1.076,2.796l16.214,29.291c0.539-0.253,1.14-0.396,1.775-0.396c0.653,0,1.271,0.15,1.822,0.418
			L55.342,38.194z M37.673,48.763l-5.286,1.509v-2.263l3.021-2.263v-8.297l-10.787,3.585l-1.295-2.832l12.082-7.543v-8.299
			c0-1.206,1.057-2.263,2.265-2.263s2.265,1.057,2.265,2.263v8.299l12.082,7.543l-1.48,3.023l-10.601-3.776v8.297l3.021,2.263v2.263
			L37.673,48.763z M12.494,34.9c0-1.379,0.671-2.602,1.704-3.362L1.4,8.417c-0.939,0.766-1.469,1.943-1.393,3.175l1.935,31.342
			c0.269,4.356,1.234,8.578,2.81,12.535l9.583-17.108C13.224,37.61,12.494,36.341,12.494,34.9z M38.718,74.833v10.022
			c0.357-0.102,0.702-0.257,1.023-0.467l15.165-9.819c3.768-2.44,7.054-5.452,9.773-8.883l-22.835,6.009
			C41.49,73.247,40.27,74.474,38.718,74.833z M33.678,71.636c-10.906-2.65-18.479-4.483-22.631-5.48
			c2.644,3.234,5.798,6.084,9.393,8.414l15.165,9.819c0.378,0.247,0.789,0.416,1.213,0.515V74.833
			C35.245,74.469,34.013,73.218,33.678,71.636z M73.833,8.33L60.901,31.985c0.736,0.753,1.19,1.782,1.19,2.915
			c0,1.193-0.502,2.27-1.306,3.03l9.685,17.844c1.649-4.044,2.656-8.374,2.933-12.841l1.935-31.342
			C75.417,10.312,74.842,9.089,73.833,8.33z"/>
	</g>
</g>
</svg>
