<?xml version="1.0" encoding="utf-8"?>
<!-- Generator: Adobe Illustrator 17.0.1, SVG Export Plug-In . SVG Version: 6.00 Build 0)  -->
<!DOCTYPE svg PUBLIC "-//W3C//DTD SVG 1.1//EN" "http://www.w3.org/Graphics/SVG/1.1/DTD/svg11.dtd">
<svg version="1.1" id="Layer_1" xmlns="http://www.w3.org/2000/svg" xmlns:xlink="http://www.w3.org/1999/xlink" x="0px" y="0px"
	 width="400px" height="70.044px" viewBox="0 0 400 70.044" enable-background="new 0 0 400 70.044" xml:space="preserve">
<g>
	<path fill="#FFFFFF" d="M0,41.018c1.08-0.954,2.178-1.889,3.236-2.867c3.525-3.257,7.027-6.54,10.555-9.794
		c2.855-2.633,5.738-5.236,8.603-7.858c3.964-3.626,7.914-7.269,11.889-10.883c2.442-2.22,4.919-4.402,7.53-6.734
		c6.552,5.958,13.106,11.918,19.709,17.923c6.555-5.96,13.088-11.898,19.663-17.877c1.042,0.903,2.05,1.737,3.013,2.621
		c2.348,2.154,4.668,4.338,7.01,6.497c4.134,3.811,8.273,7.616,12.418,11.416c2.802,2.568,5.61,5.129,8.428,7.68
		c3.366,3.047,6.742,6.083,10.121,9.116c0.576,0.517,0.952,1.04,0.905,1.909c-0.09,1.652-0.026,3.313-0.026,5.104
		c-0.593,0-1.08,0-1.566,0c-12.501,0-25.003-0.063-37.503,0.063c-2.048,0.021-3.532-0.583-4.923-1.901
		c-2.555-2.42-5.119-4.831-7.711-7.211c-3.254-2.989-6.54-5.944-9.843-8.942c-0.995,0.872-2.034,1.742-3.027,2.661
		c-2.612,2.42-5.191,4.876-7.808,7.29c-2.793,2.577-5.597,5.142-8.444,7.659c-0.339,0.3-0.978,0.365-1.478,0.365
		C27.169,47.275,13.584,47.271,0,47.271C0,45.187,0,43.102,0,41.018z M41.787,11.198C30.856,21.204,20.035,31.109,9.144,41.078
		c0.275,0.117,0.345,0.174,0.416,0.174c9.499,0.008,18.998,0.024,28.497-0.014c0.593-0.002,1.312-0.29,1.755-0.687
		c3.172-2.839,6.279-5.751,9.426-8.62c1.277-1.165,2.619-2.259,3.899-3.421c1.246-1.131,2.451-2.307,3.724-3.511
		C51.804,20.37,46.817,15.804,41.787,11.198z M66.136,24.981c1.44,1.354,2.717,2.591,4.034,3.784
		c4.22,3.824,8.47,7.617,12.669,11.464c0.593,0.543,1.139,0.808,1.951,0.806c9.208-0.027,18.416-0.017,27.624-0.017
		c0.4,0,0.8,0,1.457,0c-0.361-0.385-0.532-0.599-0.734-0.777c-1.357-1.201-2.734-2.38-4.08-3.593
		c-2.729-2.461-5.454-4.928-8.161-7.414c-4.355-4-8.688-8.024-13.04-12.027c-2.172-1.998-4.365-3.972-6.622-6.023
		C76.22,15.767,71.228,20.329,66.136,24.981z"/>
	<path fill="#FFFFFF" d="M399.927,39.017c-1.071,2.474-2.487,4.674-4.917,6.033c-2.271,1.27-4.718,2.042-7.309,2.197
		c-1.96,0.117-3.939,0.129-5.898,0.002c-4.372-0.285-8.352-1.723-12-4.417c0.946-1.524,1.865-3.004,2.734-4.406
		c1.645,0.822,3.12,1.782,4.735,2.324c4.649,1.56,9.332,1.993,13.979-0.152c1.954-0.902,3.073-2.991,2.42-5.139
		c-0.403-1.325-1.396-2.183-2.601-2.584c-1.573-0.523-3.228-0.847-4.873-1.093c-3.546-0.53-7.143-0.735-10.396-2.535
		c-3.73-2.064-5.185-5.847-4.49-9.786c0.945-5.362,4.747-7.717,9.554-8.658c5.824-1.14,11.464-0.248,16.785,2.447
		c0.219,0.111,0.459,0.185,0.662,0.318c0.301,0.197,0.578,0.43,0.937,0.703c-0.846,1.549-1.681,3.078-2.539,4.648
		c-1.635-0.698-3.182-1.504-4.82-2.026c-3.553-1.134-7.152-1.722-10.828-0.397c-2.529,0.911-4.119,3.251-3.325,5.564
		c0.329,0.959,1.304,2.003,2.238,2.38c1.708,0.688,3.597,0.946,5.425,1.313c2.276,0.456,4.588,0.747,6.844,1.278
		c3.625,0.853,6.255,2.979,7.678,6.486C399.927,35.349,399.927,37.183,399.927,39.017z"/>
	<path fill="#FFFFFF" d="M311.888,0c0,3.617,0,7.235,0,10.987c4.185,0,8.284,0,12.511,0c0,1.933,0,3.733,0,5.686
		c-4.067,0-8.202,0-12.511,0c0,0.59,0,1.03,0,1.469c0,4.958,0.034,9.917-0.009,14.874c-0.045,5.122,3.333,8.429,8.254,8.259
		c1.367-0.047,2.736-0.007,4.182-0.007c0,2.016,0,3.948,0,5.909c-3.142,0.59-6.259,0.595-9.261-0.438
		c-3.445-1.185-6.047-3.412-7.706-6.746c-1.212-2.437-1.521-4.971-1.482-7.64c0.069-4.707,0.019-9.416,0.019-14.124
		c0-0.449,0-0.898,0-1.434c-2.513,0-4.914,0-7.409,0c0-1.937,0-3.783,0-5.769c2.419,0,4.852,0,7.409,0
		c0-2.497,0.032-4.861-0.019-7.222c-0.016-0.73,0.236-1.064,0.883-1.374c1.574-0.752,3.096-1.613,4.638-2.43
		C311.555,0,311.722,0,311.888,0z"/>
	<path fill="#FFFFFF" d="M245.859,70.031c-1.004-0.704-2.18-1.16-2.56-2.575c-0.486-1.809,0.058-3.995,1.416-4.868
		c1.414-0.908,3.98-0.815,5.179,0.392c1.939,1.952,1.518,5.324-0.736,6.546c-0.276,0.15-0.532,0.336-0.797,0.505
		C247.526,70.031,246.693,70.031,245.859,70.031z"/>
	<path fill="#FFFFFF" d="M382.67,70.031c-0.881-0.665-1.946-1.034-2.425-2.248c-0.675-1.708-0.23-4.129,1.189-5.137
		c1.409-1.001,4.191-0.854,5.37,0.423c1.589,1.72,1.703,5.109-0.957,6.488c-0.242,0.126-0.452,0.315-0.676,0.474
		C384.337,70.031,383.503,70.031,382.67,70.031z"/>
	<path fill="#FFFFFF" d="M269.87,70.031c-1.232-0.81-2.416-1.629-2.663-3.275c-0.242-1.617,0.245-2.918,1.494-3.923
		c1.408-1.133,2.965-1.084,4.5-0.339c1.285,0.624,1.844,1.711,1.948,3.172c0.157,2.206-0.842,3.553-2.779,4.365
		C271.537,70.031,270.703,70.031,269.87,70.031z"/>
	<path fill="#FFFFFF" d="M224.35,70.031c-1.348-0.642-2.46-1.423-2.805-3.066c-0.31-1.476,0.086-3.031,1.379-4.135
		c1.142-0.975,3.133-1.137,4.614-0.31c1.372,0.766,1.89,2.032,1.895,3.549c0.006,1.998-1.059,3.234-2.833,3.963
		C225.85,70.031,225.1,70.031,224.35,70.031z"/>
	<path fill="#FFFFFF" d="M308.387,70.031c-2.607-1.109-3-2.884-2.763-4.884c0.247-2.09,2.278-3.381,4.55-3.115
		c1.954,0.229,3.4,2.06,3.322,4.022c-0.08,1.99-1.07,3.251-2.858,3.976C309.887,70.031,309.137,70.031,308.387,70.031z"/>
	<path fill="#FFFFFF" d="M341.652,70.031c0-2.615,0-5.23,0-7.988c1.968,0.085,3.865-0.39,5.546,1.107
		c1.839,1.638,1.734,5.625-1.546,6.625c-0.176,0.054-0.333,0.169-0.499,0.256C343.986,70.031,342.819,70.031,341.652,70.031z"/>
	<path fill="#FFFFFF" d="M211.344,70.031c0-2.61,0-5.22,0-8.096c1.408,0.117,2.748,0.145,4.056,0.363
		c1.057,0.176,1.521,1.108,1.659,2.048c0.188,1.279-0.532,2.16-1.679,2.73c0.675,1.015,1.321,1.985,1.967,2.955
		c-0.584,0-1.167,0-1.751,0c-0.859-0.91-1.043-2.502-2.604-2.807c-0.149,1.049-0.273,1.928-0.398,2.807
		C212.177,70.031,211.761,70.031,211.344,70.031z"/>
	<path fill="#FFFFFF" d="M329.896,70.031c0-2.619,0-5.238,0-7.827c1.215-0.61,1.719,0.276,2.201,0.97
		c0.898,1.293,1.701,2.652,2.771,3.946c0-1.664,0-3.328,0-5.039c0.558,0,0.961,0,1.531,0c0,2.648,0,5.299,0,7.95c-0.5,0-1,0-1.501,0
		c-1.092-1.692-2.183-3.383-3.275-5.075c-0.227,0.6-0.202,1.125-0.232,1.647c-0.067,1.144-0.162,2.286-0.245,3.428
		C330.73,70.031,330.313,70.031,329.896,70.031z"/>
	<path fill="#FFFFFF" d="M392.924,70.031c0.004-2.54,0.008-5.081,0.016-7.621c0-0.078,0.041-0.157,0.074-0.275
		c1.249-0.492,1.68,0.448,2.201,1.262c0.807,1.262,1.635,2.511,2.681,3.725c0-1.665,0-3.33,0-5.041c0.558,0,0.962,0,1.531,0
		c0,2.648,0,5.299,0,7.95c-0.5,0-1,0-1.501,0c-1.119-1.73-2.238-3.46-3.484-5.387c-0.085,0.395-0.125,0.501-0.128,0.608
		c-0.05,1.593-0.094,3.186-0.14,4.779C393.758,70.031,393.341,70.031,392.924,70.031z"/>
	<path fill="#FFFFFF" d="M200.839,70.031c0-2.615,0-5.229,0-8.089c1.384,0.109,2.697,0.099,3.959,0.346
		c1.139,0.223,1.861,1.402,1.778,2.47c-0.107,1.381-1.12,2.338-2.706,2.512c-0.449,0.049-0.908,0.008-1.531,0.008
		c0,0.955,0,1.855,0,2.754C201.84,70.031,201.339,70.031,200.839,70.031z"/>
	<path fill="#FFFFFF" d="M352.406,70.031c0.554-1.686,1.104-3.375,1.666-5.058c0.269-0.807,0.518-1.626,0.872-2.395
		c0.117-0.255,0.524-0.484,0.821-0.517c0.293-0.032,0.818,0.123,0.895,0.326c0.953,2.534,1.843,5.092,2.749,7.644
		c-0.5,0-1,0-1.501,0c-0.269-0.58-0.403-1.512-0.831-1.677c-1.617-0.621-2.752,0.027-3.421,1.677
		C353.24,70.031,352.823,70.031,352.406,70.031z"/>
	<path fill="#FFFFFF" d="M320.392,70.031c-1.665-0.808-2.108-2.211-2.015-3.943c0.071-1.318,0.014-2.643,0.014-4.01
		c0.532,0,0.936,0,1.502,0c0,1.615-0.12,3.238,0.059,4.828c0.072,0.633,0.7,1.389,1.283,1.704c0.327,0.177,1.13-0.363,1.617-0.719
		c0.223-0.162,0.27-0.657,0.279-1.004c0.032-1.207,0.06-2.417-0.002-3.621c-0.056-1.095,0.382-1.436,1.51-1.126
		c0,1.808,0.074,3.636-0.026,5.454c-0.066,1.198-0.977,1.894-1.97,2.437C321.893,70.031,321.142,70.031,320.392,70.031z"/>
	<path fill="#FFFFFF" d="M258.615,70.031c-1.792-0.809-3.089-1.999-2.991-4.146c0.071-1.567,0.694-2.925,2.192-3.546
		c1.568-0.65,3.153-0.513,4.482,0.695c0.157,0.142,0.109,0.509,0.156,0.772c-0.396,0.067-0.887,0.315-1.17,0.166
		c-0.761-0.4-1.371-0.836-2.368-0.505c-1.266,0.42-1.663,1.436-1.719,2.429c-0.042,0.743,0.42,1.891,1.004,2.198
		c0.748,0.392,1.979,0.413,2.754,0.055c0.858-0.396,1.236-0.395,1.762,0.565c-0.711,0.446-1.406,0.881-2.101,1.317
		C259.949,70.031,259.282,70.031,258.615,70.031z"/>
	<path fill="#FFFFFF" d="M296.131,70.031c0-2.613,0-5.227,0-7.921c1.757,0,3.436,0,5.182,0c0,0.361,0,0.706,0,1.14
		c-1.192,0-2.344,0-3.588,0c0,0.762,0,1.441,0,2.253c0.912,0,1.848,0,2.842,0c0,0.53,0,0.931,0,1.463c-0.901,0-1.831,0-2.935,0
		c0,1.106,0,2.086,0,3.066C297.132,70.031,296.632,70.031,296.131,70.031z"/>
	<path fill="#FFFFFF" d="M235.605,70.031c0-2.196,0-4.392,0-6.718c-0.754,0-1.434,0-2.18,0c0-0.476,0-0.821,0-1.283
		c1.732,0,3.428-0.045,5.117,0.038c0.339,0.017,0.653,0.523,0.979,0.804c-0.068,0.12-0.135,0.24-0.203,0.36c-0.685,0-1.37,0-2.212,0
		c0,2.344,0,4.572,0,6.8C236.605,70.031,236.105,70.031,235.605,70.031z"/>
	<path fill="#FFFFFF" d="M365.162,70.031c-0.083-1.019-0.204-2.037-0.24-3.058c-0.042-1.195-0.01-2.393-0.01-3.675
		c-0.693,0-1.262,0-1.917,0c-0.032-0.428-0.057-0.776-0.089-1.201c1.932,0,3.784,0,5.69,0c0,0.385,0,0.732,0,1.071
		c-2.184,0.264-2.184,0.264-2.184,2.49c0,1.457,0,2.915,0,4.372C365.996,70.031,365.579,70.031,365.162,70.031z"/>
	<path fill="#FFFFFF" d="M280.124,70.031c0-2.616,0-5.233,0-7.925c0.514,0,0.943,0,1.461,0c0,2.09,0,4.159,0,6.425
		c0.727,0,1.379,0.061,2.016-0.013c1.189-0.14,1.734,0.286,1.526,1.514C283.459,70.031,281.792,70.031,280.124,70.031z"/>
	<path fill="#FFFFFF" d="M373.416,70.031c0-2.609,0-5.219,0-7.915c0.494,0,0.922,0,1.501,0c0,2.629,0,5.272,0,7.915
		C374.416,70.031,373.916,70.031,373.416,70.031z"/>
	<path fill="#FFFFFF" d="M169.576,15.516c0-1.298,0.024-2.376-0.009-3.453c-0.022-0.715,0.189-1.085,0.983-1.069
		c1.702,0.035,3.406,0.011,5.217,0.011c0.022,0.467,0.058,0.867,0.058,1.267c0.003,11-0.017,21.999,0.029,32.999
		c0.005,1.233-0.376,1.61-1.562,1.52c-1.201-0.092-2.416-0.053-3.623-0.009c-0.799,0.029-1.143-0.246-1.106-1.076
		c0.047-1.075,0.012-2.153,0.012-3.524c-0.776,0.758-1.326,1.416-1.99,1.925c-3.066,2.347-6.602,3.521-10.41,3.371
		c-6.285-0.247-11.308-2.907-14.613-8.444c-2.127-3.562-3.006-7.455-2.713-11.532c0.358-4.972,2.17-9.411,5.943-12.811
		c2.665-2.402,5.837-3.763,9.454-4.221c4.445-0.563,8.427,0.405,12.018,3.034C168.021,14.059,168.687,14.737,169.576,15.516z
		 M157.957,41.511c4.822,0.286,9.085-2.656,10.852-6.763c1.205-2.8,1.589-5.76,0.975-8.766c-0.524-2.568-1.611-4.923-3.593-6.694
		c-2.414-2.156-5.274-3.191-8.563-3.043c-4.514,0.203-7.921,2.231-10.009,6.198c-1.417,2.692-1.8,5.622-1.335,8.693
		c0.42,2.777,1.52,5.216,3.475,7.128C152.021,40.475,154.793,41.759,157.957,41.511z"/>
	<path fill="#FFFFFF" d="M248.411,37.774c1.046,1.381,2.08,2.746,3.151,4.16c-2.523,2.707-5.708,4.314-9.295,5.049
		c-3.948,0.809-7.921,0.797-11.733-0.721c-6.002-2.389-9.537-6.844-10.671-13.182c-0.274-1.53-0.523-3.101-0.482-4.645
		c0.132-4.979,1.638-9.53,5.133-13.155c2.709-2.81,6.146-4.295,10.079-4.821c3.302-0.442,6.36,0.094,9.303,1.464
		c4.718,2.197,7.421,6.115,8.659,10.997c0.648,2.556,0.733,5.255,1.091,8.039c-9.442,0.613-18.531,0.145-27.883,0.334
		c0.293,1.156,0.467,2.482,0.962,3.673c1.641,3.945,4.6,6.204,8.883,6.825C240.511,42.503,244.576,40.764,248.411,37.774z
		 M247.029,25.965c-1.092-7.802-6.177-10.415-10.625-10.132c-6.516,0.415-9.62,4.419-10.453,10.132
		C232.979,25.965,240.001,25.965,247.029,25.965z"/>
	<path fill="#FFFFFF" d="M331.029,11.005c1.58,0,3.121,0.068,4.652-0.022c1.146-0.068,1.505,0.284,1.495,1.464
		c-0.055,6.624-0.071,13.249-0.013,19.873c0.046,5.293,3.605,9.189,9.179,9.223c2.941,0.018,5.637-0.45,7.795-2.631
		c1.668-1.686,2.464-3.79,2.494-6.089c0.079-6.04,0.017-12.082,0.035-18.123c0.003-1.188,0.11-2.375,0.173-3.626
		c2.071,0,4.007,0,6.008,0c0,11.864,0,23.682,0,35.689c-1.829,0-3.684,0.03-5.536-0.039c-0.227-0.008-0.57-0.521-0.622-0.839
		c-0.1-0.608-0.029-1.244-0.029-2.179c-0.611,0.481-1.027,0.877-1.504,1.174c-2.725,1.696-5.671,2.778-8.909,2.617
		c-3.954-0.196-7.694-1.271-10.671-3.989c-2.51-2.292-4.253-5.257-4.37-8.674c-0.266-7.809-0.217-15.629-0.292-23.444
		C330.914,11.314,330.958,11.237,331.029,11.005z"/>
	<path fill="#FFFFFF" d="M293.13,46.71c-2.021,0-3.921,0-6.003,0c0-0.439,0-0.878,0-1.316c0-5.916,0.084-11.833-0.046-17.746
		c-0.045-2.053-0.396-4.165-1.012-6.124c-0.794-2.527-2.739-4.081-5.317-4.801c-4.078-1.138-7.733-0.361-10.773,2.596
		c-1.62,1.575-2.553,3.617-2.595,5.913c-0.126,6.856-0.182,13.714-0.265,20.571c-0.003,0.283,0,0.566,0,0.904
		c-2.016,0-3.916,0-5.91,0c0-11.84,0-23.686,0-35.618c1.91,0,3.839,0,5.869,0c0,1.413,0,2.812,0,3.996
		c1.618-1.106,3.137-2.524,4.933-3.304c5.799-2.519,11.403-2.067,16.444,1.957c3.19,2.546,4.627,6.049,4.659,10.076
		c0.057,7.165,0.016,14.33,0.016,21.496C293.13,45.757,293.13,46.204,293.13,46.71z"/>
	<path fill="#FFFFFF" d="M181.052,11.006c2.044,0,3.995-0.036,5.943,0.038c0.299,0.011,0.708,0.474,0.847,0.816
		c1.457,3.582,2.858,7.186,4.296,10.776c1.892,4.724,3.802,9.441,5.707,14.16c0.426,1.055,0.863,2.106,1.372,3.346
		c0.752-1.722,1.467-3.253,2.095-4.82c1.785-4.459,3.531-8.933,5.299-13.399c1.243-3.14,2.521-6.267,3.733-9.42
		c0.417-1.085,0.981-1.643,2.256-1.531c1.528,0.134,3.077,0.032,4.809,0.032c-0.736,1.876-1.403,3.642-2.12,5.388
		c-1.888,4.596-3.804,9.18-5.697,13.774c-2.203,5.346-4.382,10.701-6.619,16.032c-0.12,0.286-0.678,0.535-1.04,0.546
		c-1.791,0.056-3.585-0.011-5.375,0.044c-0.697,0.021-1.008-0.229-1.259-0.853c-1.639-4.08-3.303-8.151-4.984-12.215
		c-1.9-4.592-3.834-9.17-5.738-13.76c-1.123-2.707-2.22-5.425-3.321-8.142C181.167,11.603,181.139,11.363,181.052,11.006z"/>
</g>
</svg>
