<?xml version="1.0" encoding="utf-8"?>
<!-- Generator: Adobe Illustrator 17.0.1, SVG Export Plug-In . SVG Version: 6.00 Build 0)  -->
<!DOCTYPE svg PUBLIC "-//W3C//DTD SVG 1.1//EN" "http://www.w3.org/Graphics/SVG/1.1/DTD/svg11.dtd">
<svg version="1.1" id="Layer_1" xmlns="http://www.w3.org/2000/svg" xmlns:xlink="http://www.w3.org/1999/xlink" x="0px" y="0px"
	 width="347.018px" height="375.019px" viewBox="0 0 347.018 375.019" enable-background="new 0 0 347.018 375.019"
	 xml:space="preserve">
<path fill="#FFFFFF" d="M96.505,0c-0.009,25.747-0.051,51.494-0.016,77.242c0.029,21.658,0.148,43.317,0.227,64.975
	c0.004,1.06,0,2.121,0,3.444c0.87-0.16,1.475-0.122,1.914-0.373c11.147-6.377,23.334-9.66,35.823-12.005
	c10.862-2.039,21.858-3.25,32.774-1.154c5.463,1.049,10.811,3.282,15.882,5.677c19.265,9.098,38.488,18.295,57.532,27.845
	c8.021,4.022,15.765,8.748,21.181,16.312c4.093,5.716,6.237,11.996,6.204,19.128c-0.105,23.332-0.257,46.667,0.068,69.995
	c0.129,9.25-1.982,17.65-6.504,25.533c-9.332,16.269-21.762,29.605-37.845,39.399c-2.828,1.722-5.762,3.27-8.651,4.89
	c-0.046,0.026-0.146-0.045-0.402-0.134c1.292-3.012,2.682-5.977,3.851-9.026c3.77-9.838,5.137-20.107,5.132-30.575
	c-0.011-20.665-0.068-41.331-0.183-61.995c-0.043-7.744-0.164-15.492-0.522-23.226c-0.16-3.469-0.617-7.018-1.607-10.331
	c-1.37-4.589-4.802-7.767-8.916-10.037c-10.416-5.746-20.875-11.416-31.361-17.034c-13.785-7.386-27.536-14.841-41.443-21.992
	c-13.155-6.764-27.103-10.656-42.054-9.978c-2.719,0.123-5.542,0.405-8.096,1.268c-7.036,2.376-13.954,5.098-20.919,7.683
	c0.096,0.26,0.192,0.519,0.289,0.779c1.5-0.593,2.989-1.216,4.501-1.775c13.767-5.089,26.805-3.984,39.882,3.093
	c22.676,12.272,45.712,23.883,68.639,35.687c9.28,4.778,17.871,10.321,23.987,19.072c1.641,2.347,2.488,4.767,2.472,7.648
	c-0.046,8.249,0.049,16.499,0.108,24.748c0.153,21.327,0.18,42.656,0.522,63.98c0.26,16.217-5.997,29.553-17.041,40.989
	c-6.298,6.522-14.132,10.794-22.025,14.937c-11.195,5.877-23.266,8.807-35.787,9.738c-20.042,1.491-37.935-4.485-54.626-15.443
	c-20.046-13.161-40.451-25.778-60.767-38.524c-7.764-4.871-14.172-10.777-17.058-19.79c-0.551-1.721-1.114-3.437-1.672-5.156
	c0-60.17,0-120.34,0-180.509c0.183-0.698,0.476-1.387,0.533-2.094c1.503-18.725,7.245-35.953,18.101-51.38
	c6.112-8.686,13.902-15.589,23.139-21.782c0,42.993,0,85.554,0,128.571c4.343-1.899,8.159-3.702,12.084-5.226
	c1.856-0.721,2.395-1.67,2.392-3.658c-0.07-42.477-0.04-84.954-0.095-127.431c-0.003-1.963,0.594-3.17,2.19-4.317
	c7.567-5.443,15.063-10.985,22.54-16.552C85.796,7.478,90.633,3.716,95.505,0C95.838,0,96.172,0,96.505,0z M164.421,304.005
	c0.16-0.746,0.311-1.123,0.311-1.499c0.013-22.91,0.03-45.821-0.055-68.73c-0.003-0.827-0.837-1.976-1.604-2.418
	c-3.02-1.742-6.169-3.26-9.267-4.865c-18.097-9.373-36.191-18.751-54.294-28.11c-0.825-0.427-1.732-0.695-2.902-1.155
	c0,1.2,0.001,1.942,0,2.685c-0.04,19.659-0.035,39.318-0.176,58.976c-0.018,2.495,0.815,3.9,2.917,5.181
	c17.702,10.791,35.337,21.693,52.995,32.556C156.288,299.051,160.246,301.454,164.421,304.005z M56.154,177.713
	c-4.471,1.961-8.379,3.767-12.367,5.376c-1.508,0.608-1.869,1.448-1.865,2.986c0.052,21.915,0.048,43.829,0.029,65.744
	c-0.006,6.997,0.157,14.008-0.209,20.988c-0.518,9.89,3.427,17.228,11.698,22.411c3.296,2.066,6.632,4.069,9.92,6.148
	c32.377,20.467,64.747,40.946,97.123,61.415c1.239,0.783,2.524,1.495,4.27,2.524c0-3.72-0.141-6.941,0.048-10.143
	c0.135-2.29-0.709-3.583-2.654-4.77c-18.124-11.058-36.274-22.077-54.24-33.389c-14.772-9.3-30.487-17.217-43.453-29.23
	c-2.693-2.495-5.25-5.139-5.867-8.754c-1.046-6.129-2.156-12.34-2.221-18.527c-0.274-26.328-0.175-52.66-0.211-78.991
	C56.152,180.432,56.154,179.361,56.154,177.713z M213.011,375.019c0.055-8.231,0.112-16.462,0.166-24.692
	c0.006-0.98,0.001-1.961,0.001-2.961c5.219,0,10.163-0.121,15.097,0.055c2.231,0.08,3.655,1.658,3.932,3.877
	c0.411,3.288,0.805,6.632-1.478,9.558c3.389,4.757,2.341,11.581-2.217,14.163C223.345,375.019,218.178,375.019,213.011,375.019z
	 M220.754,358.752c1.482-0.311,3.643-0.268,3.871-0.91c0.539-1.519,0.536-3.503-0.019-5.015c-0.253-0.688-2.334-0.705-3.852-1.094
	C220.754,354.216,220.754,356.161,220.754,358.752z M220.73,370.34c1.552-0.383,3.679-0.395,3.916-1.07
	c0.534-1.522,0.503-3.511-0.061-5.025c-0.246-0.66-2.365-0.622-3.855-0.95C220.73,365.76,220.73,367.709,220.73,370.34z
	 M256.513,375.019c0-9.553,0-19.106,0-28.833c2.515,0,4.721,0,7.268,0c0,2.721,0,5.494,0,8.474c1.176-0.492,1.961-0.986,2.809-1.148
	c5.213-0.995,7.747,1.12,7.796,6.458c0.026,2.83-0.071,5.663,0.026,8.49c0.099,2.87-0.728,5.169-3.399,6.56
	C266.18,375.019,261.347,375.019,256.513,375.019z M266.925,369.187c0-2.79,0.084-5.676-0.064-8.55
	c-0.034-0.656-0.867-1.271-1.333-1.904c-0.534,0.672-1.46,1.307-1.529,2.024c-0.206,2.138-0.008,4.312-0.097,6.466
	C263.816,369.291,264.637,369.964,266.925,369.187z M300.515,375.019c-3.01-1.101-3.987-3.404-3.922-6.42
	c0.068-3.156-0.043-6.316,0.033-9.472c0.095-3.937,1.778-5.617,5.656-5.694c2.574-0.051,5.155-0.075,7.725,0.06
	c2.684,0.141,4.373,1.746,4.464,4.42c0.141,4.15,0.069,8.307,0.041,12.461c-0.016,2.38-1.594,3.65-3.495,4.645
	C307.516,375.019,304.016,375.019,300.515,375.019z M304.033,358.644c0,3.445-0.066,6.753,0.077,10.052
	c0.02,0.454,1.058,1.14,1.673,1.198c0.444,0.042,1.377-0.766,1.394-1.22c0.121-3.305,0.065-6.617,0.065-10.03
	C306.076,358.644,305.205,358.644,304.033,358.644z M239.012,375.019c-2.828-1.19-3.726-3.393-3.604-6.339
	c0.141-3.399-0.019-6.809,0.057-10.212c0.072-3.243,1.694-4.9,4.925-5.007c2.736-0.09,5.483-0.096,8.217,0.032
	c2.673,0.125,4.303,1.441,4.463,4.102c0.258,4.295,0.169,8.615,0.109,12.922c-0.033,2.376-1.67,3.63-3.667,4.502
	C246.013,375.019,242.512,375.019,239.012,375.019z M242.713,358.812c0,3.203-0.068,6.508,0.075,9.804
	c0.021,0.479,1.056,1.277,1.611,1.267c0.532-0.01,1.466-0.85,1.5-1.373c0.161-2.487-0.05-4.997,0.113-7.484
	C246.169,358.624,245.185,358.05,242.713,358.812z M336.017,375.019c0.033-4.318,0.063-8.636,0.101-12.954
	c0.006-0.663-0.177-1.458,0.122-1.956c0.358-0.597,1.139-0.939,1.738-1.392c0.379,0.535,1.081,1.066,1.087,1.604
	c0.053,4.898-0.015,9.798-0.047,14.698c2.5,0,5,0,7.5,0c0.009-5.56,0.02-11.12,0.028-16.68c0.003-2.212-0.854-4.049-3.056-4.579
	c-2.471-0.595-5.094-0.998-7.192,1.203c-0.674-1.709-3.92-2.17-7.281-1.085c0,7.043,0,14.092,0,21.142
	C331.35,375.019,333.684,375.019,336.017,375.019z M290.515,375.019c3.423-1.79,4.302-3.3,3.883-6.866
	c-0.058-0.497-0.417-1.354-0.676-1.369c-1.898-0.111-3.835-0.229-5.692,0.075c-0.498,0.081-0.76,1.609-1.37,3.031
	c-0.787-0.564-2.058-1.024-2.102-1.581c-0.213-2.726-0.153-5.48-0.048-8.219c0.018-0.467,0.748-1.291,1.113-1.272
	c0.582,0.031,1.265,0.528,1.656,1.025c0.3,0.381,0.215,1.065,0.293,1.557c2.34,0,4.529,0,6.69,0c0.56-6.285-0.943-7.979-6.884-7.983
	c-1.745-0.001-3.495-0.048-5.235,0.053c-3.316,0.192-4.986,1.89-5.073,5.235c-0.084,3.24,0.11,6.49-0.065,9.723
	c-0.173,3.211,0.964,5.432,4.008,6.593C284.181,375.019,287.348,375.019,290.515,375.019z M325.017,375.019
	c0-7.114,0-14.228,0-21.384c-2.43,0-4.687,0-7,0c0,7.275,0,14.33,0,21.384C320.35,375.019,322.683,375.019,325.017,375.019z
	 M325.147,350.874c0-1.673,0-3.192,0-4.745c-2.498,0-4.792,0-7.257,0c0,1.641,0,3.162,0,4.745
	C320.395,350.874,322.749,350.874,325.147,350.874z"/>
</svg>
