<?xml version="1.0" encoding="utf-8"?>
<!-- Generator: Adobe Illustrator 17.0.1, SVG Export Plug-In . SVG Version: 6.00 Build 0)  -->
<!DOCTYPE svg PUBLIC "-//W3C//DTD SVG 1.1//EN" "http://www.w3.org/Graphics/SVG/1.1/DTD/svg11.dtd">
<svg version="1.1" id="Layer_1" xmlns="http://www.w3.org/2000/svg" xmlns:xlink="http://www.w3.org/1999/xlink" x="0px" y="0px"
	 width="400px" height="400.007px" viewBox="0 0 400 400.007" enable-background="new 0 0 400 400.007" xml:space="preserve">
<path fill="#FFFFFF" d="M395.999,200.387c0.384,107.713-86.334,196.314-195.553,196.62C92.661,397.307,4.788,310.62,4.034,202.671
	C3.274,93.794,90.209,5.662,198.858,5.033C307.46,4.403,395.258,91.406,395.999,200.387z M240.798,62.684
	c-0.652,1.873-1.214,3.246-1.607,4.666c-1.096,3.964-1.286,7.962,0.234,11.849c4.49,11.48,17.725,14.729,28.744,10.813
	c11.675-4.149,16.081-19.448,9.141-30.462c-7.243-11.496-18.205-17.423-31.29-19.094c-17.75-2.267-33.087,3.513-45.778,15.967
	c-13.394,13.143-20.424,29.321-21.721,47.992c-0.143,2.065-0.932,2.796-2.931,3.284c-12.578,3.073-24.724,7.296-35.958,13.902
	c-25.269,14.86-39.523,36.946-42.623,65.97c-1.841,17.233,0.011,34.189,6.325,50.514c8.044,20.797,22.273,36.072,41.541,46.916
	c9.84,5.538,20.327,9.419,31.172,12.459c0.923,0.259,2.132,1.713,2.151,2.634c0.203,9.838-1.05,19.409-5.791,28.268
	c-3.381,6.318-8.777,9.183-15.732,9.575c-1.994,0.112-2.781-0.62-2.227-2.67c0.413-1.529,0.814-3.1,0.902-4.67
	c0.396-7.063-3.157-15.533-13.728-18.695c-13.347-3.992-26.913,6.867-25.95,20.754c0.914,13.186,14.729,24.998,26.055,27.891
	c11.492,2.935,22.673,1.493,33.574-2.729c17.205-6.663,28.622-19.24,35.036-36.149c2.344-6.178,2.74-13.125,3.752-19.763
	c0.348-2.284,0.956-3.315,3.43-3.791c6.412-1.234,12.92-2.405,19.047-4.571c7.017-2.48,13.777-5.781,20.445-9.129
	c9.39-4.714,17.448-11.233,24.192-19.322c3.054-3.664,3.594-7.881,1.76-12.117c-1.874-4.328-5.547-6.325-10.285-6.588
	c-4.753-0.264-8.437,1.713-11.9,4.726c-3.517,3.059-7.128,6.067-10.991,8.66c-9.726,6.527-20.451,10.349-32.206,11.188
	c-2.241,0.16-3.172-0.525-2.979-2.761c0.072-0.836-0.003-1.685-0.003-2.528c-0.001-41.872-0.001-83.744,0.001-125.615
	c0-1.498-0.012-2.998,0.04-4.495c0.049-1.391,0.667-2.062,2.178-1.675c2.625,0.672,5.332,1.081,7.894,1.932
	c9.874,3.28,17.364,9.201,21.465,19.119c1.664,4.024,3.804,7.934,6.272,11.521c2.897,4.21,7.382,5.543,12.378,4.898
	c5.468-0.705,9.275-3.75,10.638-9.049c2.076-8.066,1.987-16.273,0.575-24.48c-1.116-6.485-5.143-10.605-10.696-13.565
	c-2.23-1.189-4.441-2.414-6.65-3.641c-12.826-7.127-26.445-11.824-41.1-13.214c-2.314-0.219-2.919-1.325-2.636-3.297
	c0.946-6.57,1.561-13.218,3.015-19.676c1.442-6.404,3.985-12.505,8.792-17.301C230.511,63.398,235.036,61.959,240.798,62.684z
	 M178.51,201.712c0-21.453,0.003-42.905-0.003-64.358c-0.001-2.914-0.318-3.082-3.061-2.074
	c-15.656,5.749-24.312,17.782-29.294,32.947c-3.144,9.571-4.417,19.488-4.769,29.561c-0.566,16.236,1.36,31.963,8.843,46.643
	c5.474,10.74,13.129,19.315,24.43,24.182c3.059,1.317,3.702,0.911,3.702-2.26c0.001-21.547,0-43.094,0-64.64
	C178.409,201.712,178.46,201.712,178.51,201.712z"/>
</svg>
