<?xml version="1.0" encoding="utf-8"?>
<!-- Generator: Adobe Illustrator 17.0.1, SVG Export Plug-In . SVG Version: 6.00 Build 0)  -->
<!DOCTYPE svg PUBLIC "-//W3C//DTD SVG 1.1//EN" "http://www.w3.org/Graphics/SVG/1.1/DTD/svg11.dtd">
<svg version="1.1" id="Layer_1" xmlns="http://www.w3.org/2000/svg" xmlns:xlink="http://www.w3.org/1999/xlink" x="0px" y="0px"
	 width="400px" height="367.756px" viewBox="0 0 400 367.756" enable-background="new 0 0 400 367.756" xml:space="preserve">
<g>
	<path fill="#FFFFFF" d="M400,202c-1.598,0.786-2.186,2.019-2.268,3.841c-0.269,5.985-0.64,11.971-1.191,17.936
		c-0.172,1.866-1.048,3.664-1.579,5.499c-0.404,1.398-0.806,2.799-1.149,4.213c-0.588,2.429-1.044,4.894-1.723,7.297
		c-0.403,1.425-1.16,2.745-1.696,4.137c-0.685,1.78-1.656,3.541-1.884,5.387c-0.513,4.154-2.834,7.538-4.294,11.281
		c-1.075,2.759-2.149,5.522-3.363,8.22c-0.395,0.878-1.224,1.565-1.871,2.325c-0.249,0.293-0.632,0.503-0.799,0.83
		c-1.377,2.697-2.679,5.433-4.095,8.109c-0.404,0.763-1.221,1.302-1.649,2.057c-0.664,1.172-1.396,2.392-1.656,3.681
		c-0.271,1.345-0.364,2.497-2.077,2.612c-0.345,0.023-0.763,0.31-0.984,0.6c-1.328,1.748-2.629,3.518-3.9,5.308
		c-1.352,1.903-2.66,3.837-3.991,5.754c-1.143,1.647-2.29,3.291-3.444,4.931c-0.111,0.158-0.282,0.402-0.415,0.395
		c-2.759-0.138-2.69,1.779-2.78,3.674c-0.016,0.33-0.53,0.827-0.896,0.919c-1.92,0.484-2.691,2.134-3.8,3.476
		c-0.845,1.022-1.849,1.913-2.796,2.849c-1.859,1.835-4.196,3.18-5.444,5.658c-0.275,0.546-1.371,0.871-2.122,0.94
		c-1.115,0.102-1.699,0.335-2.125,1.564c-0.46,1.328-1.183,2.549-2.986,3.082c-1.323,0.391-2.275,2.044-3.385,3.141
		c-0.234,0.231-0.42,0.689-0.658,0.71c-3.042,0.274-4.768,2.455-6.706,4.412c-0.933,0.942-2.557,1.361-3.173,2.421
		c-0.964,1.659-2.227,2.068-3.894,2.109c-0.384,0.009-0.839,0.106-1.133,0.331c-1.471,1.123-2.878,2.332-4.358,3.443
		c-0.393,0.295-0.962,0.362-1.455,0.515c-0.631,0.195-1.502,0.173-1.856,0.593c-0.974,1.155-2.063,1.766-3.582,1.665
		c-0.28-0.018-0.79,0.217-0.838,0.42c-0.485,2.049-2.235,1.799-3.703,2.334c-2.445,0.891-4.692,2.312-7.077,3.388
		c-1.985,0.895-4.052,1.608-6.075,2.419c-0.35,0.14-0.908,0.314-0.96,0.559c-0.399,1.89-1.852,1.597-3.158,1.615
		c-1.4,0.019-2.843-0.196-4.187,0.081c-1.352,0.279-2.607,1.034-3.902,1.586c-0.539,0.229-1.065,0.489-1.608,0.707
		c-1.428,0.572-2.842,1.191-4.303,1.665c-0.738,0.239-1.564,0.209-2.351,0.29c-2.641,0.275-5.52-0.009-7.849,0.991
		c-1.891,0.812-3.64,1.242-5.604,1.361c-3.711,0.225-7.59-0.09-11.092,0.903c-7.803,2.215-15.667,0.778-23.485,1.188
		c-3.786,0.199-7.869,0.784-11.326-0.329c-4.277-1.377-8.556-0.404-12.695-1.426c-2.372-0.586-4.762-0.597-7.182-1.682
		c-2.692-1.206-6.129-0.785-9.248-0.993c-2.701-0.18-4.807-1.758-7.123-2.852c-0.761-0.359-1.507-0.909-2.303-1.001
		c-2.312-0.267-4.662-0.233-6.963-0.554c-0.912-0.127-2.029-0.671-2.545-1.389c-1.372-1.91-3.168-2.657-5.398-2.902
		c-0.825-0.09-1.598-0.685-2.385-1.071c-0.234-0.115-0.448-0.447-0.648-0.428c-2.842,0.258-4.697-2.116-7.224-2.683
		c-0.443-0.099-1.098-0.217-1.243-0.522c-0.718-1.512-1.936-1.818-3.445-1.853c-0.462-0.011-0.903-0.625-1.367-0.945
		c-0.527-0.363-1.062-0.714-1.603-1.054c-0.638-0.401-1.285-0.789-1.932-1.175c-0.559-0.333-1.095-0.85-1.695-0.943
		c-1.194-0.184-2.439-0.077-2.584-1.777c-0.017-0.194-0.533-0.534-0.759-0.492c-2.954,0.559-4.015-1.879-5.616-3.471
		c-0.275-0.273-0.599-0.617-0.945-0.677c-2.126-0.369-2.983-2.352-4.525-3.448c-1.256-0.893-2.604-1.659-3.912-2.479
		c-0.056-0.035-0.156-0.044-0.174-0.09c-1.269-3.229-5.56-3.164-6.913-6.332c-0.151-0.353-0.738-0.766-1.094-0.742
		c-1.69,0.115-2.187-1.075-3.096-2.168c-1.921-2.309-4.251-4.276-6.384-6.413c-0.432-0.433-0.813-0.959-1.08-1.509
		c-0.635-1.305-1.124-2.487-2.875-2.941c-0.941-0.244-1.557-1.763-2.307-2.717c-0.39-0.496-0.743-1.442-1.13-1.451
		c-2.089-0.048-2.263-1.907-3.262-3.026c-2.394-2.683-3.83-6.106-6.955-8.28c-1.232-0.857-1.581-2.952-2.406-4.443
		c-0.357-0.645-0.89-1.195-1.366-1.77c-0.285-0.344-0.685-0.609-0.913-0.984c-0.836-1.379-1.615-2.793-2.429-4.186
		c-1.375-2.353-2.755-4.703-4.142-7.049c-0.993-1.68-2.252-3.256-2.932-5.052c-0.714-1.886-1.388-3.604-2.707-5.259
		c-1.282-1.609-1.602-3.972-2.401-5.981c-2.504-6.296-5.584-12.426-7.406-18.911c-1.953-6.954-4.681-13.749-5.201-21.117
		c-0.239-3.391-1.548-6.693-2.142-10.076c-0.574-3.267-1.128-6.578-1.209-9.882c-0.212-8.661-0.254-17.329-0.18-25.992
		c0.041-4.828,1.655-5.773,5.905-5.775c13.73-0.008,27.461,0.052,41.191,0.078c6.067,0.011,12.134,0.053,18.199-0.041
		c1.164-0.018,2.382-0.465,3.462-0.959c1.629-0.745,3.107-0.114,3.299,1.668c0.384,3.557,0.892,7.102-0.492,10.618
		c-0.361,0.916-0.126,2.113-0.005,3.163c0.209,1.817,0.655,3.61,0.799,5.43c0.32,4.043,0.252,8.133,0.827,12.134
		c0.682,4.747,1.878,9.419,2.84,14.126c0.146,0.713,0.143,1.468,0.369,2.151c0.294,0.885,0.742,1.72,1.136,2.571
		c0.165,0.356,0.393,0.684,0.535,1.047c1.489,3.81,2.981,7.619,4.434,11.443c0.302,0.794,0.513,1.637,0.647,2.477
		c0.181,1.126,0.482,1.967,1.793,2.318c0.586,0.157,1.316,0.994,1.399,1.602c0.373,2.75,1.848,4.826,3.449,6.985
		c1.665,2.244,2.859,4.837,4.28,7.265c0.255,0.435,0.593,1.146,0.92,1.162c1.994,0.098,2.319,1.967,3.389,3.018
		c1.306,1.283,2.586,2.595,3.806,3.958c0.642,0.718,1.287,1.505,1.661,2.377c0.851,1.984,2.208,3.26,4.233,4.042
		c0.83,0.321,1.554,1.169,2.092,1.94c1.526,2.189,4.794,2.522,5.665,5.435c0.142,0.476,0.967,0.817,1.54,1.081
		c1.774,0.817,3.674,1.435,4.406,3.555c0.093,0.268,0.44,0.63,0.68,0.637c3.133,0.095,5,2.505,7.402,3.944
		c1.485,0.889,3.127,1.511,4.672,2.305c0.808,0.415,1.512,1.056,2.345,1.39c1.264,0.507,2.605,0.818,3.902,1.247
		c0.83,0.275,1.643,0.602,2.455,0.929c0.177,0.071,0.303,0.324,0.473,0.348c3.583,0.51,6.472,3.285,10.317,3.077
		c0.959-0.052,1.955,0.742,2.949,1.104c0.542,0.197,1.112,0.409,1.679,0.436c4.525,0.223,9.053,0.373,13.576,0.626
		c0.733,0.041,1.438,0.497,2.167,0.722c0.673,0.207,1.361,0.502,2.046,0.515c2.866,0.057,5.734,0.072,8.599,0.003
		c1.862-0.045,3.853,0.551,5.471-1.076c0.321-0.323,1.148-0.159,1.743-0.193c4.455-0.253,8.911-0.5,13.366-0.748
		c0.067-0.004,0.155,0.021,0.197-0.013c1.863-1.531,4.06-2.191,6.392-2.609c0.853-0.153,1.629-0.71,2.455-1.047
		c0.429-0.175,1.121-0.13,1.299-0.424c1.226-2.023,3.442-1.312,5.126-2.007c2.229-0.919,4.34-2.123,6.498-3.213
		c0.459-0.232,0.898-0.505,1.35-0.751c1.981-1.081,3.985-2.12,5.939-3.249c1.991-1.15,3.93-2.389,5.898-3.579
		c0.165-0.1,0.42-0.076,0.556-0.196c1.896-1.687,3.781-3.387,5.661-5.092c0.241-0.219,0.437-0.705,0.65-0.703
		c2.406,0.025,2.723-2.174,3.877-3.502c1.005-1.156,2.101-2.257,3.279-3.234c4.174-3.46,7.651-7.44,10.141-12.315
		c0.901-1.765,2.59-3.111,3.633-4.823c2.038-3.348,3.873-6.819,5.797-10.236c0.128-0.227,0.259-0.547,0.462-0.621
		c1.467-0.534,1.977-1.639,1.546-3.01c-0.464-1.473-1.253-2.816-3.024-3.081c-1.114-0.167-2.234-0.427-3.35-0.423
		c-10.176,0.035-20.351,0.146-30.527,0.185c-21.13,0.081-42.26,0.142-63.39,0.19c-10.058,0.023-20.117,0.006-30.175-0.005
		c-3.951-0.004-5.008-1.268-4.811-5.26c0.141-2.856,0.027-5.725,0.022-8.588c-0.023-13.132-0.041-26.263-0.076-39.395
		c-0.011-3.99,0.838-4.683,4.846-4.55c4.179,0.139,8.368-0.003,12.552-0.003c61.933-0.002,123.867-0.001,185.8-0.001
		c3.066,0,6.134-0.087,9.197,0.005c3.721,0.112,4.172,0.644,4.18,4.404c0.004,1.666-0.17,3.345-0.011,4.993
		c0.077,0.799,0.735,1.543,1.13,2.311C400,190.8,400,196.4,400,202z"/>
	<path fill="#FFFFFF" d="M0,106.4c0.384-0.593,1.005-1.15,1.103-1.788c0.201-1.307,0.207-2.662,0.138-3.989
		c-0.089-1.682,0.694-2.25,2.268-2.229c1.932,0.026,3.865-0.101,5.797-0.102c20.063-0.009,40.127-0.002,60.19-0.006
		c32.328-0.006,64.656-0.03,96.984-0.023c50.859,0.011,101.718,0.041,152.577,0.066c23.931,0.012,47.863,0.022,71.794,0.051
		c3.337,0.004,5.185,1.452,5.545,4.757c0.193,1.77-0.342,3.62-0.552,5.433c-0.084,0.721-0.254,1.441-0.255,2.162
		c-0.005,12.132-0.003,24.264,0.05,36.396c0.004,0.951,0.29,1.942,0.636,2.841c1.07,2.773-0.866,5.897-3.774,6.026
		c-1.381,0.061-2.968-0.498-3.807,1.347c-0.137,0.302-1.078,0.331-1.648,0.331c-41.13,0.012-82.261-0.003-123.391,0.008
		c-50.196,0.014-100.392,0.044-150.588,0.074c-22.598,0.013-45.196,0.053-67.794,0.059c-11.999,0.003-23.997-0.04-35.996-0.059
		c-0.733-0.001-1.468-0.01-2.199,0.039c-4.002,0.269-5.859-1.265-5.883-5.277c-0.075-12.198-0.04-24.397-0.049-36.596
		c-0.001-1.333,0.092-2.679-0.073-3.993C1.006,111.384,0.375,110.908,0,110.4C0,109.067,0,107.733,0,106.4z"/>
	<path fill="#FFFFFF" d="M237.2,0c0.395,0.223,0.773,0.6,1.187,0.647c7.923,0.888,15.852,1.721,23.773,2.62
		c0.863,0.098,1.68,0.563,2.533,0.806c1.391,0.397,2.78,0.823,4.196,1.106c1.697,0.339,3.309,0.554,5.02,1.273
		c3.757,1.578,7.904,2.218,11.873,3.307c0.941,0.258,1.817,0.762,2.71,1.179c0.356,0.166,0.663,0.547,1.018,0.585
		c3.196,0.345,5.775,1.945,8.224,3.872c0.329,0.258,0.881,0.29,1.337,0.32c3.186,0.209,5.651,1.902,8.009,3.832
		c0.255,0.209,0.522,0.472,0.823,0.545c2.793,0.674,4.955,2.368,7.017,4.242c0.188,0.171,0.494,0.367,0.709,0.331
		c2.574-0.43,3.459,1.82,4.986,3.064c0.652,0.531,1.415,1.228,2.165,1.278c1.811,0.12,2.8,0.98,3.893,2.398
		c1.279,1.659,3.345,2.688,4.797,4.244c1.63,1.745,4.29,2.239,5.337,4.714c0.309,0.731,1.527,1.028,2.167,1.682
		c0.847,0.866,1.545,1.881,2.289,2.846c0.352,0.457,0.605,1.299,0.999,1.361c1.962,0.31,2.299,2.185,3.449,3.248
		c2.111,1.953,3.524,4.7,6.427,5.771c0.242,0.089,0.536,0.216,0.66,0.416c1.472,2.379,2.918,4.774,4.365,7.169
		c0.101,0.167,0.119,0.491,0.238,0.526c3.062,0.893,2.712,4.497,4.844,6.083c1.335,0.993,1.962,2.168,1.929,3.855
		c-0.029,1.511-0.651,2.259-2.117,2.283c-1.998,0.032-3.996,0.014-5.995,0.012c-22.727-0.022-45.455-0.045-68.182-0.067
		c-12.13-0.012-24.26-0.008-36.39-0.065c-0.951-0.005-1.982-0.275-2.836-0.702c-3.676-1.84-7.698-1.612-11.602-2.07
		c-1.12-0.131-2.286,0.059-3.387-0.141c-0.726-0.132-1.369-0.707-2.057-1.068c-0.484-0.254-0.981-0.689-1.472-0.689
		c-6.396-0.001-12.794-0.025-19.186,0.171c-1.476,0.045-2.922,0.91-4.391,1.37c-0.436,0.136-0.898,0.215-1.354,0.254
		c-3.12,0.273-6.301,0.242-9.342,0.884c-2.199,0.464-4.21,1.817-6.308,2.766c-0.522,0.236-1.038,0.556-1.587,0.647
		c-1.903,0.315-3.878,0.348-5.705,0.892c-0.902,0.269-1.523,1.44-2.303,2.169c-0.5,0.467-1.035,1.207-1.595,1.246
		c-2.07,0.145-3.706,0.42-5.686,1.809c-3.34,2.344-7.422,3.66-11.846,3.644c-27.059-0.103-54.119-0.063-81.179-0.017
		c-1.035,0.002-2.123,0.429-3.09,0.868c-1.458,0.662-3.865,0.277-5.24-1.596c-0.698-0.951-1.029-3.408-0.498-3.802
		c1.817-1.352,2.287-3.469,3.614-5.034c0.661-0.779,1.228-1.637,1.846-2.453c2.468-3.26,4.881-6.564,7.431-9.758
		c1.541-1.931,3.476-3.563,4.907-5.563c1.488-2.08,4.643-2.794,4.817-5.956c0.019-0.342,0.71-0.785,1.171-0.941
		c1.989-0.672,3.312-2.045,4.732-3.559c2.283-2.433,4.351-5.104,7.169-7.055c2.18-1.509,4.03-3.487,6.14-5.109
		c1.632-1.255,3.507-2.192,5.142-3.443c1.015-0.777,1.751-1.911,2.676-2.819c0.475-0.466,1.052-1.047,1.647-1.133
		c2.454-0.357,4.316-1.481,5.527-3.662c0.122-0.219,0.379-0.558,0.53-0.536c2.451,0.348,3.951-1.449,5.756-2.526
		c2.085-1.244,4.078-2.651,6.207-3.809c2.001-1.088,4.052-2.449,6.218-2.771c2.537-0.378,4.156-2.169,6.348-2.957
		c0.962-0.345,1.877-0.902,2.864-1.079c2.385-0.428,4.918-0.318,6.809-2.244c0.175-0.178,0.465-0.267,0.717-0.342
		c2.354-0.697,4.727-1.334,7.063-2.089c1.228-0.397,2.381-1.025,3.591-1.485c0.542-0.206,1.138-0.298,1.718-0.373
		c2.106-0.272,4.464,0.003,6.28-0.865c6.112-2.921,12.65-1.24,18.908-2.254c0.74-0.12,1.437-0.5,2.16-0.738
		c0.612-0.201,1.227-0.487,1.855-0.531c2.326-0.162,4.662-0.196,6.986-0.375c0.66-0.051,1.296-0.43,1.942-0.659
		C221.467,0,229.333,0,237.2,0z"/>
</g>
</svg>
