<?xml version="1.0" encoding="utf-8"?>
<!-- Generator: Adobe Illustrator 17.0.1, SVG Export Plug-In . SVG Version: 6.00 Build 0)  -->
<!DOCTYPE svg PUBLIC "-//W3C//DTD SVG 1.1//EN" "http://www.w3.org/Graphics/SVG/1.1/DTD/svg11.dtd">
<svg version="1.1" id="Layer_1" xmlns="http://www.w3.org/2000/svg" xmlns:xlink="http://www.w3.org/1999/xlink" x="0px" y="0px"
	 width="400px" height="276.339px" viewBox="-0.314 -13.028 400 276.339" enable-background="new -0.314 -13.028 400 276.339"
	 xml:space="preserve">
<path fill="#FFFFFF" d="M167.665,29.706v50.307h0.332c7.484-6.418,17.066-9.861,26.923-9.674c25.209,0,41.241,18.851,41.296,44.226
	v107.856c53.812-54.134,53.551-141.641-0.583-195.453C216.963,8.41,193.383-4.43,167.665-10.043V29.706z M184.913,101.02
	c-9.495-0.031-17.218,7.642-17.248,17.137c0,0,0,0,0,0v53.292c0,2.137-1.732,3.87-3.869,3.87c-0.019,0-0.037,0-0.056,0h-27.144
	c-1.78,0-3.232-1.427-3.262-3.206V-13.028C57.046-10.51-2.756,53.375-0.237,129.663s66.403,136.09,142.691,133.572
	c20.754-0.685,41.086-6.038,59.487-15.66V118.158C201.971,108.724,194.347,101.051,184.913,101.02
	C184.913,101.02,184.913,101.02,184.913,101.02z M109.12,170.621c-0.029,1.049-0.65,1.992-1.603,2.432
	c-6.663,3.3-14.015,4.967-21.45,4.865c-29.296,0.916-53.788-22.09-54.705-51.386c-0.014-0.451-0.022-0.902-0.025-1.354
	c0-32.34,24.711-54.674,56.333-54.674c6.793-0.044,13.487,1.629,19.459,4.865c1.208,0.588,1.979,1.808,1.99,3.151v23.053
	c-0.022,1.496-1.252,2.691-2.748,2.669c-0.451-0.007-0.894-0.126-1.287-0.347c-4.326-2.733-9.313-4.243-14.429-4.367
	c-13.372-0.184-24.361,10.506-24.545,23.877c-0.003,0.223-0.003,0.445,0,0.668c-0.445,13.213,9.905,24.284,23.118,24.729
	c0.678,0.023,1.357,0.017,2.035-0.018c4.867-0.051,9.635-1.385,13.821-3.87c1.304-0.733,2.956-0.27,3.689,1.034
	c0.221,0.394,0.34,0.836,0.347,1.287L109.12,170.621z M260.208-12.199h12.439c9.343,0,15.258,3.483,15.258,11.057
	c0.293,4.724-2.781,9.001-7.353,10.227l0,0c5.749,0.413,10.144,5.296,9.951,11.057c0,8.845-6.744,13.434-17.138,13.434h-13.157
	V-12.199z M271.264,8.09c9.398,0,13.268-3.372,13.268-8.735c0-6.523-4.478-8.9-12.936-8.9h-8.403V8.09L271.264,8.09z
	 M272.536,31.198c9.122,0,14.816-3.317,14.816-10.67s-5.528-9.785-14.816-9.785h-9.343v20.455H272.536z M300.398-12.199h25.264
	v2.819h-22.113V8.035h18.464v2.764h-18.409v20.399h22.942v2.819h-26.149V-12.199z M346.338-9.379h-14.705v-2.819h32.617v2.819
	h-14.705v43.286h-3.206L346.338-9.379z M380.226-12.199h3.206l16.253,46.106h-3.372l-5.528-15.811h-18.133l-5.528,15.811h-3.206
	L380.226-12.199z M373.648,15.443h16.585l-2.875-8.679c-1.88-5.528-3.483-10.283-5.086-15.977l0,0
	c-1.659,5.528-3.262,10.504-5.141,15.977L373.648,15.443z"/>
</svg>
