<?xml version="1.0" encoding="utf-8"?>
<!-- Generator: Adobe Illustrator 17.0.1, SVG Export Plug-In . SVG Version: 6.00 Build 0)  -->
<!DOCTYPE svg PUBLIC "-//W3C//DTD SVG 1.1//EN" "http://www.w3.org/Graphics/SVG/1.1/DTD/svg11.dtd">
<svg version="1.1" id="Layer_1" xmlns="http://www.w3.org/2000/svg" xmlns:xlink="http://www.w3.org/1999/xlink" x="0px" y="0px"
	 width="400px" height="141.101px" viewBox="0 0 400 141.101" enable-background="new 0 0 400 141.101" xml:space="preserve">
<g>
	<path fill="#FFFFFF" d="M400,124.551c-34.287-0.002-68.574-0.006-102.861-0.007c-48.884-0.001-97.769,0-146.653,0
		c-0.541,0-1.083,0-1.697,0c0-19.367,0-38.614,0-58.017c0.427-0.021,0.872-0.062,1.317-0.062
		c82.917-0.003,165.833-0.003,248.75-0.001c0.381,0,0.763,0.022,1.144,0.034C400,85.849,400,105.2,400,124.551z M247.764,78.561
		c0.106,0.518,0.163,0.886,0.257,1.244c2.675,10.151,5.354,20.301,8.032,30.451c0.551,2.087,0.551,2.059,2.704,2.095
		c0.834,0.014,1.369-0.081,1.687-1.044c2.005-6.07,4.085-12.116,6.145-18.168c1.017-2.986,2.045-5.967,3.158-9.216
		c0.286,0.799,0.477,1.31,0.652,1.828c2.679,7.942,5.351,15.887,8.034,23.828c0.983,2.91,0.995,2.907,4.082,2.725
		c0.079-0.005,0.154-0.062,0.293-0.122c2.898-11.129,5.806-22.296,8.717-33.475c-2.102-0.333-2.1-0.331-2.559,1.443
		c-1.889,7.295-3.778,14.59-5.672,21.883c-0.662,2.55-1.341,5.096-2.012,7.645c-0.442-0.405-0.589-0.827-0.73-1.252
		c-3.122-9.357-6.247-18.713-9.359-28.073c-0.219-0.659-0.339-1.193-1.289-1.21c-1.009-0.018-1.158,0.547-1.393,1.259
		c-3.092,9.367-6.199,18.728-9.306,28.09c-0.137,0.413-0.309,0.814-0.593,1.557c-0.301-1.113-0.503-1.839-0.695-2.568
		c-2.446-9.29-4.905-18.577-7.311-27.877c-0.217-0.84-0.56-1.14-1.378-1.051C248.78,78.601,248.322,78.561,247.764,78.561z
		 M326.016,95.615c-0.125-0.02-0.25-0.039-0.375-0.059c0-0.847,0.042-1.697-0.006-2.541c-0.485-8.504-5.521-13.873-13.772-14.703
		c-7.113-0.715-13.091,2.841-15.44,9.232c-1.203,3.274-1.579,6.688-1.211,10.132c0.219,2.044,0.561,4.145,1.288,6.052
		c2.72,7.129,9.026,10.076,16.88,8.958c5.786-0.824,9.468-4.325,11.211-9.768C325.343,100.572,325.557,98.055,326.016,95.615z
		 M348.606,98.03c1.749-1.578,3.583-2.907,5.01-4.583c3.84-4.507,3.082-13.001-5.168-14.663c-3.198-0.644-6.568-0.462-9.863-0.589
		c-1.893-0.073-3.792-0.013-5.732-0.013c0,11.536,0,22.797,0,34.067c0.816,0,1.553,0,2.434,0c0-4.601,0-9.116,0-13.734
		c3.28,0,6.413,0.036,9.544-0.022c0.911-0.017,1.456,0.257,1.954,1.027c2.461,3.811,4.981,7.584,7.481,11.369
		c1.052,1.593,1.764,1.825,3.808,1.208C354.848,107.305,351.634,102.529,348.606,98.03z M162.04,78.695c0,11.225,0,22.397,0,33.57
		c0.752,0,1.413,0,2.202,0c0-9.793,0-19.517,0-29.61c0.459,0.623,0.71,0.936,0.932,1.268c6.002,8.989,12.031,17.961,17.966,26.993
		c0.873,1.329,1.815,1.688,3.359,1.263c0-0.479,0-0.978,0-1.476c0-10.138,0-20.276,0-30.414c0-1.926-0.022-1.942-2.199-1.559
		c0,9.734,0,19.496,0,29.258c-0.102,0.037-0.204,0.074-0.306,0.111c-0.249-0.356-0.505-0.708-0.747-1.068
		c-6.066-9.049-12.161-18.078-18.159-27.172C164.276,78.629,163.424,78.343,162.04,78.695z M366.425,112.272
		c0-5.284,0-10.472,0-15.722c1.892,0,3.63,0.052,5.363-0.021c0.908-0.039,1.469,0.283,2.017,0.983
		c3.476,4.443,7.074,8.794,10.456,13.307c1.141,1.523,2.386,1.723,4.123,1.401c-0.288-0.39-0.519-0.728-0.774-1.046
		c-4.031-5.032-8.053-10.072-12.113-15.081c-0.519-0.64-0.546-1.055-0.047-1.729c3.584-4.839,7.124-9.711,10.675-14.575
		c0.236-0.324,0.444-0.668,0.727-1.094c-1.837-0.354-3.09-0.138-4.179,1.539c-2.907,4.48-6.04,8.813-9.106,13.188
		c-0.243,0.347-0.654,0.802-1.001,0.815c-2.021,0.078-4.046,0.038-6.209,0.038c0-5.279,0-10.428,0-15.602c-0.961,0-1.778,0-2.62,0
		c0,11.253,0,22.394,0,33.6C364.6,112.272,365.392,112.272,366.425,112.272z M214.248,78.637c-6.489,0-12.833,0-19.25,0
		c0,11.247,0,22.417,0,33.62c6.556,0,13.024,0,19.508,0c0-0.731,0-1.381,0-2.189c-5.746,0-11.403,0-17.052,0
		c0-4.756,0-9.35,0-14.075c5.429,0,10.754,0,16.048,0c0-0.743,0-1.351,0-2.087c-5.425,0-10.749,0-16.072,0c0-4.438,0-8.744,0-13.213
		c5.649,0,11.218,0,16.818,0C214.248,79.945,214.248,79.36,214.248,78.637z M230.022,80.742c0,10.624,0,21.071,0,31.529
		c0.952,0,1.742,0,2.684,0c0-10.51,0-20.955,0-31.524c3.693,0,7.235,0,10.801,0c0-0.773,0-1.419,0-2.07c-8.165,0-16.231,0-24.334,0
		c0,0.733,0,1.35,0,2.064C222.749,80.742,226.256,80.742,230.022,80.742z"/>
	<path fill="#FFFFFF" d="M80.199,141.101c-6.255-1.125-10.371-5.292-14.056-10c-4.179-5.341-7.309-11.306-10.08-17.468
		c-0.189-0.42-0.381-0.839-0.616-1.356c-1.781,0.678-3.498,1.359-5.234,1.989c-6.112,2.216-12.345,3.973-18.843,4.564
		c-3.692,0.336-7.375,0.24-10.914-1.11c-4.905-1.872-7.562-6.323-7.099-11.536c0.458-5.16,2.474-9.733,4.973-14.147
		c0.43-0.759,0.609-1.308,0.074-2.159c-0.883-1.402-0.75-2.936,0.151-4.329c0.96-1.483,2.381-2.2,4.127-1.946
		c0.869,0.126,1.282-0.182,1.744-0.818c1.095-1.508,2.265-2.962,3.499-4.561c-0.324-0.253-0.636-0.509-0.96-0.748
		c-6.367-4.705-12.45-9.745-17.186-16.147c-1.793-2.424-3.014-5.268-4.536-7.897c-0.224-0.387-0.619-0.777-1.025-0.939
		c-3.182-1.271-4.844-4.375-3.997-7.575c0.848-3.206,3.811-5.096,7.206-4.631c0.416,0.057,0.964,0.074,1.272-0.144
		c3.876-2.741,8.324-3.717,12.915-4.172c7.219-0.716,14.398-0.192,21.546,0.922c0.335,0.052,0.675,0.075,1.013,0.096
		c0.162,0.01,0.326-0.015,0.518-0.026c0.459-2.697,0.951-5.354,1.323-8.028c0.054-0.387-0.382-0.963-0.745-1.268
		c-4.292-3.606-4.395-9.992-0.006-13.383c1.276-0.986,3.01-1.487,4.615-1.896c0.853-0.217,1.283-0.506,1.642-1.251
		c1.347-2.803,2.956-5.437,5.204-7.633c4.137-4.041,9.249-4.623,14.161-1.565c3.727,2.32,6.387,5.665,8.741,9.28
		c3.651,5.605,6.33,11.682,8.643,17.935c0.102,0.275,0.22,0.543,0.39,0.959c0.513-0.239,0.992-0.458,1.467-0.685
		c6.712-3.202,13.581-5.945,20.981-7.106c3.117-0.489,6.236-0.586,9.357,0.074c6.698,1.417,9.926,6.457,9.52,13.018
		c-0.414,6.696-3.185,12.606-6.452,18.289c-1.179,2.05-2.029,3.686-0.645,6.144c1.337,2.374,0.848,5.239-0.4,8.472
		c1.349,1.089,2.749,2.17,4.096,3.314c3.928,3.338,7.594,6.921,10.14,11.474c1.802,3.223,2.909,6.625,1.948,10.354
		c-1.046,4.062-3.942,6.514-7.551,8.255c-3.945,1.902-8.174,2.739-12.49,3.217c-6.008,0.666-12.019,0.597-18.031,0.051
		c-0.376-0.034-0.757-0.004-1.277-0.004c-0.239,2.327-0.498,4.666-0.694,7.01c-0.02,0.239,0.293,0.571,0.532,0.755
		c1.617,1.247,2.396,2.877,2.061,4.89c-0.343,2.057-1.61,3.38-3.602,4.059c-0.374,0.128-0.763,0.567-0.91,0.952
		c-1.204,3.157-2.197,6.404-3.564,9.487c-1.32,2.978-3.318,5.572-6.199,7.234c-1.364,0.787-2.962,1.168-4.454,1.734
		C81.727,141.101,80.963,141.101,80.199,141.101z M75.473,46.903c-1.966-0.651-4.016-1.307-6.049-2.014
		c-0.703-0.244-1.251-0.179-1.864,0.281c-4.51,3.382-9.022,6.765-13.589,10.07c-1.118,0.809-1.432,1.705-1.252,3.008
		c1.135,8.18,2.23,16.365,3.328,24.55c0.1,0.744,0.422,1.19,1.168,1.456c5.781,2.061,11.555,4.144,17.315,6.264
		c0.784,0.289,1.331,0.17,1.954-0.339c6.27-5.126,12.547-10.243,18.851-15.327c0.792-0.639,1.053-1.33,0.901-2.297
		c-0.916-5.813-1.793-11.632-2.748-17.438c-0.077-0.471-0.555-1.037-0.997-1.257c-1.742-0.867-3.554-1.592-5.319-2.415
		c-0.728-0.339-1.179-0.354-1.8,0.355c-1.449,1.653-3.361,2.24-5.525,1.694c-2.101-0.53-3.499-1.877-4.09-3.953
		C75.528,48.743,75.567,47.869,75.473,46.903z M32.392,72.75c3.867-3.802,7.589-7.444,11.276-11.122
		c0.246-0.245,0.302-0.759,0.31-1.151c0.11-6.053,0.189-12.108,0.298-18.161c0.019-1.079,0.142-2.157,0.219-3.267
		c-6.049-0.906-12.005-1.316-17.986-1.004c-4.194,0.219-8.357,0.777-12.261,2.474c-1.099,0.478-2.126,1.118-3.195,1.688
		c2.606,4.197,2.037,6.754-2.209,10.297C14.303,62.064,23.422,67.339,32.392,72.75z M52.164,29.487
		c-0.105,2.601-0.172,5.14-0.328,7.673c-0.06,0.966,0.31,1.265,1.216,1.482c4.607,1.102,9.199,2.268,13.778,3.479
		c0.779,0.206,1.32,0.106,1.992-0.307c5.229-3.216,10.485-6.388,15.74-9.561c0.717-0.433,1.477-0.797,2.315-1.245
		c-3.237-8.067-6.672-15.94-12.623-22.36c-1.531-1.651-3.385-3.106-5.327-4.25c-3.402-2.004-6.59-1.378-9.306,1.476
		c-2.085,2.19-3.355,4.843-4.327,7.649C61.994,18.371,59.783,27.685,52.164,29.487z M25.469,84.892
		c2.292,3.877,0.454,7.216-3.833,7.315c-0.328,0.008-0.794,0.281-0.949,0.566c-2.176,4.009-3.963,8.182-4.288,12.788
		c-0.341,4.831,1.55,8.375,6.913,9.039c2.442,0.303,5.014,0.242,7.442-0.166c7.657-1.284,14.562-4.631,21.346-8.247
		c0.714-0.381,0.644-0.763,0.444-1.41c-1.386-4.485-2.759-8.975-4.052-13.487c-0.237-0.828-0.652-1.244-1.359-1.651
		c-5.612-3.232-11.195-6.514-16.788-9.78c-0.242-0.141-0.489-0.276-0.809-0.456C28.153,81.271,26.819,83.071,25.469,84.892z
		 M62.466,109.324c2.348,7.092,5.014,14.193,9.618,20.334c1.502,2.004,3.363,3.851,5.383,5.328c3.347,2.448,6.416,2.012,9.37-0.892
		c0.602-0.592,1.16-1.244,1.654-1.929c2.284-3.168,3.725-6.733,4.778-10.463c0.092-0.325-0.141-0.871-0.402-1.144
		c-2.791-2.926-1.827-7.152,1.948-8.512c0.34-0.122,0.804-0.447,0.854-0.739c0.329-1.919,0.549-3.857,0.828-5.785
		c0.101-0.698-0.164-0.944-0.855-1.072c-5.992-1.109-11.975-2.265-17.966-3.381c-0.371-0.069-0.849-0.036-1.166,0.145
		C71.879,103.863,67.266,106.545,62.466,109.324z M116.285,52.907c3.034-4.11,5.936-8.345,7.603-13.246
		c0.672-1.976,1.11-4.107,1.202-6.188c0.158-3.543-1.541-5.787-4.941-6.788c-1.562-0.46-3.237-0.683-4.869-0.735
		c-5.589-0.177-10.913,1.246-16.137,3.034c-3.229,1.105-6.39,2.406-9.341,3.527c1.723,6.647,3.37,13.03,5.05,19.406
		c0.094,0.357,0.378,0.787,0.693,0.944c2.685,1.338,5.398,2.62,8.098,3.917C107.235,52.743,110.939,51.706,116.285,52.907z
		 M120.732,70.976c-0.222,0.133-0.343,0.18-0.431,0.262c-3.067,2.848-6.619,3.752-10.696,2.772c-0.392-0.094-1.027,0.216-1.35,0.538
		c-2.791,2.783-5.559,5.591-8.272,8.45c-0.403,0.425-0.689,1.155-0.684,1.74c0.032,3.559,0.166,7.117,0.261,10.676
		c0.015,0.578,0.002,1.157,0.002,1.774c1.602,0.275,3.053,0.554,4.513,0.771c6.514,0.966,13.042,1.626,19.616,0.618
		c3.037-0.466,5.984-1.23,8.462-3.184c2-1.577,2.861-3.652,2.42-6.17c-0.188-1.075-0.475-2.166-0.924-3.156
		C130.8,79.779,125.803,75.338,120.732,70.976z M70.698,42.893c0.044,0.141,0.089,0.282,0.133,0.424
		c1.793,0.602,3.587,1.203,5.349,1.794c2.212-2.623,4.403-3.463,6.93-2.507c2.952,1.116,4.027,3.432,3.729,6.512
		c1.929,0.808,3.818,1.599,5.707,2.39c0.117-0.068,0.234-0.135,0.351-0.203c-1.653-5.898-3.306-11.797-5.055-18.037
		C81.885,36.611,76.292,39.752,70.698,42.893z M52.326,54.002c4.579-3.492,8.906-6.79,13.488-10.283
		c-4.71-1.169-9.227-2.29-14.034-3.483C51.968,44.973,52.142,49.378,52.326,54.002z M45.844,79.463
		c-0.618-5.292-1.203-10.297-1.825-15.62c-3.312,3.378-6.448,6.577-9.749,9.944C38.279,75.753,41.976,77.566,45.844,79.463z
		 M98.264,72.184c1.422-1.361,2.732-2.598,4.013-3.863c0.136-0.134,0.205-0.48,0.134-0.66c-1.141-2.889-1.099-5.777,0.087-8.783
		c-2.255-1.173-4.444-2.312-6.835-3.556C96.546,61.052,97.387,66.497,98.264,72.184z M97.094,85.734
		c-3.507,2.886-6.839,5.628-10.326,8.497c3.516,0.842,6.826,1.635,10.326,2.474C97.094,92.951,97.094,89.433,97.094,85.734z
		 M60.148,101.442c2.025-1.317,3.872-2.519,5.916-3.849c-2.632-0.974-5.005-1.852-7.567-2.8
		C59.065,97.079,59.58,99.154,60.148,101.442z"/>
	<path fill="#FFFFFF" d="M400,59.114c-2.658,0-5.316,0-8.139,0c0-9.459,0-18.841,0-28.224c-0.117-0.037-0.235-0.075-0.352-0.112
		c-0.209,0.4-0.469,0.782-0.619,1.203c-3.071,8.613-6.153,17.223-9.159,25.859c-0.377,1.083-0.861,1.463-1.976,1.373
		c-1.265-0.102-2.548-0.083-3.816-0.004c-0.926,0.058-1.323-0.29-1.625-1.157c-2.953-8.475-5.954-16.933-8.943-25.396
		c-0.177-0.501-0.375-0.995-0.759-1.454c0,9.261,0,18.522,0,27.885c-2.661,0-5.219,0-7.871,0c0-14.06,0-28.116,0-42.33
		c2.703,0,5.362,0,8.021,0c3.229,0,3.25-0.007,4.285,3.034c3.015,8.855,6.011,17.717,9.016,26.576
		c0.16,0.473,0.328,0.944,0.618,1.777c0.828-2.415,1.542-4.49,2.251-6.567c2.694-7.891,5.403-15.777,8.059-23.681
		c0.292-0.869,0.672-1.186,1.599-1.16c3.135,0.086,6.273,0.082,9.409,0.112C400,30.936,400,45.025,400,59.114z"/>
	<path fill="#FFFFFF" d="M148.786,59.011c0-14.08,0-28.191,0-42.624c4.974-0.088,9.922-0.322,14.862-0.205
		c2.599,0.062,5.243,0.509,7.762,1.178c7.672,2.038,11.925,7.256,13.14,14.982c0.61,3.875,0.632,7.786-0.342,11.625
		c-2.093,8.243-8.43,14.045-16.956,14.799c-6.022,0.532-12.114,0.285-18.174,0.38C149.004,59.147,148.929,59.08,148.786,59.011z
		 M157.18,24.109c0,9.114,0,18.088,0,27.45c3.473-0.33,6.935-0.225,10.155-1.057c6.281-1.623,9.74-7.758,9.006-14.831
		c-0.409-3.943-1.825-7.32-5.332-9.498C166.7,23.497,161.94,23.907,157.18,24.109z"/>
	<path fill="#FFFFFF" d="M249.082,37.107c0.34,0.144,0.643,0.267,0.942,0.399c4.169,1.842,6.028,5.223,5.755,9.771
		c-0.465,7.748-6.149,10.852-11.465,11.522c-3.64,0.459-7.359,0.312-11.044,0.381c-2.701,0.05-5.405,0.01-8.176,0.01
		c0-14.168,0-28.19,0-42.389c2.731-0.073,5.429-0.215,8.126-0.199c3.981,0.024,7.997-0.138,11.933,0.328
		c4.622,0.548,8.096,3.018,9.312,7.805c1.194,4.703-0.492,10.196-5.062,12.081C249.294,36.86,249.218,36.98,249.082,37.107z
		 M232.854,51.951c2.523,0,4.936,0.054,7.344-0.025c1.089-0.036,2.201-0.227,3.247-0.537c2.865-0.85,4.109-2.599,4.084-5.526
		c-0.022-2.576-1.318-4.588-4.137-5.014c-3.434-0.52-6.967-0.389-10.538-0.543C232.854,44.325,232.854,48.04,232.854,51.951z
		 M232.781,34.454c2.949,0,5.74,0.01,8.53-0.003c2.75-0.013,4.923-1.866,5.204-4.41c0.35-3.167-1.128-5.49-4.069-6.069
		c-1.395-0.275-2.862-0.215-4.298-0.245c-1.759-0.037-3.52-0.009-5.305-0.009c-0.029,0.568-0.06,0.902-0.06,1.237
		C232.78,28.046,232.781,31.138,232.781,34.454z"/>
	<path fill="#FFFFFF" d="M339.906,16.807c2.933,0,5.72,0,8.604,0c0.027,0.411,0.07,0.779,0.071,1.147
		c0.044,8.566-0.088,17.137,0.167,25.697c0.301,10.108-6.48,15.687-15.439,16.182c-4.217,0.233-8.297-0.299-11.975-2.602
		c-4.053-2.538-6.273-6.295-6.318-10.982c-0.093-9.665,0.121-19.332,0.213-28.998c0.001-0.118,0.062-0.236,0.114-0.421
		c2.867,0,5.73,0,8.641,0c0,2.993,0.011,5.946-0.002,8.899c-0.028,6.53-0.145,13.061-0.066,19.589
		c0.032,2.605,1.417,4.594,3.858,5.672c2.692,1.189,5.462,1.22,8.144,0.047c2.89-1.264,4.058-3.674,4.046-6.75
		c-0.028-6.913-0.041-13.826-0.057-20.739C339.901,21.349,339.906,19.151,339.906,16.807z"/>
	<path fill="#FFFFFF" d="M218.111,16.845c0,2.276,0,4.502,0,6.867c-6.237,0-12.448,0-18.767,0c0,3.537,0,6.939,0,10.501
		c5.933,0,11.846,0,17.824,0c0,2.382,0,4.606,0,6.953c-5.954,0-11.834,0-17.824,0c0,3.614,0,7.106,0,10.759
		c6.334,0,12.668,0,19.071,0c0,2.469,0,4.779,0,7.177c-9.133,0-18.228,0-27.418,0c0-14.061,0-28.115,0-42.257
		C200.026,16.845,209.031,16.845,218.111,16.845z"/>
	<path fill="#FFFFFF" d="M310.368,16.854c0,2.365,0,4.645,0,7.048c-4.017,0-8.025,0-12.204,0c0,11.794,0,23.465,0,35.211
		c-3.035,0-5.899,0-8.889,0c0-11.662,0-23.305,0-35.092c-4.167,0-8.213,0-12.346,0c0-2.452,0-4.761,0-7.167
		C288.053,16.854,299.141,16.854,310.368,16.854z"/>
	<path fill="#FFFFFF" d="M262.856,16.827c2.94,0,5.807,0,8.767,0c0,14.074,0,28.125,0,42.27c-2.903,0-5.798,0-8.767,0
		C262.856,45,262.856,30.948,262.856,16.827z"/>
	<path fill="#FFFFFF" d="M323.317,95.584c-0.296,3.043-0.705,5.962-2.152,8.639c-2.533,4.688-6.557,6.644-11.782,6.326
		c-4.733-0.288-8.065-2.692-9.937-6.969c-2.166-4.95-2.181-10.076-0.405-15.123c1.836-5.216,6.237-8.064,11.773-7.935
		c5.465,0.128,9.55,3.123,11.215,8.495C322.686,91.136,322.901,93.391,323.317,95.584z"/>
	<path fill="#FFFFFF" d="M335.303,96.276c0-5.332,0-10.487,0-15.796c4.215-0.036,8.411-0.707,12.506,0.511
		c5.796,1.725,7.336,7.813,3.168,12.236c-1.907,2.024-4.078,3.284-7.037,3.088C341.121,96.13,338.28,96.276,335.303,96.276z"/>
</g>
</svg>
