<?xml version="1.0" encoding="utf-8"?>
<!-- Generator: Adobe Illustrator 17.0.1, SVG Export Plug-In . SVG Version: 6.00 Build 0)  -->
<!DOCTYPE svg PUBLIC "-//W3C//DTD SVG 1.1//EN" "http://www.w3.org/Graphics/SVG/1.1/DTD/svg11.dtd">
<svg version="1.1" id="Layer_1" xmlns="http://www.w3.org/2000/svg" xmlns:xlink="http://www.w3.org/1999/xlink" x="0px" y="0px"
	 width="400px" height="95.458px" viewBox="0 0 400 95.458" enable-background="new 0 0 400 95.458" xml:space="preserve">
<path fill="#FFFFFF" d="M95.344,43.714c0,2.627,0,5.253,0,7.88c-0.188,1.277-0.346,2.559-0.567,3.83
	c-1.568,8.989-5.268,16.975-11.288,23.856c-0.9,1.029-1.885,1.984-2.898,3.044c-0.437-0.603-0.722-0.985-0.995-1.375
	c-6.765-9.674-12.218-20.085-16.778-30.932C57.087,36.381,53.121,22.15,49.377,7.862c-0.542-2.07-1.119-4.131-1.68-6.196
	c-0.427,0.408-0.57,0.793-0.69,1.184c-2.626,8.566-5.245,17.134-7.874,25.699c-5,16.292-11.764,31.8-20.634,46.37
	c-1.372,2.254-2.77,4.492-4.201,6.812c-0.331-0.262-0.513-0.376-0.658-0.526C7.266,74.601,2.943,66.884,1.06,57.866
	c-0.433-2.074-0.711-4.18-1.06-6.272c0-2.539,0-5.078,0-7.617c0.087-0.285,0.207-0.565,0.255-0.856
	c0.335-2.05,0.537-4.131,1.001-6.151c2.598-11.315,8.56-20.51,17.861-27.425C30.075,1.399,42.418-1.51,55.858,0.73
	c9.274,1.546,17.399,5.649,24.288,12.085c7.267,6.788,12.001,15.05,14.135,24.77C94.725,39.608,94.994,41.67,95.344,43.714z
	 M50.693,95.458c2.268-0.351,4.548-0.643,6.801-1.072c1.706-0.325,3.379-0.826,4.978-1.226c-5.095-15.265-10.1-30.264-15.106-45.263
	c-0.151-0.002-0.302-0.004-0.453-0.006c-5.287,14.814-10.574,29.627-15.894,44.534c3.051,1.233,6.356,2.061,9.761,2.501
	c1.636,0.211,3.281,0.357,4.922,0.532C47.366,95.458,49.029,95.458,50.693,95.458z M400,32.51c-2.069,0-4.139,0-6.322,0
	c-0.378,6.937,0.223,13.518-0.648,20.037c-3.661-5.414-6.94-10.822-10.188-16.248c-2.559-4.274-2.72-4.363-7.904-3.412
	c0,10.831,0,21.696,0,32.663c1.984,0,3.769,0,5.767,0c0-3.441,0-6.7,0-9.959c0-3.201,0-6.402,0-9.603
	c0.261-0.061,0.522-0.123,0.782-0.184c0.503,0.606,1.076,1.168,1.497,1.826c2.742,4.278,5.74,8.427,8.082,12.916
	c2.001,3.835,4.426,6.088,8.932,5.251C400,54.702,400,43.606,400,32.51z M296.103,31.502c-0.398,0.199-0.787,0.42-1.196,0.592
	c-2.588,1.09-5.536,1.696-7.712,3.331c-10.604,7.966-8.811,23.644,3.275,29.389c2.063,0.981,4.42,1.344,6.642,1.993
	c0.504,0,1.009,0,1.513,0c0.409-0.186,0.819-0.37,1.228-0.558c2.991-1.376,6.016-2.686,8.945-4.185
	c0.573-0.294,1.203-1.419,1.07-1.988c-0.582-2.495-3.945-3.579-6.08-1.999c-3.152,2.332-6.676,2.871-10.166,1.472
	c-4.367-1.749-6.897-5.277-7.106-10.037c-0.213-4.84,2.258-8.436,6.488-10.424c3.973-1.867,7.923-1.277,11.416,1.673
	c0.566,0.478,1.778,0.821,2.365,0.542c3.587-1.706,3.814-3.667,0.767-5.986c-0.979-0.745-2.107-1.334-3.24-1.828
	c-1.693-0.739-3.451-1.331-5.181-1.986C298.12,31.502,297.112,31.502,296.103,31.502z M115.039,43.102
	c1.421-0.027,2.872,0.106,4.253-0.145c0.727-0.132,1.93-0.978,1.898-1.43c-0.252-3.597,2.17-3.089,4.341-3.034
	c4.861,0.123,9.656,3.734,10.697,8.05c1.216,5.043-1.173,10.252-6.183,12.325c-2.133,0.883-4.699,0.799-7.082,0.973
	c-1.822,0.133-2.272,1.124-2.159,2.679c0.109,1.49-0.569,3.476,1.912,3.639c5.846,0.385,11.293-0.887,15.305-5.349
	c4.802-5.341,6.208-11.606,3.091-18.341c-2.922-6.313-7.944-9.736-15.001-9.883c-3.689-0.077-7.381-0.053-11.072-0.075
	C115.039,36.041,115.039,39.571,115.039,43.102z M198.933,53.023c-0.254-0.419-0.514-0.834-0.762-1.257
	c-3.044-5.187-6.222-10.302-9.07-15.595c-1.429-2.655-3.032-4.127-6.228-3.653c-1.461,0.217-2.072,0.561-2.066,2.094
	c0.038,9.747,0.041,19.495-0.013,29.242c-0.015,2.661,1.766,2.256,3.435,2.337c1.761,0.086,2.875-0.19,2.812-2.398
	c-0.138-4.786-0.07-9.578-0.085-14.367c-0.003-1.121-0.001-2.242-0.001-3.363c0.256-0.074,0.512-0.148,0.768-0.222
	c0.461,0.601,0.97,1.171,1.376,1.807c3.592,5.632,7.232,11.234,10.711,16.935c1.427,2.338,3.528,1.627,5.368,1.354
	c0.504-0.075,1.025-2.025,1.035-3.12c0.083-9.075,0.051-18.15,0.043-27.226c-0.001-0.899-0.078-1.799-0.134-3.01
	c-1.178,0-2.172,0.097-3.141-0.019c-2.346-0.282-3.355,0.496-3.184,3.035c0.214,3.179,0.068,6.383,0.073,9.576
	c0.004,2.477,0.001,4.953,0.001,7.43C199.557,52.744,199.245,52.883,198.933,53.023z M152.423,32.54
	c-2.273-0.05-2.898,0.793-2.881,2.882c0.066,8.143,0.033,16.287,0.045,24.43c0.002,1.342,0.018,2.685,0.077,4.026
	c0.07,1.606,0.818,2.313,2.55,2.29c6.295-0.085,12.594-0.107,18.889,0.002c2.294,0.04,2.34-1.232,2.321-2.894
	c-0.018-1.593,0.137-2.992-2.247-2.914c-4.277,0.141-8.564-0.059-12.843,0.057c-2.667,0.072-3.054-1.455-2.975-3.541
	c0.074-1.961-0.469-4.275,2.789-4.142c3.093,0.127,6.19,0.151,9.286,0.2c2.026,0.032,2.496-1.116,2.402-2.944
	c-0.089-1.733-0.368-2.886-2.531-2.797c-3.185,0.131-6.382,0.099-9.567-0.043c-0.703-0.031-1.853-0.716-1.967-1.271
	c-0.35-1.7-0.367-3.483-0.379-5.234c-0.01-1.576,0.715-2.378,2.482-2.315c3.438,0.123,6.883,0.053,10.325,0.055
	c5.253,0.003,5.333-0.095,4.457-5.794C165.828,32.593,159.123,32.688,152.423,32.54z M252.423,61.908
	c0.381-1.361,0.892-2.699,1.126-4.084c0.276-1.637,1.133-2.296,2.735-2.274c2.435,0.033,4.875,0.063,7.307-0.039
	c1.565-0.066,2.29,0.65,2.642,2.064c0.564,2.263,1.108,4.537,1.844,6.746c0.243,0.731,0.971,1.691,1.618,1.816
	c1.426,0.275,2.941,0.085,4.39,0.085c0.082-0.591,0.197-0.859,0.14-1.081c-2.676-10.323-5.334-20.652-8.127-30.943
	c-0.186-0.686-1.378-1.499-2.152-1.554c-2.675-0.188-5.381-0.197-8.053,0.018c-0.773,0.062-1.923,0.976-2.128,1.714
	c-2.897,10.416-5.66,20.87-8.507,31.506C250.553,66.944,251.103,66.618,252.423,61.908z M257.517,50.359
	c-1.173-0.012-1.931-0.306-1.51-1.806c0.809-2.879,1.425-5.812,2.264-8.681c0.166-0.567,0.904-1.132,1.504-1.347
	c0.366-0.132,1.313,0.303,1.419,0.658c1.061,3.545,2.001,7.127,3.108,11.183C261.516,50.365,259.516,50.38,257.517,50.359z
	 M223.65,56.957c-0.004,1.596-0.023,3.192-0.021,4.788c0.004,4.6,0.006,4.536,4.716,4.518c1.873-0.007,2.369-0.607,2.322-2.524
	c-0.181-7.436-0.111-14.878-0.192-22.317c-0.021-1.946,0.313-3.301,2.741-3.087c1.667,0.147,3.358,0.007,5.038,0.025
	c2.479,0.027,2.159-1.737,2.236-3.343c0.077-1.601-0.263-2.489-2.18-2.468c-7.56,0.085-15.121,0.024-22.681,0.065
	c-0.593,0.003-1.671,0.325-1.694,0.574c-0.127,1.385-0.242,2.87,0.162,4.157c0.17,0.542,1.598,0.866,2.491,0.966
	c1.41,0.159,2.858,0.134,4.278,0.03c2.042-0.15,2.885,0.616,2.818,2.737c-0.119,3.777-0.033,7.559-0.033,11.34
	C223.651,53.933,223.654,55.445,223.65,56.957z M332.162,66.318c10.531,0.162,17.416-7.784,17.703-16.901
	c0.292-9.287-7.039-17.65-17.916-17.547c-9.524,0.09-17.098,8.531-16.592,17.244C315.34,58.779,322.665,66.171,332.162,66.318z
	 M332.936,60.365c-6.316,0.049-11.668-5.098-11.66-11.236c0.007-5.98,5.238-11.317,11.171-11.156
	c6.885,0.187,11.302,5.277,11.175,11.312C344.208,54.694,338.26,60.323,332.936,60.365z M364.58,34.532
	c-0.007-0.694-0.275-1.943-0.559-1.984c-1.635-0.235-3.408-0.518-4.928-0.076c-0.667,0.194-1.174,2.061-1.191,3.177
	c-0.105,7.143-0.056,14.288-0.052,21.432c0.001,2.185,0.001,4.371,0.039,6.556c0.058,3.324,2.573,2.278,4.413,2.475
	c2.012,0.215,2.363-0.859,2.336-2.582c-0.076-4.874-0.027-9.75-0.03-14.625C364.605,44.114,364.628,39.323,364.58,34.532z"/>
</svg>
