<?xml version="1.0" encoding="utf-8"?>
<!-- Generator: Adobe Illustrator 17.0.1, SVG Export Plug-In . SVG Version: 6.00 Build 0)  -->
<!DOCTYPE svg PUBLIC "-//W3C//DTD SVG 1.1//EN" "http://www.w3.org/Graphics/SVG/1.1/DTD/svg11.dtd">
<svg version="1.1" id="Layer_1" xmlns="http://www.w3.org/2000/svg" xmlns:xlink="http://www.w3.org/1999/xlink" x="0px" y="0px"
	 width="400px" height="83.321px" viewBox="0 0 400 83.321" enable-background="new 0 0 400 83.321" xml:space="preserve">
<path fill="#FFFFFF" d="M33.214,0c2.103,0.256,4.226,0.403,6.306,0.784c17.917,3.278,31.154,16.953,33.843,34.905
	c3.156,21.075-10.344,41.258-31.033,46.303c-2.256,0.55-4.603,0.725-6.906,1.084c-0.359,0.056-0.71,0.163-1.065,0.246
	c-11.453,0-22.906,0-34.359,0C0,55.548,0,27.774,0,0C11.071,0,22.143,0,33.214,0z M13.001,70.03c0.446,0.032,0.728,0.069,1.01,0.069
	c6.394,0.003,12.789,0.021,19.183-0.013c1.235-0.007,2.481-0.137,3.7-0.344c15.761-2.677,26.09-17.192,23.49-32.978
	c-2.046-12.424-12.85-22.561-25.34-23.289c-7.181-0.418-14.4-0.182-21.603-0.232c-0.127-0.001-0.255,0.097-0.44,0.172
	C13.001,32.246,13.001,51.074,13.001,70.03z M335.29,0c-0.048,0.662-0.139,1.323-0.139,1.985
	c-0.008,16.262-0.007,32.525-0.006,48.787c0.001,13.681,8.526,25.936,21.386,30.527c2.568,0.917,5.305,1.36,7.964,2.022
	c2.1,0,4.199,0,6.299,0c2.294-0.541,4.663-0.873,6.87-1.658c12.554-4.466,19.846-13.382,22.067-26.491
	c0.045-0.264,0.177-0.513,0.269-0.77c0-18.134,0-36.268,0-54.402c-4.295,0-8.59,0-12.885,0c-0.016,0.666-0.046,1.333-0.046,1.999
	c-0.003,15.689,0.002,31.377-0.01,47.066c-0.001,1.236-0.067,2.477-0.186,3.708c-1.016,10.492-9.936,17.943-20.77,17.37
	c-9.783-0.517-17.926-9.242-17.928-19.219c-0.003-16.975-0.001-33.95-0.001-50.925C343.88,0,339.585,0,335.29,0z M284.61,0
	c-3.551,8.161-7.107,16.32-10.653,24.484c-3.528,8.124-7.044,16.252-10.569,24.377c-0.168,0.387-0.371,0.76-0.658,1.346
	c-0.299-0.662-0.525-1.148-0.738-1.64c-6.816-15.73-13.63-31.461-20.452-47.189c-0.207-0.476-0.49-0.92-0.738-1.378
	c-4.581,0-9.162,0-13.744,0c0.198,0.715,0.314,1.466,0.605,2.141c10.195,23.604,20.407,47.201,30.617,70.798
	c1.448,3.346,2.902,6.689,4.444,10.242c0.301-0.637,0.513-1.054,0.699-1.483c10.515-24.295,21.032-48.59,31.536-72.89
	c1.263-2.921,2.456-5.872,3.681-8.809C293.963,0,289.287,0,284.61,0z M185.866,66.187c9.165-12.975,10.351-26.928,4.169-41.495
	c-1.965-4.629-7.676-5.447-10.921-1.672c-1.831,2.129-2.007,4.553-0.876,7.09c2.461,5.519,3.232,11.253,1.99,17.18
	c-3.737,17.839-22.321,27.423-39.065,20.186c-3.826-1.654-7.62-0.316-9.12,3.215c-1.469,3.457,0.161,7.026,3.97,8.703
	c5.309,2.337,10.859,3.521,16.662,3.504C166.025,82.894,178.302,76.896,185.866,66.187z M122.01,13.397
	c-6.804,7.36-10.363,16.133-10.838,26.108c-0.32,6.721,0.955,13.186,3.852,19.288c1.305,2.749,3.898,4.07,6.937,3.641
	c2.635-0.372,5.049-2.64,5.282-5.45c0.12-1.439-0.244-3.045-0.815-4.395c-5.362-12.676-1.042-27.312,10.541-34.726
	c8.372-5.359,17.282-6.037,26.479-2.227c1.868,0.774,3.706,1.266,5.661,0.47c2.571-1.047,4.096-2.943,4.242-5.741
	c0.145-2.789-1.087-4.921-3.606-6.14c-5.537-2.677-11.421-3.892-15.875-3.938C140.588,0.285,129.86,4.904,122.01,13.397z"/>
</svg>
