<?xml version="1.0" encoding="utf-8"?>
<!-- Generator: Adobe Illustrator 17.0.1, SVG Export Plug-In . SVG Version: 6.00 Build 0)  -->
<!DOCTYPE svg PUBLIC "-//W3C//DTD SVG 1.1//EN" "http://www.w3.org/Graphics/SVG/1.1/DTD/svg11.dtd">
<svg version="1.1" id="Layer_1" xmlns="http://www.w3.org/2000/svg" xmlns:xlink="http://www.w3.org/1999/xlink" x="0px" y="0px"
	 width="400px" height="66.485px" viewBox="0 0 400 66.485" enable-background="new 0 0 400 66.485" xml:space="preserve">
<path fill="#FFFFFF" d="M200.434,24.418c1.533,1.433,2.895,2.712,4.427,4.145c0.232-0.127,0.463-0.254,0.695-0.381
	c4.41-11.02,10.343-20.928,20.242-28.182c0.141,0.335,0.267,0.542,0.318,0.766c1.096,4.867,4.175,8.292,8.028,11.192
	c0.785,0.591,1.382,0.499,2.151,0.074c1.482-0.819,3.004-1.567,4.671-2.427c0.136,1.623,0.177,3.088,0.396,4.526
	c0.398,2.605,1.504,4.733,3.659,6.49c5.198,4.238,7.028,10.005,6.763,16.535c-0.084,2.064-0.342,4.122-0.545,6.467
	c1.61-0.699,3.127-1.357,5.216-2.264c-0.642,2.851-0.988,5.359-1.776,7.719c-3.457,10.359-11.582,16.551-22.517,17.28
	c-6.487,0.432-12.811-0.115-18.577-3.518c-6.097-3.599-9.544-9.182-11.538-15.757c-2.269-7.479-2.362-14.957-1.6-22.663
	 M212.252,46.445c0.756,4.349,2.265,8.03,5.399,10.851c4.522,4.072,9.929,4.364,15.515,3.19c4.615-0.97,7.914-3.779,10.005-8.006
	c1.515-3.063,2.226-6.333,2.388-9.715c0.105-2.198,0.02-4.404,0.02-6.607c-0.197-0.067-0.395-0.133-0.592-0.2
	c-0.323,0.412-0.607,0.865-0.979,1.226c-0.407,0.395-0.897,0.704-1.466,1.14c-2.796-6.511-6.134-12.435-12.058-16.759
	c-0.742,2.712-2.309,4.6-4.222,6.288c-1.018,0.898-1.908,1.17-3.065,0.33c-0.475-0.345-1.075-0.517-1.718-0.813
	c-0.083,0.514-0.154,0.772-0.161,1.032c-0.061,2.242-0.789,4.091-2.654,5.536c-1.775,1.375-2.976,3.296-3.266,5.532
	c-0.339,2.61-0.364,5.26-0.529,7.947C214.233,47.18,213.372,46.86,212.252,46.445z M288.323,42.04
	c0.09-3.343,0.093-6.735,1.734-9.837c2.033-3.843,6.446-6.049,10.447-5.151c3.737,0.839,5.547,3.479,5.627,8.516
	c0.098,6.139,0.083,12.279,0.116,18.419c0.004,0.679,0,1.357,0,2.065c1.494,0,2.798,0,4.034,0c0-7.254,0.109-14.407-0.048-21.554
	c-0.074-3.361-1.073-6.528-3.785-8.869c-4.768-4.116-12.588-3.005-16.919,2.429c-0.645,0.809-1.215,1.679-1.959,2.712
	c-1.614-4.867-4.887-7.405-9.784-7.599c-4.793-0.189-8.407,2.133-11.188,5.996c-0.106-0.079-0.213-0.158-0.319-0.237
	c0-1.615,0-3.23,0-4.836c-1.445,0-2.693,0-3.927,0c0,10.733,0,21.336,0,31.971c1.34,0,2.593,0,3.992,0c0-0.662-0.003-1.236,0-1.81
	c0.029-5.018-0.01-10.039,0.117-15.055c0.066-2.618,0.479-5.218,1.932-7.507c1.364-2.148,3.223-3.679,5.686-4.415
	c5.365-1.601,9.708,1.426,9.949,7.271c0.27,6.557,0.184,13.129,0.251,19.694c0.006,0.611,0.001,1.222,0.001,1.86
	c1.423,0,2.585,0,4.012,0C288.291,51.313,288.198,46.674,288.323,42.04z M66.989,49.782c0.111-4.533,0.097-9.078,0.447-13.593
	c0.324-4.178,2.457-7.332,6.429-9.022c4.328-1.842,10.482-0.252,10.887,6.429c0.074,1.226,0.19,2.452,0.195,3.678
	c0.024,5.555,0.012,11.11,0.021,16.664c0.001,0.563,0.051,1.126,0.078,1.703c1.425,0,2.678,0,4.249,0
	c-0.178-7.788,0.057-15.498-0.648-23.121c-0.666-7.195-6.306-10.927-13-9.501c-3.098,0.66-5.596,2.302-7.551,4.773
	c-0.616,0.779-1.168,1.608-1.853,2.558c-1.647-4.839-4.875-7.383-9.813-7.563c-4.819-0.176-8.402,2.148-11.482,5.795
	c0-1.666,0-3.331,0-4.978c-1.401,0-2.603,0-3.861,0c0,10.711,0,21.321,0,32.013c1.324,0,2.564,0,3.911,0
	c0-1.078-0.013-2.035,0.002-2.992c0.083-5.178-0.007-10.366,0.313-15.529c0.299-4.831,2.518-8.59,7.396-10.199
	c4.935-1.628,9.523,1.17,9.817,6.26c0.357,6.175,0.299,12.375,0.41,18.564c0.023,1.269,0.003,2.538,0.003,3.908
	c1.36,0,2.565,0,4.041,0C66.981,53.604,66.942,51.692,66.989,49.782z M102.379,49.924c0,2.129,0,3.866,0,5.712
	c-1.333,0-2.532,0-3.87,0c0-14.761,0-29.506,0-44.373c1.206,0,2.406,0,3.774,0c0,5.762,0,11.55,0,17.338
	c0.096,0.097,0.192,0.195,0.289,0.292c3.656-4.245,8.176-6.433,13.746-6.11c5.654,0.328,9.896,3.069,12.931,7.731
	c4.64,7.129,2.913,17.012-3.654,22.393C120.201,57.326,109.594,58.96,102.379,49.924z M127.689,39.691
	c-0.011-7.313-5.812-13.302-12.821-13.237c-7.258,0.067-12.831,5.833-12.788,13.232c0.043,7.433,5.642,13.123,12.882,13.092
	C122.087,52.747,127.7,46.975,127.689,39.691z M399.967,40.316c-9.589,0-19.116,0-28.62,0c-0.532,4.685,2.624,9.932,7.049,11.859
	c3.306,1.439,6.635,1.269,9.974,0.058c3.354-1.217,5.42-3.827,7.254-6.833c1.171,0.617,2.237,1.179,3.294,1.737
	c-3.041,7.752-12.15,11.642-20.89,8.998c-7.737-2.341-12.563-11.381-10.656-19.963c1.925-8.667,9.731-14.121,18.425-12.876
	C394.353,24.522,400.503,31.767,399.967,40.316z M395.49,36.726c-1.18-6.451-6.684-10.392-13.427-9.77
	c-5.253,0.484-10.212,5.211-10.191,9.77C379.703,36.726,387.532,36.726,395.49,36.726z M142.454,39.852
	c-0.736,4.582,2.634,10.105,7.21,12.024c6.056,2.54,11.903,0.238,17.067-6.818c1.043,0.531,2.113,1.076,3.178,1.619
	c-2.822,7.25-10.35,11.288-19.526,9.402c-8.397-1.725-13.837-10.874-12.037-19.945c1.81-9.122,9.976-14.632,19.256-13.165
	c8.188,1.295,13.993,9.077,13.383,16.883C161.476,39.852,151.951,39.852,142.454,39.852z M142.746,36.205c7.975,0,15.873,0,23.793,0
	c-1.133-5.836-5.81-9.642-11.865-9.755C148.895,26.342,144.223,30.116,142.746,36.205z M28.786,45.047
	c1.054,0.559,2.12,1.124,3.175,1.683c-2.944,7.679-12.144,11.645-20.761,9.026C3.281,53.348-1.508,44.441,0.43,35.722
	c1.942-8.738,9.846-14.119,18.799-12.799c8.231,1.213,14.406,8.707,13.777,16.914c-9.51,0-19.037,0-28.528,0
	c-0.841,4.375,2.345,9.81,6.889,11.882c3.288,1.499,6.639,1.377,9.968,0.129C23.918,50.881,24.588,50.229,28.786,45.047z
	 M28.515,36.245c-0.997-5.883-6.146-9.958-12.289-9.793C10.448,26.607,5.42,30.92,4.852,36.245
	C12.738,36.245,20.62,36.245,28.515,36.245z M335.534,54.649c0.044-5.337,0.036-10.675,0.152-16.011
	c0.076-3.503,1.315-6.562,3.996-8.934c3.148-2.785,6.785-3.635,10.705-2.17c3.649,1.364,4.742,4.571,4.828,8.128
	c0.15,6.187,0.166,12.377,0.236,18.567c0.007,0.613,0.001,1.226,0.001,1.83c1.456,0,2.66,0,4,0c0-2.005,0.035-3.917-0.007-5.827
	c-0.123-5.651-0.147-11.31-0.467-16.95c-0.182-3.202-1.698-5.914-4.352-7.869c-4.821-3.55-11.803-2.897-16.604,1.536
	c-0.799,0.738-1.633,1.437-2.533,2.226c0-1.682,0-3.367,0-5.108c-1.412,0-2.661,0-3.93,0c0,10.742,0,21.377,0,32.026
	c1.345,0,2.56,0,3.974,0C335.534,55.49,335.531,55.069,335.534,54.649z M177.503,55.655c1.363,0,2.616,0,4.07,0
	c0-0.71-0.008-1.334,0.001-1.959c0.087-5.546,0.13-11.093,0.286-16.637c0.078-2.755,0.725-5.409,2.427-7.657
	c1.612-2.13,3.624-3.428,6.483-2.691c0.343,0.088,0.937-0.092,1.156-0.359c0.622-0.758,1.11-1.626,1.725-2.563
	c-5.401-2.537-8.8,0.308-12.142,4.454c0-1.93,0-3.282,0-4.682c-1.394,0-2.61,0-4.006,0
	C177.503,34.316,177.503,44.949,177.503,55.655z M318.729,56.046c1.38,0,2.634,0,3.907,0c0-10.712,0-21.314,0-32.082
	c-0.784,0-1.469,0-2.154,0c-0.57,0-1.141,0-1.752,0C318.729,34.79,318.729,45.431,318.729,56.046z M324.007,14.179
	c0.048-1.869-1.541-3.498-3.401-3.487c-1.804,0.01-3.314,1.549-3.319,3.382c-0.005,1.891,1.406,3.325,3.299,3.355
	C322.476,17.458,323.959,16.049,324.007,14.179z M221.868,51.151c0.039,3.354,2.908,6.087,6.368,6.067
	c3.496-0.021,6.202-2.732,6.184-6.197c-0.018-3.462-2.739-6.142-6.236-6.14C224.641,44.881,221.828,47.674,221.868,51.151z"/>
</svg>
