<?xml version="1.0" encoding="utf-8"?>
<!-- Generator: Adobe Illustrator 17.0.1, SVG Export Plug-In . SVG Version: 6.00 Build 0)  -->
<!DOCTYPE svg PUBLIC "-//W3C//DTD SVG 1.1//EN" "http://www.w3.org/Graphics/SVG/1.1/DTD/svg11.dtd">
<svg version="1.1" id="Layer_1" xmlns="http://www.w3.org/2000/svg" xmlns:xlink="http://www.w3.org/1999/xlink" x="0px" y="0px"
	 width="400px" height="155.063px" viewBox="0 0 400 155.063" enable-background="new 0 0 400 155.063" xml:space="preserve">
<path fill="#FFFFFF" d="M230.503,0c0.526,0.643,0.92,1.577,1.598,1.883c4.165,1.876,5.808,5.194,5.807,9.556
	c-0.002,16.966-0.003,33.933-0.004,50.899c0,0.481-0.034,0.965,0.009,1.442c0.147,1.649,1.054,2.147,2.516,1.439
	c3.251-1.573,6.414-3.393,9.792-4.617c3.189-1.155,6.571-1.963,9.936-2.394c3.179-0.406,6.448-0.215,9.673-0.122
	c5.828,0.169,11.272,1.847,16.593,4.182c4.916,2.158,9.18,5.237,13.029,8.844c3.857,3.614,7.207,7.728,9.32,12.66
	c1.479,3.45,2.885,6.94,4.118,10.483c0.507,1.457,0.416,3.113,0.696,4.661c1.068,5.891,0.772,11.849-0.46,17.566
	c-1.765,8.189-5.51,15.579-11.295,21.833c-4.969,5.373-10.713,9.664-17.56,12.202c-3.882,1.439-8.042,2.119-12.05,3.236
	c-0.644,0.179-1.147,0.86-1.716,1.309c-2.612,0-5.224,0-7.836,0c-0.599-0.431-1.14-1.086-1.806-1.256
	c-3.372-0.862-6.795-1.524-10.164-2.396c-6.524-1.689-11.941-5.363-16.921-9.746c-6-5.28-10.244-11.806-12.927-19.271
	c-1.478-4.112-2.443-8.371-2.433-12.864c0.076-33.118,0.069-66.236,0.002-99.353c-0.008-4.159,2.024-6.607,5.496-8.35
	c0.68-0.341,1.097-1.204,1.636-1.827C227.204,0,228.854,0,230.503,0z M266.126,134.121c14.264,0.16,28.773-12.113,28.111-29.737
	c-0.504-13.398-12.314-26.575-28.236-26.595c-14.976-0.019-28.234,12.936-28.05,28.321
	C238.132,121.301,250.43,133.937,266.126,134.121z M156.683,155.063c0.584-0.435,1.12-1.154,1.76-1.261
	c5.706-0.96,11.12-2.578,16.257-5.408c9.007-4.962,15.202-12.351,18.989-21.675c2.373-5.845,3.387-12.12,3.376-18.501
	c-0.021-12.44,0.047-24.881-0.057-37.321c-0.017-2.069-0.564-4.176-1.13-6.191c-1.632-5.813-10.154-7.971-15.283-4.04
	c-2.948,2.26-3.67,5.439-3.662,8.955c0.029,13.196-0.012,26.393,0.025,39.59c0.018,6.45-1.957,12.133-6.318,16.907
	c-6.915,7.571-16.686,10.229-26.022,6.359c-9.928-4.115-15.313-12.454-15.515-23.228c-0.255-13.604-0.012-27.217-0.117-40.825
	c-0.014-1.84-0.39-3.922-1.316-5.46c-2.147-3.569-7.008-5.136-10.829-3.951c-4.832,1.499-7.229,4.596-7.235,9.497
	c-0.019,14.846-0.082,29.693,0.052,44.538c0.027,3.056,0.547,6.181,1.337,9.141c1.475,5.529,4.004,10.618,7.596,15.117
	c4.253,5.326,9.35,9.579,15.571,12.508c4.273,2.012,8.776,3.054,13.355,3.962c0.642,0.127,1.166,0.844,1.745,1.288
	C151.735,155.063,154.209,155.063,156.683,155.063z M1.753,142.234c0.001,1.162,0.086,2.339,0.286,3.483
	c0.516,2.959,3.947,6.377,6.895,6.97c7.038,1.416,12.448-2.989,12.446-10.132c-0.003-13.128-0.061-26.256,0.02-39.383
	c0.032-5.19,0.836-10.229,3.94-14.66c3.641-5.199,8.302-9.249,14.551-10.375c6.116-1.102,12.365-0.806,17.837,2.957
	c6.845,4.707,11.081,11.034,11.188,19.505c0.16,12.645,0.033,25.293,0.047,37.94c0.002,1.991-0.2,4.051,0.237,5.954
	c0.428,1.864,1.237,3.825,2.434,5.289c2.469,3.017,7.344,4.005,10.959,2.65c3.933-1.474,6.357-5.003,6.363-9.425
	c0.019-14.365,0.167-28.733-0.092-43.093c-0.077-4.255-0.848-8.65-2.188-12.687c-1.318-3.969-3.464-7.761-5.774-11.284
	c-5.098-7.774-12.416-12.892-21.073-16.041c-5.483-1.995-11.237-2.384-17.046-2.182c-6.348,0.221-12.294,1.839-17.86,4.884
	c-2.269,1.242-3.538,0.525-3.545-2.078c-0.02-7.354-0.002-14.709-0.001-22.063c0.002-9.004,0.107-18.009-0.028-27.011
	C21.224,3.228,13.065,0.039,6.637,3.306C2.836,5.238,1.701,8.64,1.713,12.743c0.06,21.582,0.028,43.164,0.028,64.746
	C1.742,99.07,1.737,120.652,1.753,142.234z M334.914,143.156c0.003,1.219-0.044,2.59,0.464,3.631
	c2.404,4.923,6.319,7.056,12.03,5.833c3.856-0.825,7.299-4.799,7.288-9.776c-0.055-24.591-0.005-49.182-0.074-73.773
	c-0.005-1.643-0.447-3.39-1.108-4.906c-1.719-3.947-6.687-6.323-10.761-5.367c-4.321,1.014-8.016,4.499-7.928,9.349
	c0.227,12.497,0.076,25.002,0.073,37.503S334.883,130.654,334.914,143.156z M394.611,67.672c-0.007-1.313-0.28-2.76-0.877-3.912
	c-2.425-4.673-7.972-5.69-11.043-4.901c-5.029,1.293-7.911,6.013-7.883,10.465c0.146,24.042,0.042,48.086,0.123,72.128
	c0.007,1.984,0.5,4.059,1.201,5.928c1.598,4.257,6.309,6.323,11.458,5.289c3.878-0.779,7.054-4.799,7.055-8.954
	c0.004-12.64,0.001-25.279,0.003-37.919C394.649,93.088,394.674,80.38,394.611,67.672z M330.917,33.534
	c0.157,7.918,5.015,13.579,13.917,13.577c7.249-0.002,13.338-5.12,13.518-13.608c0.171-8.066-6.566-14.031-13.499-13.73
	C336.561,19.53,330.763,25.761,330.917,33.534z M371.237,33.326c0.076,8.102,5.559,13.652,13.322,13.785
	c8.385,0.143,13.81-5.076,14.088-13.379c0.258-7.687-5.776-14.353-13.732-13.959C377.684,19.45,371.162,25.358,371.237,33.326z"/>
</svg>
