<?xml version="1.0" encoding="utf-8"?>
<!-- Generator: Adobe Illustrator 17.0.1, SVG Export Plug-In . SVG Version: 6.00 Build 0)  -->
<!DOCTYPE svg PUBLIC "-//W3C//DTD SVG 1.1//EN" "http://www.w3.org/Graphics/SVG/1.1/DTD/svg11.dtd">
<svg version="1.1" id="Layer_1" xmlns="http://www.w3.org/2000/svg" xmlns:xlink="http://www.w3.org/1999/xlink" x="0px" y="0px"
	 width="400px" height="134.755px" viewBox="0 -17.578 400 134.755" enable-background="new 0 -17.578 400 134.755"
	 xml:space="preserve">
<path fill="#FFFFFF" d="M0,41.577c0.299-0.707,0.755-1.388,0.875-2.124c2.462-15.069,9.152-27.896,20.266-38.391
	C21.597,0.63,22.15,0.301,22.712,0C-7.135,30.339,0.647,72.463,23.619,93.501c23.228,21.273,58.521,23.438,84.066,2.913
	c14.175-11.39,22.118-26.475,23.652-44.555c1.526-17.98-4.06-33.915-15.675-47.76c0.119-0.111,0.238-0.222,0.358-0.332
	c0.631,0.544,1.336,1.022,1.881,1.642c6.037,6.867,10.605,14.618,13.392,23.32c3.294,10.285,4.338,20.763,2.554,31.534
	c-1.865,11.259-6.147,21.402-13.026,30.459c-6.429,8.466-14.494,15.045-24.03,19.647c-6.036,2.913-12.351,5.251-19.143,5.903
	c-0.705,0.068-1.366,0.592-2.048,0.904c-5.467,0-10.933,0-16.4,0c-0.553-0.293-1.085-0.783-1.663-0.847
	c-5.532-0.613-10.764-2.252-15.905-4.324c-11.601-4.674-21.057-12.157-28.412-22.158C6.463,80.661,2.16,70.362,0.754,58.949
	C0.678,58.336,0.259,57.766,0,57.177C0,51.977,0,46.777,0,41.577z M400,27.177c-2.859,0.044-5.722,0.193-8.576,0.095
	c-1.886-0.064-2.564,0.518-2.542,2.476c0.09,8.056,0.064,16.114,0.013,24.171c-0.01,1.653-0.308,3.304-0.481,4.955
	c-0.203,1.928-1.414,2.958-3.176,3.389c-1.747,0.428-3.34-0.242-4.198-1.631c-1.059-1.714-2.12-2.037-3.918-1.292
	c-2.28,0.945-4.656,1.657-6.972,2.463c2.783,8.606,10.912,11.673,18.809,10.032c4.422-0.919,7.667-3.52,9.512-7.733
	c0.489-1.118,1.018-2.218,1.529-3.326C400,49.577,400,38.377,400,27.177z M55.28,6.243c-8.276,3.572-13.827,9.68-16.872,18.134
	c-0.234,0.651-0.746,1.201-1.129,1.798c-0.219-0.06-0.439-0.12-0.658-0.18c-0.224-2.586-0.448-5.172-0.712-8.219
	c-5.983,6.876-5.773,14.5-4.432,22.498c-2.948-1.224-3.462-4.305-5.54-6.623c-0.386,4.016-0.87,7.635,0.325,11.097
	c1.166,3.377,2.763,6.605,4.358,10.335c-2.427-1.491-4.534-2.785-7.003-4.302c0.914,7.859,5.532,12.764,11.7,16.63
	c-0.1,0.185-0.199,0.37-0.299,0.555c-2.343-0.44-4.685-0.88-7.566-1.421c1.423,3.502,3.614,5.785,6.155,7.624
	c2.534,1.835,5.356,3.272,8.549,5.18c-1.367,0.194-2.211,0.238-3.009,0.455c-0.521,0.142-1.273,0.456-1.374,0.837
	c-0.104,0.394,0.351,1.075,0.74,1.439c5.516,5.161,12.094,8.37,19.318,10.334c0.992,0.27,2.07,0.22,3.108,0.318
	c-2.584-4.282-5.602-7.876-6.024-12.763c0.392,0.11,0.582,0.348,0.789,0.571c3.612,3.892,7.217,7.791,10.846,11.667
	c1.229,1.314,2.529,1.331,3.782,0.006c3.33-3.52,6.658-7.043,9.971-10.58c0.549-0.586,1.017-1.246,1.523-1.872
	c-0.209,5.1-3.42,8.696-6.365,12.967c1.185-0.059,1.844,0.026,2.432-0.141c2.423-0.688,4.877-1.315,7.221-2.219
	c5.012-1.932,9.515-4.737,13.425-8.442c0.337-0.32,0.691-0.957,0.586-1.314c-0.105-0.358-0.744-0.674-1.204-0.79
	c-0.869-0.217-1.778-0.278-2.671-0.403c0.674-0.875,1.413-1.39,2.221-1.752c4.47-2.003,8.239-4.851,10.933-8.994
	c0.346-0.532,0.481-1.201,0.826-2.102c-2.783,0.522-5.118,0.959-7.453,1.397c8.023-6.765,12.454-13.341,11.053-16.903
	c-2.083,1.263-4.183,2.536-6.488,3.934c1.551-3.673,3.123-6.881,4.262-10.235c1.179-3.474,0.855-7.08,0.07-10.652
	c-0.898,1.104-1.463,2.312-2.241,3.362c-0.798,1.078-1.804,2.003-3.059,3.363c1.491-12.031-0.293-20.561-4.47-22.478
	c-0.206,2.532-0.413,5.078-0.62,7.624c-0.286,0.067-0.573,0.133-0.859,0.2c-0.678-1.475-1.376-2.941-2.032-4.425
	C94.147,14.409,88.75,9.263,81.379,6.156c-0.317-0.134-0.764,0.043-1.496,0.103c1.452,1.066,2.61,1.821,3.661,2.705
	c4.052,3.409,6.569,7.746,7.804,12.889c1.594,6.64,1.619,13.287-0.776,19.66c-2.841,7.56-8.194,12.752-16.071,15.2
	c-1.402,0.436-2.066-0.065-2.568-1.064c-2.94-5.851-2.906-12.734,3.946-16.64c0.202-0.115,0.377-0.277,0.639-0.472
	c-2.121-0.553-5.896,0.455-8.316,2.162c-1.193,0.841-2.268,1.944-3.577,2.503c-1.947,0.832-4.054,1.286-6.169,1.924
	c0.303,0.13,0.696,0.217,0.986,0.438c1.6,1.217,3.492,2.224,4.674,3.769c1.372,1.795,0.752,4.069,0.155,6.171
	c-0.337,1.19-0.932,1.418-2.064,1.075c-8.147-2.469-13.332-7.996-16.159-15.828c-1.922-5.324-1.852-10.886-1.077-16.391
	c0.519-3.69,1.598-7.347,3.979-10.302c2.252-2.795,4.87-5.297,7.349-7.951C56.122,6.127,55.656,6.081,55.28,6.243z M366.598,70.029
	c-2.988-4.946-5.989-9.884-8.995-14.819c-1.103-1.812-0.961-2.388,0.879-3.218c4.358-1.966,6.728-5.446,7.006-10.098
	c0.279-4.68-1.121-8.821-5.294-11.579c-2.978-1.968-6.32-2.841-9.818-2.924c-5.595-0.132-11.195-0.019-16.791-0.112
	c-1.579-0.026-2.084,0.497-2.063,2.064c0.074,5.463,0.028,10.928,0.028,16.392c0,8.13,0.04,16.26-0.032,24.389
	c-0.015,1.676,0.538,2.236,2.183,2.147c2.126-0.115,4.265-0.082,6.395-0.014c1.559,0.05,2.075-0.589,2.047-2.133
	c-0.079-4.397-0.049-8.796-0.008-13.193c0.009-0.988-0.352-2.301,1.201-2.554c1.353-0.22,2.46,0.148,3.173,1.486
	c2.09,3.927,4.502,7.709,6.279,11.77c1.566,3.579,3.618,5.336,7.678,4.677c2.245-0.364,4.597-0.065,7.229-0.065
	C367.179,71.193,366.934,70.584,366.598,70.029z M347.544,36.094c1.993,0.058,4.286,0.716,5.858,1.885
	c2.724,2.024,1.809,6.6-1.482,7.5c-2.757,0.754-5.722,0.788-8.606,0.981c-0.379,0.025-1.101-0.861-1.177-1.395
	c-0.177-1.238-0.056-2.518-0.056-3.781C342.151,35.11,341.288,35.911,347.544,36.094z M203.199,70.353
	c-0.004,1.13,0.123,1.913,1.58,1.907c9.662-0.039,19.325-0.03,28.988-0.011c1.114,0.002,1.555-0.456,1.53-1.554
	c-0.041-1.732,0.003-3.465-0.009-5.197c-0.017-2.527-0.094-2.61-2.579-2.614c-5.598-0.009-11.195-0.032-16.793,0.012
	c-1.436,0.011-2.089-0.482-2.016-1.973c0.075-1.529,0.122-3.074-0.012-4.595c-0.174-1.982,0.517-2.712,2.575-2.668
	c5.528,0.117,11.062-0.004,16.592,0.063c1.633,0.02,2.331-0.551,2.248-2.197c-0.073-1.462-0.076-2.935,0.003-4.396
	c0.087-1.622-0.545-2.264-2.208-2.236c-4.464,0.074-8.929,0.024-13.394,0.023c-5.832,0-5.832,0-5.79-5.813
	c0.018-2.512,0.112-2.629,2.561-2.635c5.531-0.014,11.062-0.045,16.593,0.017c1.624,0.018,2.326-0.54,2.239-2.202
	c-0.087-1.661-0.11-3.337,0.008-4.995c0.117-1.654-0.619-2.012-2.119-2.004c-9.329,0.05-18.659,0.06-27.988-0.007
	c-1.626-0.012-2.039,0.575-2.025,2.094c0.06,6.797,0.026,13.594,0.026,20.391C203.21,56.626,203.221,63.489,203.199,70.353z
	 M293.025,70.194c-0.015,1.556,0.477,2.086,2.054,2.077c9.33-0.056,18.66-0.056,27.99,0.001c1.526,0.009,2.206-0.384,2.091-2.014
	c-0.118-1.658-0.1-3.334-0.006-4.995c0.101-1.787-0.53-2.457-2.408-2.42c-5.596,0.11-11.196-0.003-16.793,0.062
	c-1.606,0.019-2.346-0.46-2.226-2.162c0.108-1.525,0.133-3.074-0.005-4.594c-0.18-1.985,0.675-2.51,2.539-2.48
	c5.53,0.09,11.063-0.026,16.593,0.062c1.778,0.028,2.4-0.642,2.296-2.336c-0.082-1.328-0.107-2.673,0.006-3.996
	c0.165-1.922-0.595-2.553-2.519-2.518c-5.596,0.102-11.196,0.001-16.793,0.053c-1.551,0.014-2.193-0.568-2.108-2.117
	c0.073-1.329,0.109-2.673-0.009-3.996c-0.168-1.895,0.683-2.408,2.454-2.384c5.464,0.077,10.93-0.033,16.393,0.058
	c1.845,0.031,2.749-0.459,2.585-2.456c-0.125-1.523-0.114-3.07,0-4.595c0.123-1.647-0.466-2.182-2.14-2.169
	c-9.263,0.07-18.527,0.079-27.789-0.005c-1.837-0.017-2.227,0.663-2.208,2.339c0.078,6.663,0.032,13.328,0.032,19.992
	C293.053,56.466,293.09,63.331,293.025,70.194z M279.632,27.309c-4.623,0-4.747-0.043-6.208,4.207
	c-2.136,6.215-4.065,12.502-6.097,18.753c-0.831,2.558-1.7,5.105-2.731,8.195c-0.659-1.011-1.171-1.527-1.371-2.145
	c-2.975-9.159-5.875-18.343-8.921-27.477c-0.226-0.678-1.411-1.411-2.192-1.46c-2.788-0.176-5.594-0.083-8.393-0.054
	c-0.561,0.006-1.121,0.181-1.852,0.307c2.283,6.128,4.474,12.033,6.683,17.931c2.725,7.274,5.551,14.51,8.167,21.823
	c1.72,4.809,1.588,4.856,6.767,4.856c0.333,0,0.673-0.044,0.999,0.007c3.447,0.539,6.002-0.243,6.52-4.24
	c0.074-0.572,0.442-1.104,0.656-1.662c2.691-7.003,5.385-14.006,8.067-21.013c2.227-5.819,4.439-11.644,6.872-18.029
	C283.983,27.309,281.807,27.309,279.632,27.309z M168.962,70.356c-0.008,1.318,0.324,1.92,1.78,1.91
	c8.122-0.051,16.245-0.046,24.368-0.004c1.35,0.007,1.734-0.556,1.695-1.797c-0.061-1.929-0.062-3.862-0.004-5.791
	c0.043-1.436-0.497-2.005-1.99-1.978c-4.127,0.075-8.255,0.028-12.383,0.023c-2.727-0.004-2.732-0.009-2.733-2.751
	c-0.002-10.053-0.06-20.108,0.047-30.16c0.022-2.083-0.644-2.689-2.624-2.534c-1.985,0.155-3.997,0.121-5.988,0.008
	c-1.629-0.093-2.203,0.438-2.182,2.128c0.083,6.79,0.034,13.582,0.035,20.373C168.983,56.641,169.007,63.499,168.962,70.356z"/>
</svg>
