<?xml version="1.0" encoding="utf-8"?>
<!-- Generator: Adobe Illustrator 17.0.1, SVG Export Plug-In . SVG Version: 6.00 Build 0)  -->
<!DOCTYPE svg PUBLIC "-//W3C//DTD SVG 1.1//EN" "http://www.w3.org/Graphics/SVG/1.1/DTD/svg11.dtd">
<svg version="1.1" id="Layer_1" xmlns="http://www.w3.org/2000/svg" xmlns:xlink="http://www.w3.org/1999/xlink" x="0px" y="0px"
	 width="400px" height="74.192px" viewBox="0 0 400 74.192" enable-background="new 0 0 400 74.192" xml:space="preserve">
<g>
	<path fill="#FFFFFF" d="M7.519,7.812c0,0.855,0,1.359,0,1.864c0,18.721,0,37.443,0,56.164c0,1.567,0.021,3.134-0.02,4.699
		c-0.054,2.072-1.588,3.599-3.604,3.652c-2.046,0.053-3.689-1.333-3.82-3.409c-0.119-1.889-0.062-3.791-0.062-5.687
		C0.011,46.137,0.015,27.178,0.006,8.219C0.006,6.437,0.143,4.72,1.201,3.184c2.304-3.341,6.65-4.197,10.206-1.878
		c5.329,3.476,10.615,7.018,15.917,10.535c7.518,4.986,15.006,10.02,22.565,14.943c3.799,2.474,5.616,5.838,5.586,10.368
		c-0.064,9.408-0.019,18.816-0.02,28.224c0,1.706,0.07,3.417-0.026,5.118c-0.13,2.303-1.704,3.749-3.851,3.697
		c-2.119-0.052-3.597-1.639-3.6-3.934c-0.016-10.927-0.052-21.854,0.004-32.781c0.011-2.076-0.729-3.417-2.475-4.563
		C33.439,24.993,21.426,16.99,9.395,9.015C8.885,8.677,8.366,8.354,7.519,7.812z"/>
	<path fill="#FFFFFF" d="M114.407,7.789c-2.511,1.657-4.687,3.088-6.858,4.528c-10.408,6.9-20.797,13.829-31.238,20.678
		c-1.649,1.082-2.378,2.36-2.363,4.33c0.075,10.167,0.068,20.335,0.081,30.502c0.001,0.996-0.031,1.995-0.097,2.989
		c-0.123,1.866-1.698,3.329-3.587,3.374c-1.909,0.045-3.649-1.286-3.795-3.129c-0.146-1.838-0.074-3.694-0.075-5.541
		c-0.005-9.455,0.047-18.911-0.023-28.366c-0.034-4.537,1.815-7.88,5.588-10.364c12.769-8.408,25.49-16.89,38.24-25.327
		c3.754-2.484,8.197-1.674,10.524,1.836c1.03,1.552,1.124,3.285,1.123,5.059c-0.005,18.911-0.002,37.822-0.004,56.733
		c0,1.801,0.047,3.607-0.05,5.403c-0.123,2.286-1.714,3.75-3.854,3.697c-2.115-0.053-3.603-1.645-3.604-3.937
		c-0.008-20.145-0.006-40.29-0.006-60.436C114.407,9.266,114.407,8.714,114.407,7.789z"/>
	<path fill="#FFFFFF" d="M213.192,29.621c-1.343,2.225-2.695,4.445-4.027,6.676c-3.697,6.194-7.38,12.396-11.1,18.576
		c-0.165,0.275-0.635,0.49-0.977,0.512c-1.04,0.066-2.086,0.024-3.039,0.024c-5.093-8.479-10.14-16.883-15.187-25.287
		c-0.098,0.008-0.197,0.015-0.295,0.023c-0.024,0.478-0.07,0.955-0.07,1.433c-0.004,9.457,0.001,18.913-0.006,28.37
		c-0.002,2.403-0.933,3.501-2.799,3.448c-1.165-0.033-1.881-0.567-2.098-1.703c-0.097-0.507-0.118-1.036-0.118-1.554
		c-0.006-12.926-0.005-25.851-0.003-38.777c0-0.474-0.006-0.954,0.054-1.422c0.148-1.161,0.802-1.9,1.949-2.168
		c1.107-0.259,1.978,0.128,2.563,1.075c1.049,1.695,2.065,3.411,3.085,5.124c4.638,7.791,9.272,15.585,13.909,23.377
		c0.241,0.404,0.498,0.798,0.836,1.337c0.347-0.529,0.64-0.948,0.905-1.384c5.585-9.161,11.172-18.321,16.742-27.491
		c0.71-1.169,1.484-2.093,3.054-1.763c1.119,0.235,1.766,0.867,1.899,1.999c0.044,0.376,0.035,0.759,0.035,1.139
		c0.002,13.068,0.002,26.136-0.001,39.205c0,0.427,0.011,0.863-0.069,1.278c-0.239,1.234-1.06,1.883-2.27,1.99
		c-1.197,0.107-2.043-0.482-2.374-1.616c-0.195-0.668-0.222-1.403-0.223-2.109c-0.013-9.552-0.009-19.103-0.009-28.655
		c0-0.509,0-1.018,0-1.528C213.435,29.706,213.313,29.664,213.192,29.621z"/>
	<path fill="#FFFFFF" d="M389.762,42.982c1.699,3.509,3.39,7.001,5.08,10.493c1.012,2.092,2.057,4.168,3.019,6.283
		c0.514,1.13,0.632,2.321-0.388,3.281c-1.24,1.167-2.878,0.815-3.734-0.86c-1.337-2.618-2.592-5.278-3.876-7.922
		c-1.679-3.456-3.336-6.922-5.051-10.359c-0.197-0.395-0.693-0.898-1.062-0.908c-2.841-0.075-5.685-0.042-8.671-0.042
		c-0.029,0.61-0.074,1.11-0.074,1.61c-0.005,5.131,0.009,10.261-0.018,15.392c-0.004,0.698,0.015,1.571-0.368,2.048
		c-0.505,0.628-1.395,1.292-2.123,1.297c-0.714,0.005-1.597-0.666-2.097-1.288c-0.387-0.481-0.403-1.344-0.404-2.038
		c-0.021-12.922-0.019-25.843-0.012-38.765c0.001-2.56,0.874-3.439,3.425-3.411c5.174,0.057,10.389-0.238,15.511,0.313
		c8.725,0.939,13.788,10.91,9.572,18.351c-1.704,3.008-4.327,4.99-7.638,6.033c-0.269,0.085-0.54,0.165-0.808,0.253
		C390.003,42.757,389.972,42.802,389.762,42.982z M375.111,22.622c0,5.166,0,10.215,0,15.195c4.418,0,8.746,0.256,13.029-0.074
		c4.102-0.315,7.163-4.303,6.871-8.215c-0.25-3.339-3.525-6.645-7.303-6.854C383.55,22.443,379.37,22.622,375.111,22.622z"/>
	<path fill="#FFFFFF" d="M332.021,22.527c0,5.257,0,10.275,0,15.468c0.579,0,1.086,0,1.594,0c4.704,0,9.409-0.051,14.111,0.049
		c0.835,0.018,1.925,0.456,2.404,1.08c0.436,0.568,0.55,1.885,0.173,2.447c-0.461,0.687-1.572,1.288-2.418,1.31
		c-4.701,0.124-9.407,0.061-14.111,0.061c-0.559,0-1.119,0-1.747,0c0,5.228,0,10.283,0,15.506c0.638,0,1.196,0,1.755,0
		c6.415,0,12.83-0.039,19.244,0.043c0.953,0.012,2.159,0.344,2.767,0.984c0.487,0.511,0.599,1.923,0.229,2.559
		c-0.408,0.702-1.543,1.347-2.382,1.373c-4.272,0.136-8.551,0.064-12.827,0.064c-3.516,0-7.033,0.017-10.549-0.007
		c-2.479-0.016-3.337-0.884-3.338-3.363c-0.007-13.067-0.007-26.134,0-39.201c0.001-2.537,0.887-3.395,3.45-3.396
		c7.65-0.003,15.3-0.002,22.95,0.001c1.079,0,2.084,0.159,2.686,1.233c0.512,0.915,0.677,1.976-0.098,2.631
		c-0.72,0.609-1.8,1.094-2.729,1.108c-6.461,0.093-12.924,0.049-19.386,0.049C333.242,22.527,332.682,22.527,332.021,22.527z"/>
	<path fill="#FFFFFF" d="M270.169,60.6c-0.013,1.293-1.05,2.559-2.155,2.753c-1.294,0.228-2.2-0.27-2.699-1.525
		c-1.051-2.641-2.154-5.263-3.188-7.911c-0.282-0.722-0.666-1.015-1.463-1.012c-6.505,0.028-13.009,0.03-19.514-0.001
		c-0.823-0.004-1.154,0.345-1.43,1.05c-1,2.561-2.047,5.103-3.099,7.643c-0.66,1.594-1.837,2.226-3.079,1.702
		c-1.561-0.658-2.2-2.133-1.549-3.715c5.595-13.585,11.207-27.164,16.791-40.754c0.42-1.021,1.209-1.084,2.065-1.029
		c0.848,0.054,1.763-0.073,2.214,1.025c5.549,13.502,11.124,26.993,16.685,40.489C269.946,59.793,270.072,60.3,270.169,60.6z
		 M259.887,48.208c-3.003-7.274-5.922-14.346-8.964-21.716c-3.058,7.424-5.973,14.499-8.946,21.716
		C248.05,48.208,253.839,48.208,259.887,48.208z"/>
	<path fill="#FFFFFF" d="M287.182,42.075c3.4-3.645,6.506-6.97,9.605-10.301c3.946-4.24,7.886-8.486,11.828-12.729
		c0.065-0.07,0.133-0.136,0.199-0.204c1.432-1.482,2.857-1.725,3.992-0.683c1.187,1.09,1.056,2.669-0.35,4.14
		c-5.25,5.491-10.502,10.98-15.75,16.472c-0.327,0.342-0.63,0.706-1.045,1.172c0.762,0.843,1.503,1.684,2.266,2.505
		c4.883,5.249,9.772,10.493,14.657,15.741c0.291,0.313,0.593,0.62,0.85,0.96c0.94,1.246,0.914,2.737-0.044,3.603
		c-1.044,0.945-2.562,0.872-3.69-0.285c-1.822-1.869-3.586-3.796-5.378-5.695c-4.037-4.277-8.077-8.552-12.233-12.952
		c-1.605,1.706-3.177,3.334-4.681,5.021c-0.233,0.262-0.214,0.799-0.216,1.209c-0.016,3.373,0.014,6.746-0.03,10.118
		c-0.008,0.636-0.146,1.346-0.456,1.889c-0.882,1.54-3.015,1.439-3.772-0.175c-0.269-0.573-0.359-1.278-0.36-1.923
		c-0.02-13.111-0.025-26.223,0.007-39.334c0.002-0.923-0.309-2.024,0.816-2.668c1.876-1.073,3.744,0.046,3.775,2.342
		c0.041,3.087,0.011,6.175,0.011,9.263C287.182,33.59,287.182,37.62,287.182,42.075z"/>
</g>
</svg>
