<?xml version="1.0" encoding="utf-8"?>
<!-- Generator: Adobe Illustrator 17.0.1, SVG Export Plug-In . SVG Version: 6.00 Build 0)  -->
<!DOCTYPE svg PUBLIC "-//W3C//DTD SVG 1.1//EN" "http://www.w3.org/Graphics/SVG/1.1/DTD/svg11.dtd">
<svg version="1.1" id="Layer_1" xmlns="http://www.w3.org/2000/svg" xmlns:xlink="http://www.w3.org/1999/xlink" x="0px" y="0px"
	 width="400px" height="231.253px" viewBox="0 0 400 231.253" enable-background="new 0 0 400 231.253" xml:space="preserve">
<path fill="#FFFFFF" d="M400,194.3c-7.126-7.618-14.368-15.131-21.344-22.884c-6.415-7.129-12.436-14.611-18.82-21.767
	c-12.478-13.986-25.087-27.854-37.648-41.766c-0.34-0.377-0.745-0.696-1.509-1.403c-5.589,6.005-11.175,11.994-16.744,17.998
	c-3.101,3.343-6.38,6.554-9.16,10.148c-1.109,1.434-1.907,3.956-1.466,5.615c6.075,22.82,12.394,45.575,18.629,68.352
	c0.126,0.46-0.039,0.999-0.114,2.277c-12.635-15.342-24.826-30.262-37.15-45.071c-9.358-11.244-18.934-22.306-28.321-33.526
	c-5.918-7.074-11.99-14.056-17.39-21.515c-4.36-6.022-10.125-4.012-15.859-4.273c-0.181,1.489-0.34,2.795-0.565,4.646
	c-12.264-12.998-24.287-25.741-36.712-38.91c-3.732,10.46-7.445,20.494-10.898,30.618c-10.373,30.414-20.585,60.884-30.985,91.289
	c-4.252,12.431-8.822,24.752-13.247,37.123c-0.341,0-0.682,0-1.023,0c-1.395-15.392-2.655-30.799-4.276-46.168
	c-0.433-4.11-1.12-8.033-6.354-10.069c-12.253-4.768-24.127-10.504-36.247-15.628c-1.36-0.575-3.524-0.164-4.944,0.539
	c-1.905,0.944-3.467,2.596-5.145,3.981c-17.721,14.634-35.414,29.301-53.173,43.889c-3.038,2.495-6.351,4.656-9.536,6.972
	c21.227-24.99,42.455-49.979,63.77-75.073c7.835,4.461,15.058,8.574,22.274,12.684c6.208-6.74,12.295-13.516,18.566-20.116
	c9.363-9.855,18.971-19.479,28.269-29.395c14.133-15.071,28.09-30.308,42.572-45.96c6.502,7.551,12.738,14.763,18.937,22.008
	c2.294,2.681,4.345,5.592,6.829,8.075c0.878,0.878,2.791,1.269,4.106,1.067c5.764-0.886,11.459-2.229,17.231-3.031
	c1.395-0.194,3.556,0.598,4.405,1.686c11.02,14.113,21.82,28.398,32.779,42.558c4.437,5.733,12.644,5.458,19.383-0.724
	c7.126-6.538,14.032-13.315,21.048-19.974c6.766-6.421,13.55-12.823,20.602-19.496c9.067,11.894,18.067,23.654,27.018,35.452
	c13.549,17.861,27.092,35.727,40.575,53.637C392.351,183.463,396.127,188.918,400,194.3z M173.906,0
	c-0.497,0.377-0.957,0.821-1.497,1.12c-5.606,3.105-8.445,10.136-6.426,15.975c1.531,4.427,9.196,9.446,13.274,8.34
	c7.316-1.983,11.625-6.747,11.155-13.429c-0.42-5.969-3.598-9.36-8.32-12.007C179.363,0,176.635,0,173.906,0z M229.468,48.614
	c0.054,6.025,6.578,12.461,12.833,12.661c6.564,0.209,12.402-5.908,12.441-13.036c0.041-7.4-4.825-12.385-12.127-12.425
	C235.066,35.773,229.402,41.287,229.468,48.614z M113.668,61.125c6.177,0.55,13.054-6.435,12.777-12.467
	c-0.376-8.164-6.027-12.815-12.513-12.857c-7.465-0.049-12.574,4.694-12.676,11.888C101,56.954,106.901,60.522,113.668,61.125z"/>
</svg>
