<?xml version="1.0" encoding="utf-8"?>
<!-- Generator: Adobe Illustrator 17.0.1, SVG Export Plug-In . SVG Version: 6.00 Build 0)  -->
<!DOCTYPE svg PUBLIC "-//W3C//DTD SVG 1.1//EN" "http://www.w3.org/Graphics/SVG/1.1/DTD/svg11.dtd">
<svg version="1.1" id="Layer_1" xmlns="http://www.w3.org/2000/svg" xmlns:xlink="http://www.w3.org/1999/xlink" x="0px" y="0px"
	 width="400px" height="84.391px" viewBox="0 0 400 84.391" enable-background="new 0 0 400 84.391" xml:space="preserve">
<path fill="#FFFFFF" d="M35.903,0c0.425,0.459,0.773,1.045,1.288,1.358c10.143,6.174,20.281,12.358,30.487,18.426
	c1.803,1.072,2.512,2.231,2.492,4.382c-0.118,12.547-0.088,25.096-0.036,37.644c0.006,1.451-0.487,2.271-1.705,3.003
	c-10.441,6.269-20.858,12.579-31.253,18.923c-1.33,0.812-2.456,0.904-3.808,0.08C22.968,77.479,12.558,71.158,2.112,64.898
	c-1.463-0.877-2.108-1.972-2.106-3.622C0.021,48.848,0.027,36.42,0,23.991c-0.004-1.802,0.715-2.97,2.279-3.907
	C12.569,13.92,22.821,7.692,33.066,1.453C33.622,1.114,34.004,0.491,34.468,0C34.946,0,35.424,0,35.903,0z M35.407,40.625
	c-0.004,0-0.009,0-0.013,0c0-2.392-0.008-4.783,0.002-7.175c0.01-2.594,0.07-2.649,2.581-2.658c1.196-0.004,2.393,0.028,3.587-0.015
	c1.343-0.049,2.143-0.769,2.145-2.132c0.002-1.311-0.797-1.928-2.067-1.967c-0.836-0.026-1.674-0.038-2.51-0.04
	c-3.901-0.008-3.863-0.005-3.771-3.994c0.03-1.306,0.545-1.852,1.825-1.831c1.973,0.033,3.947,0.04,5.919,0.009
	c1.91-0.03,2.977-0.859,2.807-2.255c-0.192-1.582-1.249-2.168-2.786-2.146c-2.69,0.039-5.381,0.004-8.072,0.015
	c-3.293,0.014-3.975,0.71-3.976,3.987c-0.003,9.268,0.019,18.536-0.064,27.803c-0.007,0.797-0.508,1.98-1.137,2.318
	c-4.022,2.159-5.751,5.518-5.269,9.916c0.582,5.317,5.119,8.786,9.983,7.997c3.76-0.61,6.708-3.608,7.328-7.4
	c0.695-4.249-1.144-8.466-4.71-10.2c-1.44-0.7-1.887-1.564-1.828-3.059C35.476,45.411,35.407,43.017,35.407,40.625z M95.536,20.544
	c-2.894,0.015-6.202,2.501-6.545,5.348c-0.39,3.241-0.349,6.538-0.43,9.812c-0.119,4.799,3.654,7.932,8.234,7.974
	c7.947,0.072,15.896,0.033,23.844,0.003c1.23-0.005,2.084,0.112,2.033,1.691c-0.084,2.567-0.027,5.139-0.014,7.708
	c0.006,1.183-0.575,1.79-1.739,1.792c-8.366,0.01-16.733,0.033-25.098-0.043c-0.603-0.005-1.713-0.754-1.714-1.158
	c-0.006-2.658-1.797-2.35-3.477-2.314c-1.747,0.037-2.208,0.559-2.039,2.302c0.379,3.921,3.079,6.692,7.051,6.747
	c8.424,0.117,16.852,0.101,25.277,0.004c3.513-0.04,7.138-3.198,7.193-6.103c0.06-3.221-0.056-6.445-0.133-9.667
	c-0.086-3.578-3.42-6.842-7.019-6.685c-4.175,0.181-8.364,0.038-12.548,0.038c-4.004-0.001-8.008,0.002-12.012,0.001
	c-1.318,0-2.423-0.308-2.434-1.929c-0.019-2.689-0.02-5.378,0.003-8.067c0.01-1.231,0.66-1.838,1.917-1.836
	c8.306,0.01,16.613,0.006,24.92,0.005c1.152,0,1.744,0.564,1.864,1.715c0.053,0.508,0.215,1.415,0.399,1.434
	c1.447,0.148,2.997,0.408,4.325,0.006c0.487-0.147,0.88-2.118,0.594-3.032c-0.989-3.161-3.975-5.859-7.71-5.773
	c-4.002,0.092-8.007,0.021-12.011,0.022C104.021,20.539,99.778,20.522,95.536,20.544z M316.816,57.792
	c0.002,2.365,0.288,2.641,2.72,2.642c4.782,0.002,9.564-0.002,14.346-0.002c5.619,0,11.238,0.034,16.855-0.04
	c0.714-0.009,1.785-0.389,2.067-0.926c1.308-2.485-0.047-4.579-2.822-4.581c-8.607-0.006-17.215-0.031-25.822,0.023
	c-1.412,0.009-1.891-0.412-1.834-1.838c0.102-2.566,0.108-5.142,0.003-7.708c-0.057-1.396,0.466-1.702,1.758-1.688
	c5.558,0.06,11.117,0.025,16.676,0.023c1.315,0,2.638,0.081,3.943-0.031c1.952-0.168,2.275-0.978,2.254-3.985
	c-0.014-1.919-1.235-1.691-2.431-1.69c-6.754,0.001-13.509-0.038-20.263,0.035c-1.507,0.016-1.991-0.465-1.939-1.944
	c0.094-2.687,0.122-5.383-0.007-8.067c-0.075-1.565,0.514-1.889,1.947-1.88c8.786,0.055,17.573-0.003,26.36,0.054
	c1.628,0.01,2.443-0.392,2.414-2.187c-0.043-2.668-0.458-3.448-2.466-3.454c-10.4-0.027-20.801-0.025-31.201-0.002
	c-1.862,0.004-2.56,0.775-2.563,2.637c-0.008,5.798-0.003,11.596,0,17.394C316.814,46.316,316.812,52.054,316.816,57.792z
	 M144.63,26.163c8.724,0,17.448,0.02,26.172-0.036c0.725-0.005,1.829-0.313,2.105-0.829c1.335-2.499-0.085-4.756-2.87-4.759
	c-10.098-0.01-20.197-0.009-30.296-0.001c-2.207,0.002-2.745,0.546-2.751,2.759c-0.011,4.482-0.003,8.963-0.002,13.445
	c0.002,7.111,0.011,14.222,0,21.332c-0.002,1.32,0.153,2.375,1.883,2.371c10.756-0.025,21.512-0.002,32.267-0.046
	c0.574-0.002,1.581-0.386,1.643-0.727c0.229-1.257,0.425-2.66,0.056-3.825c-0.171-0.539-1.672-0.915-2.574-0.922
	c-8.724-0.067-17.448-0.064-26.172-0.014c-1.357,0.008-1.931-0.309-1.864-1.788c0.114-2.505,0.112-5.022,0-7.526
	c-0.066-1.485,0.392-1.947,1.901-1.93c6.692,0.076,13.385,0.036,20.077,0.032c2.161-0.001,3.292-0.977,3.297-2.819
	c0.006-2.24-0.707-2.886-3.199-2.886c-6.752-0.001-13.505,0.024-20.256-0.039c-0.592-0.006-1.679-0.567-1.69-0.9
	c-0.124-3.562-0.077-7.129-0.077-10.891C143.22,26.163,143.925,26.163,144.63,26.163z M270.282,58.022
	c0.006,0.721,0.234,1.975,0.585,2.06c1.23,0.3,2.673,0.525,3.807,0.127c0.695-0.243,1.316-1.653,1.374-2.577
	c0.177-2.797,0.083-5.612,0.053-8.42c-0.012-1.124,0.044-2.292-0.238-3.359c-0.513-1.941-0.457-2.141,1.61-2.152
	c2.868-0.016,5.74-0.095,8.6,0.051c0.879,0.045,1.976,0.522,2.545,1.174c3.647,4.185,7.334,8.354,10.681,12.777
	c1.856,2.453,4.027,3.127,6.805,2.736c0.48-0.068,1.038-0.293,1.334-0.638c0.135-0.157-0.185-0.863-0.456-1.188
	c-4.547-5.459-9.071-10.938-13.718-16.311c-1.143-1.322-1.151-2.124-0.009-3.452c4.632-5.385,9.121-10.892,13.7-16.323
	c0.852-1.01,0.658-1.765-0.519-1.903c-2.366-0.276-4.586-0.344-6.402,1.982c-3.782,4.844-7.822,9.49-11.866,14.122
	c-0.603,0.691-1.785,1.15-2.732,1.212c-2.498,0.166-5.019-0.031-7.522,0.087c-1.442,0.068-1.856-0.407-1.831-1.814
	c0.077-4.36,0.058-8.722,0.019-13.083c-0.016-1.806-1.22-2.648-3.488-2.594c-1.875,0.044-2.352,0.546-2.354,2.538
	c-0.006,5.855-0.002,11.71-0.002,17.564C270.256,46.432,270.236,52.227,270.282,58.022z M227.615,58.019
	c0.003,2.224,0.267,2.45,2.684,2.443c2.352-0.007,2.617-0.257,2.62-2.531c0.004-4.064,0.103-8.131-0.048-12.19
	c-0.066-1.773,0.6-2.086,2.152-2.071c6.633,0.063,13.267,0.038,19.901,0.024c2.271-0.005,2.759-0.63,2.741-3.351
	c-0.015-2.199-0.163-2.346-2.538-2.348c-6.753-0.005-13.507-0.038-20.259,0.029c-1.491,0.015-2.028-0.461-1.978-1.951
	c0.086-2.567,0.134-5.145-0.01-7.706c-0.097-1.728,0.435-2.256,2.182-2.24c8.725,0.08,17.45,0.046,26.175,0.019
	c0.679-0.002,1.902-0.154,1.946-0.403c0.246-1.371,0.424-2.84,0.146-4.175c-0.101-0.485-1.524-0.982-2.347-0.987
	c-10.279-0.067-20.558-0.049-30.837-0.042c-2.107,0.001-2.524,0.419-2.528,2.52c-0.01,5.857-0.003,11.713-0.003,17.57
	C227.612,46.425,227.606,52.222,227.615,58.019z M218.987,60.398c0.747-0.008,1.822-0.278,2.174-0.807
	c1.444-2.167-0.055-4.702-2.667-4.704c-9.744-0.006-19.489-0.045-29.233,0.036c-1.721,0.014-2.21-0.456-2.195-2.187
	c0.081-9.923,0.048-19.847,0.021-29.771c-0.002-0.606-0.149-1.647-0.456-1.741c-1.148-0.351-2.459-0.704-3.579-0.462
	c-1.12,0.242-1.586,1.39-1.581,2.701c0.04,11.358,0.019,22.717,0.027,34.076c0.002,2.216,0.68,2.889,2.876,2.892
	c5.739,0.007,11.478,0.003,17.217,0.002C207.389,60.433,213.188,60.462,218.987,60.398z M377.368,58.319
	c0.029,1.891,0.4,2.106,2.833,2.159c1.525,0.033,2.572-0.227,2.5-2.115c-0.089-2.326,0.188-4.681-0.068-6.982
	c-0.457-4.115,0.59-7.6,3.448-10.607c0.979-1.03,1.734-2.274,2.582-3.428c3.601-4.904,7.189-9.818,10.806-14.711
	c0.585-0.792,0.907-1.474-0.24-1.979c-1.678-0.739-4.519,0.042-5.668,1.503c-3.944,5.019-7.89,10.036-11.843,15.048
	c-1.679,2.128-1.717,2.102-3.445-0.103c-3.716-4.743-7.52-9.418-11.155-14.222c-1.463-1.933-3.169-2.726-5.518-2.341
	c-1.454,0.239-1.807,0.987-0.922,2.19c4.102,5.575,8.094,11.237,12.371,16.675c3.052,3.882,5.585,7.763,4.311,12.066
	C377.362,54.377,377.338,56.349,377.368,58.319z M33.394,53.827c-2.781-0.016-5.316,2.58-5.337,5.466
	c-0.021,2.867,2.535,5.527,5.31,5.525c2.87-0.001,5.234-2.489,5.217-5.491C38.566,56.24,36.305,53.844,33.394,53.827z"/>
</svg>
