<?xml version="1.0" encoding="utf-8"?>
<!-- Generator: Adobe Illustrator 17.0.1, SVG Export Plug-In . SVG Version: 6.00 Build 0)  -->
<!DOCTYPE svg PUBLIC "-//W3C//DTD SVG 1.1//EN" "http://www.w3.org/Graphics/SVG/1.1/DTD/svg11.dtd">
<svg version="1.1" id="Layer_1" xmlns="http://www.w3.org/2000/svg" xmlns:xlink="http://www.w3.org/1999/xlink" x="0px" y="0px"
	 width="400px" height="105.6px" viewBox="0 0 400 105.6" enable-background="new 0 0 400 105.6" xml:space="preserve">
<path fill="#FFFFFF" d="M400,78.4c-2.055,2.025-2.549,2.226-4.857,0.414c-1.77-1.39-3.157-3.267-4.944-5.173
	c-0.073,0.047-0.562,0.317-1.004,0.65c-15.748,11.844-37.724,4.615-43.297-14.247c-5.32-18.007,10.442-36.651,29.092-34.41
	c12.833,1.542,22.198,10.411,24.396,23.078c0.123,0.71,0.406,1.393,0.615,2.088C400,60,400,69.2,400,78.4z M390.463,52.81
	c-0.001-10.247-8.01-18.259-18.257-18.264c-9.972-0.005-18.244,8.211-18.288,18.163c-0.044,10.003,8.303,18.406,18.287,18.41
	C382.372,71.123,390.464,63.009,390.463,52.81z M70.4,105.6c2.136-1.301,4.572-2.283,6.351-3.962
	c5.669-5.349,11.124-10.926,16.572-16.504c0.694-0.711,1.183-1.939,1.204-2.939c0.118-5.529,0.066-11.061,0.058-16.592
	c-0.001-0.476-0.113-0.952-0.214-1.752c-0.712,0.662-1.155,1.049-1.57,1.463c-7.641,7.627-15.302,15.233-22.891,22.912
	c-1.2,1.215-1.902,1.348-3.18,0.051c-7.577-7.69-15.245-15.29-22.888-22.915c-0.436-0.435-0.926-0.815-1.691-1.482
	c-0.081,0.961-0.157,1.46-0.159,1.96c-0.01,3.399,0.341,6.841-0.079,10.186c-0.712,5.669,1.06,9.877,5.546,13.474
	C53.842,94.617,58.182,102.105,66,105.6C67.467,105.6,68.933,105.6,70.4,105.6z M0,39.2c1.765,5.209,5.837,8.634,9.547,12.339
	c9.238,9.226,18.475,18.453,27.718,27.674c0.351,0.35,0.757,0.644,1.287,1.09c0.155-0.456,0.302-0.686,0.302-0.916
	c0.01-5.995,0.038-11.991-0.044-17.985c-0.009-0.689-0.501-1.516-1.015-2.033C27.831,49.361,17.822,39.398,7.852,29.396
	c-0.854-0.857-1.454-0.95-2.274-0.01C3.749,31.484,1.863,33.532,0,35.6C0,36.8,0,38,0,39.2z M99.6,0
	c-1.597,1.489-1.909,3.426-1.91,5.472c-0.002,5.591,0.062,11.182-0.045,16.771c-0.034,1.767,0.51,2.285,2.261,2.267
	c7.986-0.079,15.973-0.029,23.959-0.039c0.487-0.001,0.973-0.119,1.46-0.183c0.107-0.174,0.215-0.347,0.322-0.521
	c-1.714-1.625-3.436-3.243-5.142-4.877C113.934,12.596,107.368,6.297,100.8,0C100.4,0,100,0,99.6,0z M35.6,0
	c-8.694,7.457-16.27,16.029-24.769,24.098c0.744,0.25,0.924,0.363,1.105,0.363c8.458,0.01,16.916-0.012,25.374,0.034
	c1.486,0.008,1.563-0.813,1.559-1.918c-0.02-5.728,0.117-11.46-0.091-17.18C38.711,3.581,37.751,1.798,37.2,0
	C36.667,0,36.133,0,35.6,0z M44.424,27.588c-1.813-0.019-2.428,0.479-2.41,2.356c0.087,9.056-0.014,18.114,0.105,27.17
	c0.015,1.166,0.64,2.599,1.463,3.437c7.701,7.838,15.527,15.552,23.259,23.36c1.096,1.107,1.74,1.191,2.879,0.04
	c7.822-7.905,15.738-15.718,23.541-23.642c0.734-0.745,1.254-2.051,1.266-3.103c0.098-9.123,0.01-18.247,0.098-27.37
	c0.017-1.779-0.498-2.269-2.253-2.25c-7.991,0.086-15.983,0.038-23.974,0.038C60.407,27.625,52.414,27.674,44.424,27.588z
	 M299.845,33.313c-0.122-0.048-0.273-0.065-0.36-0.149c-0.336-0.322-0.65-0.666-0.974-1c-3.106-3.189-6.767-5.445-11.191-6.164
	c-13.568-2.207-24.887,7.527-24.893,21.332c-0.004,8.466-0.017,16.932,0.011,25.397c0.006,1.981-0.589,4.797,0.443,5.723
	c1.19,1.067,3.885,0.388,5.911,0.612c2.011,0.222,2.631-0.488,2.609-2.546c-0.104-9.865-0.084-19.731-0.032-29.596
	c0.034-6.408,4.492-11.481,10.509-12.133c7.435-0.806,13.533,4.585,13.56,12.074c0.037,9.999,0.036,19.998-0.022,29.997
	c-0.009,1.618,0.438,2.344,2.144,2.206c1.391-0.113,2.798-0.021,4.198-0.022c2.686-0.003,2.685-0.004,2.685-2.596
	c0-9.999-0.038-19.998,0.014-29.997c0.033-6.31,4.862-11.346,11.084-11.722c7.068-0.427,12.76,4.89,12.796,12.081
	c0.051,10.065,0.04,20.131-0.015,30.197c-0.009,1.561,0.467,2.17,2.058,2.062c1.659-0.112,3.337-0.111,4.996,0.002
	c1.59,0.109,2.05-0.47,2.04-2.056c-0.068-10.132-0.012-20.264-0.047-30.396c-0.03-8.727-5.165-16.185-13.39-19.567
	c-7.6-3.125-16.441-1.218-22.465,4.891c-0.504,0.511-0.783,1.242-1.167,1.871C300.18,33.646,300.013,33.48,299.845,33.313z
	 M254.127,52.842c0.034,15.115-12.139,27.3-27.287,27.312c-15.031,0.012-27.269-12.158-27.274-27.124
	c-0.005-15.223,12.064-27.388,27.186-27.402C241.958,25.614,254.092,37.677,254.127,52.842z M226.851,34.706
	c-10.196-0.032-18.348,8.058-18.353,18.212c-0.005,9.983,8.165,18.221,18.152,18.304c10.066,0.084,18.399-8.145,18.433-18.203
	C245.119,42.819,237.072,34.738,226.851,34.706z M178.704,79.014c1.517-0.047,3.093-0.166,4.527-0.619
	c7.503-2.368,11.525-9.892,9.965-18.42c-1.275-6.965-7.09-11.944-14.157-12.087c-2.266-0.046-4.534,0.015-6.8-0.019
	c-4.027-0.061-6.366-2.429-6.328-6.361c0.038-3.933,2.406-6.319,6.382-6.353c3.866-0.033,7.734-0.055,11.6,0.006
	c3.597,0.057,6.364-1.391,8.125-4.484c0.569-1,1.093-2.51,0.721-3.407c-0.288-0.693-1.999-1.089-3.087-1.108
	c-5.731-0.105-11.466-0.051-17.199-0.047c-9.057,0.007-15.073,5.724-15.518,14.742c-0.455,9.218,5.85,15.896,15.052,15.935
	c2.2,0.009,4.402-0.058,6.599,0.026c3.796,0.146,5.995,2.732,5.907,6.824c-0.084,3.926-2.411,6.424-6.099,6.459
	c-3.933,0.037-7.868,0.086-11.799-0.014c-4.091-0.104-7.024,1.617-9.002,5.149c-1.295,2.313-0.551,3.748,2.114,3.791
	c3.332,0.055,6.666,0.013,10,0.013C172.705,79.041,175.707,79.106,178.704,79.014z M99.239,79.313
	c10.847-10.825,21.707-21.637,32.499-32.516c1.34-1.351,2.55-2.945,3.41-4.636c1.826-3.591,2.244-7.065-1.57-10.218
	c-0.869-0.719-1.671-1.539-2.401-2.4c-0.903-1.065-1.568-1.024-2.571-0.016c-9.867,9.92-19.803,19.772-29.641,29.719
	c-0.732,0.74-1.197,2.063-1.224,3.129c-0.126,4.994-0.056,9.993-0.055,14.99c0,0.9,0,1.799,0,3.154
	C98.464,79.92,98.893,79.658,99.239,79.313z M125.024,27.733c-0.032-0.006-0.339-0.11-0.646-0.111
	c-8.325-0.006-16.649,0.024-24.974-0.021c-1.495-0.008-1.745,0.688-1.739,1.967c0.038,7.858,0.02,15.717,0.02,23.575
	c0,0.642,0,1.283,0,2.016C106.934,45.882,115.994,36.792,125.024,27.733z M38.853,53.976c0.009-8.189-0.026-16.379,0.033-24.568
	c0.012-1.632-0.769-1.809-2.099-1.802c-7.99,0.039-15.979,0.016-23.969,0.024c-0.496,0.001-0.992,0.096-1.192,0.117
	c8.971,9.018,17.984,18.077,27.083,27.223C38.748,54.715,38.853,54.346,38.853,53.976z"/>
</svg>
