<?xml version="1.0" encoding="utf-8"?>
<!-- Generator: Adobe Illustrator 17.0.1, SVG Export Plug-In . SVG Version: 6.00 Build 0)  -->
<!DOCTYPE svg PUBLIC "-//W3C//DTD SVG 1.1//EN" "http://www.w3.org/Graphics/SVG/1.1/DTD/svg11.dtd">
<svg version="1.1" id="Layer_1" xmlns="http://www.w3.org/2000/svg" xmlns:xlink="http://www.w3.org/1999/xlink" x="0px" y="0px"
	 width="400px" height="122.4px" viewBox="0 0 400 122.4" enable-background="new 0 0 400 122.4" xml:space="preserve">
<path fill="#FFFFFF" d="M67.6,0c3.111,0.689,6.245,1.289,9.33,2.08c29.536,7.566,49.211,36.936,45.003,67.128
	c-3.696,26.514-23.048,47-49.296,52.199c-1.422,0.282-2.825,0.66-4.237,0.993c-4.8,0-9.6,0-14.4,0
	c-0.815-0.246-1.614-0.599-2.447-0.724c-23.435-3.5-43.527-21.594-49.446-44.594C1.333,74.073,0.699,71.028,0,68c0-4.4,0-8.8,0-13.2
	c0.224-0.825,0.535-1.638,0.659-2.478C4.207,28.097,22.053,8.135,45.678,2.046C48.694,1.269,51.758,0.677,54.8,0
	C59.067,0,63.333,0,67.6,0z M116.494,61.393c0.019-6.673-1.165-13.426-3.364-19.187C102.987,15.63,76.374,1.292,48.594,7.438
	C24.195,12.836,5.789,35.84,5.961,60.721c0.022,3.208,1.613,5.243,4.735,6.056c3.832,0.998,7.328,0.248,10.278-2.346
	c6.303-5.542,12.518-11.184,18.767-16.788c0.496-0.444,0.904-1.058,1.477-1.32c0.426-0.195,1.154-0.1,1.552,0.162
	c0.207,0.136,0.124,0.979-0.071,1.387c-0.217,0.456-0.72,0.77-1.078,1.164c-4.97,5.475-10.04,10.864-14.869,16.461
	c-3.516,4.075-2.289,9.599,2.424,12.209c3.686,2.042,7.942,1.688,11.501-1.453C51.215,66.954,61.635,57.521,72.1,48.139
	c0.446-0.399,0.828-1.045,1.334-1.159c0.682-0.154,1.704-0.157,2.117,0.248c0.393,0.385,0.306,1.394,0.205,2.096
	c-0.055,0.383-0.573,0.703-0.89,1.043c-6.131,6.581-12.342,13.089-18.365,19.767c-3.836,4.252-7.493,8.677-11.047,13.17
	c-3.037,3.839-2.481,9.309,0.997,12.528c3.233,2.993,7.345,2.855,11.278-0.623c5.289-4.678,10.458-9.492,15.678-14.247
	c0.393-0.358,0.736-0.858,1.199-1.028c0.409-0.151,1.128-0.1,1.387,0.17c0.238,0.249,0.188,0.976,0.006,1.373
	c-0.21,0.457-0.717,0.771-1.073,1.168c-5.693,6.347-11.435,12.652-17.051,19.068c-2.66,3.039-3.549,6.661-2.54,10.641
	c0.779,3.073,2.076,4.065,5.226,4.103C91.35,116.824,116.407,92.156,116.494,61.393z M400,79.2c-1.04,0.165-2.08,0.464-3.121,0.473
	c-5.666,0.046-11.333,0.084-16.998-0.015c-1.91-0.033-2.303,0.747-2.027,2.411c0.448,2.707,2.253,4.534,5.255,4.501
	c2.077-0.023,4.219-0.534,6.203-1.208c4.349-1.477,8.776,0.582,10.008,4.958c0.108,0.384-0.301,1.108-0.681,1.407
	c-6.399,5.035-17.747,5.908-24.649,1.885c-4.738-2.761-7.333-6.909-7.484-12.414c-0.112-4.063-0.089-8.134,0.014-12.197
	c0.174-6.86,3.948-11.56,10.662-13.167c4.573-1.095,9.158-0.923,13.557,0.865c4.567,1.856,7.465,5.219,8.592,10.065
	c0.132,0.567,0.441,1.093,0.669,1.637C400,72,400,75.6,400,79.2z M383.236,72.169c0,0.003,0,0.005,0,0.008
	c1.326,0,2.652-0.035,3.977,0.011c1.17,0.04,1.636-0.407,1.652-1.627c0.045-3.481-2.192-5.864-5.61-5.834
	c-3.408,0.03-5.658,2.477-5.332,5.988c0.049,0.522,0.819,1.307,1.347,1.39C380.563,72.306,381.91,72.169,383.236,72.169z
	 M269.441,56.484c1.434-0.377,2.619-0.786,3.838-0.993c7.491-1.269,14.389,2.542,16.819,9.716
	c2.321,6.854,2.072,13.976,0.461,20.914c-1.206,5.192-5.098,8.178-10.205,9.372c-5.558,1.299-10.969,1.005-16.066-1.963
	c-1.361-0.792-2.889-1.457-4.423-1.75c-1.644-0.315-1.979-1.088-1.974-2.588c0.047-13.531,0.034-27.062,0.036-40.593
	c0-1.733,0.031-3.467-0.026-5.199c-0.042-1.266,0.432-1.848,1.749-1.776c1.329,0.073,2.669-0.032,3.997,0.052
	c3.55,0.225,5.49,2.188,5.62,5.747c0.085,2.33,0.014,4.665,0.033,6.998C269.305,55.056,269.384,55.689,269.441,56.484z
	 M269.237,75.66c0.004,0,0.008,0,0.012,0c0,2.73-0.062,5.463,0.044,8.189c0.026,0.668,0.435,1.658,0.956,1.916
	c4.769,2.357,9.462-0.393,9.675-5.676c0.129-3.191,0.021-6.391,0.015-9.587c-0.004-2.216-0.697-4.126-2.798-5.132
	c-2.401-1.149-4.836-0.799-7.083,0.462c-0.47,0.264-0.765,1.201-0.785,1.839C269.188,70.331,269.237,72.996,269.237,75.66z
	 M316.058,71.968c0.691-4.294-1.032-6.649-4.954-6.643c-2.022,0.003-4.057,0.603-6.061,1.048c-4.125,0.917-7.958-1.962-7.977-6.158
	c-0.002-0.43,0.676-1.068,1.173-1.259c2.478-0.956,5.011-1.77,7.508-2.681c10.509-3.837,20.594,2.167,21.515,13.257
	c0.566,6.814,0.257,13.702,0.245,20.557c-0.001,0.494-0.685,1.197-1.217,1.442c-2.041,0.936-4.199,1.622-6.225,2.588
	c-6.597,3.144-13.097,2.87-19.27-0.866c-4.645-2.811-6.456-7.328-5.933-12.66c0.459-4.677,3.823-7.806,9.402-8.537
	c3.14-0.412,6.361-0.224,9.546-0.273C314.526,71.771,315.244,71.897,316.058,71.968z M316.339,82.625
	c-0.483-0.854,0.903-2.862-1.357-3.12c-1.967-0.224-3.991-0.226-5.963-0.044c-1.565,0.144-2.759,1.13-2.922,2.825
	c-0.168,1.743,0.474,3.298,2.196,3.854c1.414,0.457,2.993,0.61,4.489,0.568C316.391,86.608,316.393,86.525,316.339,82.625z
	 M228.461,80.433c0,3.063-0.046,6.127,0.023,9.188c0.027,1.203-0.346,1.696-1.564,2.048c-1.959,0.566-3.88,1.366-5.698,2.299
	c-5.95,3.054-11.954,2.964-17.901,0.246c-5.795-2.649-8.638-8.457-7.403-14.687c0.722-3.646,3.211-5.72,6.585-6.831
	c4.133-1.361,8.378-1.356,12.651-0.876c2.07,0.233,2.325-0.054,2.025-2.133c-0.378-2.624-1.748-4.209-4.44-4.282
	c-2.148-0.058-4.343,0.414-6.465,0.886c-4.344,0.967-7.496-1.11-8.235-5.523c-0.18-1.076,0.153-1.572,1.172-1.902
	c2.338-0.758,4.661-1.57,6.955-2.45c11.232-4.306,21.517,2.415,22.232,14.631c0.183,3.119,0.027,6.257,0.027,9.386
	C228.438,80.433,228.45,80.433,228.461,80.433z M217.268,82.874c-0.386-1.052,0.89-3.084-1.422-3.368
	c-1.957-0.24-3.979-0.237-5.943-0.042c-1.52,0.151-2.762,1.029-2.926,2.781c-0.174,1.853,0.495,3.403,2.305,3.956
	c1.419,0.433,2.994,0.548,4.489,0.5C217.268,86.588,217.311,86.465,217.268,82.874z M148.384,55.665
	c-7.564,1.325-11.229,7.39-8.874,14.642c0.972,2.992,2.896,5.39,5.667,6.703c2.977,1.41,6.194,2.341,9.354,3.329
	c2.912,0.91,4.269,1.929,4.063,3.416c-0.22,1.589-2.004,2.581-4.859,2.647c-3.633,0.085-7-0.875-10.057-2.811
	c-1.314-0.832-2.172-0.698-2.874,0.73c-0.646,1.313-1.305,2.641-2.141,3.835c-1.184,1.692-0.66,2.727,0.931,3.729
	c6.681,4.205,13.897,5.264,21.504,3.556c4.375-0.982,7.759-3.425,8.723-8.077c1.026-4.95-0.159-9.439-4.438-12.404
	c-2.409-1.669-5.313-2.66-8.067-3.779c-1.654-0.672-3.553-0.788-5.134-1.574c-0.89-0.442-1.93-1.795-1.846-2.631
	c0.08-0.793,1.48-1.946,2.404-2.055c1.875-0.222,3.849-0.007,5.732,0.317c4.882,0.838,7.068-0.19,9.534-4.486
	c0.739-1.287,0.448-1.857-0.748-2.471c-4.184-2.146-8.643-3.05-14.176-3.14C152.086,55.248,150.215,55.344,148.384,55.665z
	 M341.531,55.71c-4.302,0.875-7.875,2.899-8.937,7.503c-1.195,5.179,0.09,9.88,4.63,12.862c2.766,1.817,6.144,2.713,9.27,3.964
	c1.351,0.54,2.864,0.743,4.12,1.433c1.82,1,1.763,3.187-0.097,4.12c-1.029,0.516-2.289,0.734-3.457,0.782
	c-3.482,0.144-6.71-0.816-9.717-2.57c-2.126-1.24-2.236-1.193-3.477,1.029c-0.617,1.104-1.148,2.269-1.872,3.298
	c-1.153,1.639-0.761,2.678,0.879,3.714c6.74,4.258,14.011,5.325,21.678,3.562c4.722-1.086,8.029-3.889,8.8-8.938
	c0.738-4.833-0.821-8.947-4.849-11.689c-2.317-1.577-5.091-2.521-7.728-3.576c-1.595-0.638-3.347-0.874-4.985-1.42
	c-1.334-0.445-2.424-1.265-2.215-2.903c0.218-1.713,1.636-2.071,2.967-2.088c1.782-0.023,3.59,0.141,5.347,0.45
	c4.862,0.857,7.256-0.32,9.598-4.723c0.605-1.137,0.322-1.614-0.715-2.156c-4.23-2.212-8.751-3.128-14.414-3.224
	C345.36,55.252,343.414,55.327,341.531,55.71z M173.42,65.787c0,2.93-0.021,5.859,0.006,8.788c0.027,2.928-0.053,5.869,0.185,8.782
	c0.625,7.663,6.074,12.693,13.716,12.841c3.087,0.06,5.202-1.88,5.371-4.949c0.037-0.664,0.011-1.331,0.009-1.997
	c-0.007-2.944-0.008-2.944-2.932-2.988c-3.623-0.055-5.055-1.467-5.093-5.121c-0.036-3.462,0.051-6.926-0.038-10.386
	c-0.04-1.555,0.458-2.095,2.051-2.081c2.849,0.026,4.292-1.167,4.922-3.955c0.289-1.281,0.262-2.634,0.389-3.953
	c0.107-1.113-0.407-1.589-1.503-1.57c-1.464,0.024-2.931-0.03-4.394,0.015c-1.116,0.035-1.59-0.461-1.549-1.547
	c0.022-0.598,0.001-1.198,0.001-1.797c0.001-7.789-1.3-9.04-9.051-9.03c-1.655,0.002-2.205,0.513-2.182,2.171
	c0.079,5.592,0.03,11.185,0.03,16.778C173.38,65.787,173.4,65.787,173.42,65.787z M244.159,80.674c0-4.195,0.05-8.391-0.028-12.584
	c-0.026-1.413,0.475-2.201,1.856-2.261c2.316-0.101,4.64-0.216,6.951-0.11c1.239,0.057,1.705-0.22,1.672-1.477
	c-0.051-1.929-0.095-3.869,0.053-5.79c0.13-1.682-0.621-2.448-2.138-2.775c-3.389-0.731-6.738-0.693-10.047,0.43
	c-2.518,0.854-4.998,1.872-7.574,2.482c-1.669,0.395-2.092,1.121-2.08,2.718c0.076,10.054,0.113,20.109,0.039,30.162
	c-0.015,2.035,0.866,3.052,2.666,3.268c2.306,0.276,4.642,0.287,6.961,0.466c1.329,0.103,1.724-0.458,1.705-1.745
	c-0.062-4.26-0.023-8.522-0.023-12.784C244.168,80.674,244.163,80.674,244.159,80.674z M94.695,42.722
	c-0.386-0.857-0.604-1.858-1.189-2.547c-2.175-2.561-2.211-5.26-0.951-8.204c0.256-0.599,0.082-1.382,0.107-2.08
	c-0.685-0.004-1.472-0.232-2.039,0.026c-3.28,1.488-6.182,1.08-8.86-1.351c-0.487-0.442-1.267-0.56-1.912-0.828
	c-0.21,0.724-0.659,1.472-0.59,2.169c0.349,3.514-1.004,6.045-4.018,7.833c-0.599,0.355-0.938,1.149-1.397,1.741
	c0.658,0.399,1.269,1.003,1.981,1.162c3.269,0.73,5.263,2.61,5.99,5.921c0.167,0.76,0.836,1.41,1.274,2.11
	c0.619-0.547,1.398-0.991,1.827-1.66c1.643-2.564,3.777-4.091,7.449-3.657C92.85,43.224,93.772,42.973,94.695,42.722z M55.15,31.926
	c-2.67,1.111-5.046,0.709-7.25-1.133c-0.367-0.307-1.193-0.644-1.364-0.487c-0.365,0.337-0.637,1.002-0.602,1.509
	c0.192,2.796-0.879,4.876-3.199,6.429c-0.529,0.354-0.799,1.094-1.189,1.657c0.566,0.388,1.082,0.949,1.708,1.132
	c2.527,0.741,4.088,2.333,4.808,4.856c0.163,0.572,0.657,1.05,0.999,1.571c0.487-0.402,1.097-0.721,1.44-1.222
	c1.429-2.085,3.305-3.168,5.88-3.11c0.71,0.016,1.429-0.395,2.144-0.61c-0.294-0.704-0.45-1.516-0.906-2.092
	c-1.557-1.969-1.853-4.055-0.917-6.355c0.15-0.368,0.264-0.749,0.388-1.104C57.039,31.444,56.084,31.537,55.15,31.926z
	 M79.337,65.747c0.201,2.821-0.966,4.858-3.29,6.368c-0.45,0.292-0.718,0.865-1.069,1.308c0.468,0.319,0.895,0.793,1.412,0.93
	c2.686,0.713,4.389,2.344,5.121,5.041c0.141,0.519,0.584,0.956,0.887,1.431c0.5-0.369,1.15-0.637,1.473-1.124
	c1.499-2.258,3.538-3.294,6.246-3.178c0.579,0.025,1.176-0.356,1.765-0.55c-0.227-0.525-0.348-1.137-0.697-1.559
	c-1.739-2.101-2.059-4.374-1.102-6.905c0.193-0.51,0.112-1.123,0.157-1.689c-0.613-0.011-1.29-0.197-1.829-0.002
	c-2.533,0.918-4.819,0.656-6.906-1.108c-0.394-0.333-0.881-0.556-1.659-1.035C79.632,64.5,79.293,65.137,79.337,65.747z"/>
</svg>
